G04 #@! TF.GenerationSoftware,KiCad,Pcbnew,5.1.5-52549c5~84~ubuntu19.10.1*
G04 #@! TF.CreationDate,2020-03-16T22:21:34+01:00*
G04 #@! TF.ProjectId,tetris-board,74657472-6973-42d6-926f-6172642e6b69,rev?*
G04 #@! TF.SameCoordinates,Original*
G04 #@! TF.FileFunction,Other,Fab,Top*
%FSLAX46Y46*%
G04 Gerber Fmt 4.6, Leading zero omitted, Abs format (unit mm)*
G04 Created by KiCad (PCBNEW 5.1.5-52549c5~84~ubuntu19.10.1) date 2020-03-16 22:21:34*
%MOMM*%
%LPD*%
G04 APERTURE LIST*
%ADD10C,0.100000*%
%ADD11C,0.150000*%
%ADD12C,0.108000*%
G04 APERTURE END LIST*
D10*
X46355000Y-100060000D02*
X47355000Y-99060000D01*
X46355000Y-119380000D02*
X46355000Y-100060000D01*
X52705000Y-119380000D02*
X46355000Y-119380000D01*
X52705000Y-99060000D02*
X52705000Y-119380000D01*
X47355000Y-99060000D02*
X52705000Y-99060000D01*
X46355000Y-145780000D02*
X47355000Y-144780000D01*
X46355000Y-165100000D02*
X46355000Y-145780000D01*
X52705000Y-165100000D02*
X46355000Y-165100000D01*
X52705000Y-144780000D02*
X52705000Y-165100000D01*
X47355000Y-144780000D02*
X52705000Y-144780000D01*
X135950000Y-199470000D02*
X135950000Y-209470000D01*
X143450000Y-199470000D02*
X135950000Y-199470000D01*
X143450000Y-209470000D02*
X143450000Y-199470000D01*
X135950000Y-209470000D02*
X143450000Y-209470000D01*
X142250000Y-209420000D02*
X142250000Y-199520000D01*
X125150000Y-208890000D02*
X125150000Y-207620000D01*
X128850000Y-208890000D02*
X128850000Y-207620000D01*
X132000000Y-207620000D02*
X122000000Y-207620000D01*
X122000000Y-208890000D02*
X132000000Y-208890000D01*
X122000000Y-204490000D02*
X122000000Y-208890000D01*
X132000000Y-204490000D02*
X122000000Y-204490000D01*
X132000000Y-208890000D02*
X132000000Y-204490000D01*
X139767500Y-215266395D02*
X139267500Y-215266395D01*
X139517500Y-215016395D02*
X139517500Y-215516395D01*
X140930000Y-217150000D02*
G75*
G03X140930000Y-217150000I-2500000J0D01*
G01*
X132147500Y-215266395D02*
X131647500Y-215266395D01*
X131897500Y-215016395D02*
X131897500Y-215516395D01*
X133310000Y-217150000D02*
G75*
G03X133310000Y-217150000I-2500000J0D01*
G01*
X100515564Y-224500000D02*
G75*
G03X100515564Y-224500000I-2015564J0D01*
G01*
X95500000Y-221500000D02*
X98500000Y-221500000D01*
X95500000Y-227500000D02*
X95500000Y-221500000D01*
X101500000Y-227500000D02*
X95500000Y-227500000D01*
X101500000Y-221500000D02*
X101500000Y-227500000D01*
X98500000Y-221500000D02*
X101500000Y-221500000D01*
X87815564Y-232120000D02*
G75*
G03X87815564Y-232120000I-2015564J0D01*
G01*
X82800000Y-229120000D02*
X85800000Y-229120000D01*
X82800000Y-235120000D02*
X82800000Y-229120000D01*
X88800000Y-235120000D02*
X82800000Y-235120000D01*
X88800000Y-229120000D02*
X88800000Y-235120000D01*
X85800000Y-229120000D02*
X88800000Y-229120000D01*
X87815564Y-216880000D02*
G75*
G03X87815564Y-216880000I-2015564J0D01*
G01*
X82800000Y-213880000D02*
X85800000Y-213880000D01*
X82800000Y-219880000D02*
X82800000Y-213880000D01*
X88800000Y-219880000D02*
X82800000Y-219880000D01*
X88800000Y-213880000D02*
X88800000Y-219880000D01*
X85800000Y-213880000D02*
X88800000Y-213880000D01*
X75115564Y-224500000D02*
G75*
G03X75115564Y-224500000I-2015564J0D01*
G01*
X70100000Y-221500000D02*
X73100000Y-221500000D01*
X70100000Y-227500000D02*
X70100000Y-221500000D01*
X76100000Y-227500000D02*
X70100000Y-227500000D01*
X76100000Y-221500000D02*
X76100000Y-227500000D01*
X73100000Y-221500000D02*
X76100000Y-221500000D01*
X138430000Y-139700000D02*
X138430000Y-140440000D01*
X138430000Y-144780000D02*
X138430000Y-144040000D01*
X137630000Y-140440000D02*
X137630000Y-144040000D01*
X139230000Y-140440000D02*
X137630000Y-140440000D01*
X139230000Y-144040000D02*
X139230000Y-140440000D01*
X137630000Y-144040000D02*
X139230000Y-144040000D01*
X132080000Y-72390000D02*
X132080000Y-71650000D01*
X132080000Y-67310000D02*
X132080000Y-68050000D01*
X132880000Y-71650000D02*
X132880000Y-68050000D01*
X131280000Y-71650000D02*
X132880000Y-71650000D01*
X131280000Y-68050000D02*
X131280000Y-71650000D01*
X132880000Y-68050000D02*
X131280000Y-68050000D01*
X132080000Y-81280000D02*
X132080000Y-80540000D01*
X132080000Y-76200000D02*
X132080000Y-76940000D01*
X132880000Y-80540000D02*
X132880000Y-76940000D01*
X131280000Y-80540000D02*
X132880000Y-80540000D01*
X131280000Y-76940000D02*
X131280000Y-80540000D01*
X132880000Y-76940000D02*
X131280000Y-76940000D01*
X132080000Y-90170000D02*
X132080000Y-89430000D01*
X132080000Y-85090000D02*
X132080000Y-85830000D01*
X132880000Y-89430000D02*
X132880000Y-85830000D01*
X131280000Y-89430000D02*
X132880000Y-89430000D01*
X131280000Y-85830000D02*
X131280000Y-89430000D01*
X132880000Y-85830000D02*
X131280000Y-85830000D01*
X106680000Y-232410000D02*
X107420000Y-232410000D01*
X111760000Y-232410000D02*
X111020000Y-232410000D01*
X107420000Y-233210000D02*
X111020000Y-233210000D01*
X107420000Y-231610000D02*
X107420000Y-233210000D01*
X111020000Y-231610000D02*
X107420000Y-231610000D01*
X111020000Y-233210000D02*
X111020000Y-231610000D01*
X57150000Y-223520000D02*
X57150000Y-224260000D01*
X57150000Y-228600000D02*
X57150000Y-227860000D01*
X56350000Y-224260000D02*
X56350000Y-227860000D01*
X57950000Y-224260000D02*
X56350000Y-224260000D01*
X57950000Y-227860000D02*
X57950000Y-224260000D01*
X56350000Y-227860000D02*
X57950000Y-227860000D01*
X49530000Y-228600000D02*
X49530000Y-227860000D01*
X49530000Y-223520000D02*
X49530000Y-224260000D01*
X50330000Y-227860000D02*
X50330000Y-224260000D01*
X48730000Y-227860000D02*
X50330000Y-227860000D01*
X48730000Y-224260000D02*
X48730000Y-227860000D01*
X50330000Y-224260000D02*
X48730000Y-224260000D01*
X49530000Y-218440000D02*
X49530000Y-217700000D01*
X49530000Y-213360000D02*
X49530000Y-214100000D01*
X50330000Y-217700000D02*
X50330000Y-214100000D01*
X48730000Y-217700000D02*
X50330000Y-217700000D01*
X48730000Y-214100000D02*
X48730000Y-217700000D01*
X50330000Y-214100000D02*
X48730000Y-214100000D01*
X49530000Y-208280000D02*
X49530000Y-207540000D01*
X49530000Y-203200000D02*
X49530000Y-203940000D01*
X50330000Y-207540000D02*
X50330000Y-203940000D01*
X48730000Y-207540000D02*
X50330000Y-207540000D01*
X48730000Y-203940000D02*
X48730000Y-207540000D01*
X50330000Y-203940000D02*
X48730000Y-203940000D01*
X135630000Y-175260000D02*
G75*
G03X135630000Y-175260000I-1000000J0D01*
G01*
X140630000Y-175260000D02*
G75*
G03X140630000Y-175260000I-6000000J0D01*
G01*
X52070000Y-139700000D02*
X51330000Y-139700000D01*
X46990000Y-139700000D02*
X47730000Y-139700000D01*
X51330000Y-138900000D02*
X47730000Y-138900000D01*
X51330000Y-140500000D02*
X51330000Y-138900000D01*
X47730000Y-140500000D02*
X51330000Y-140500000D01*
X47730000Y-138900000D02*
X47730000Y-140500000D01*
X52070000Y-134620000D02*
X51330000Y-134620000D01*
X46990000Y-134620000D02*
X47730000Y-134620000D01*
X51330000Y-133820000D02*
X47730000Y-133820000D01*
X51330000Y-135420000D02*
X51330000Y-133820000D01*
X47730000Y-135420000D02*
X51330000Y-135420000D01*
X47730000Y-133820000D02*
X47730000Y-135420000D01*
X52070000Y-129540000D02*
X51330000Y-129540000D01*
X46990000Y-129540000D02*
X47730000Y-129540000D01*
X51330000Y-128740000D02*
X47730000Y-128740000D01*
X51330000Y-130340000D02*
X51330000Y-128740000D01*
X47730000Y-130340000D02*
X51330000Y-130340000D01*
X47730000Y-128740000D02*
X47730000Y-130340000D01*
X52070000Y-124460000D02*
X51330000Y-124460000D01*
X46990000Y-124460000D02*
X47730000Y-124460000D01*
X51330000Y-123660000D02*
X47730000Y-123660000D01*
X51330000Y-125260000D02*
X51330000Y-123660000D01*
X47730000Y-125260000D02*
X51330000Y-125260000D01*
X47730000Y-123660000D02*
X47730000Y-125260000D01*
X49530000Y-175260000D02*
X49530000Y-174520000D01*
X49530000Y-170180000D02*
X49530000Y-170920000D01*
X50330000Y-174520000D02*
X50330000Y-170920000D01*
X48730000Y-174520000D02*
X50330000Y-174520000D01*
X48730000Y-170920000D02*
X48730000Y-174520000D01*
X50330000Y-170920000D02*
X48730000Y-170920000D01*
X124460000Y-173990000D02*
X124460000Y-173250000D01*
X124460000Y-168910000D02*
X124460000Y-169650000D01*
X125260000Y-173250000D02*
X125260000Y-169650000D01*
X123660000Y-173250000D02*
X125260000Y-173250000D01*
X123660000Y-169650000D02*
X123660000Y-173250000D01*
X125260000Y-169650000D02*
X123660000Y-169650000D01*
X49530000Y-195580000D02*
X49530000Y-194840000D01*
X49530000Y-190500000D02*
X49530000Y-191240000D01*
X50330000Y-194840000D02*
X50330000Y-191240000D01*
X48730000Y-194840000D02*
X50330000Y-194840000D01*
X48730000Y-191240000D02*
X48730000Y-194840000D01*
X50330000Y-191240000D02*
X48730000Y-191240000D01*
X49530000Y-185420000D02*
X49530000Y-184680000D01*
X49530000Y-180340000D02*
X49530000Y-181080000D01*
X50330000Y-184680000D02*
X50330000Y-181080000D01*
X48730000Y-184680000D02*
X50330000Y-184680000D01*
X48730000Y-181080000D02*
X48730000Y-184680000D01*
X50330000Y-181080000D02*
X48730000Y-181080000D01*
X127635000Y-145780000D02*
X128635000Y-144780000D01*
X127635000Y-165100000D02*
X127635000Y-145780000D01*
X133985000Y-165100000D02*
X127635000Y-165100000D01*
X133985000Y-144780000D02*
X133985000Y-165100000D01*
X128635000Y-144780000D02*
X133985000Y-144780000D01*
D11*
X47958571Y-65222380D02*
X47387142Y-65222380D01*
X47672857Y-65222380D02*
X47672857Y-64222380D01*
X47577619Y-64365238D01*
X47482380Y-64460476D01*
X47387142Y-64508095D01*
X48815714Y-64222380D02*
X48625238Y-64222380D01*
X48530000Y-64270000D01*
X48482380Y-64317619D01*
X48387142Y-64460476D01*
X48339523Y-64650952D01*
X48339523Y-65031904D01*
X48387142Y-65127142D01*
X48434761Y-65174761D01*
X48530000Y-65222380D01*
X48720476Y-65222380D01*
X48815714Y-65174761D01*
X48863333Y-65127142D01*
X48910952Y-65031904D01*
X48910952Y-64793809D01*
X48863333Y-64698571D01*
X48815714Y-64650952D01*
X48720476Y-64603333D01*
X48530000Y-64603333D01*
X48434761Y-64650952D01*
X48387142Y-64698571D01*
X48339523Y-64793809D01*
X49530000Y-64222380D02*
X49625238Y-64222380D01*
X49720476Y-64270000D01*
X49768095Y-64317619D01*
X49815714Y-64412857D01*
X49863333Y-64603333D01*
X49863333Y-64841428D01*
X49815714Y-65031904D01*
X49768095Y-65127142D01*
X49720476Y-65174761D01*
X49625238Y-65222380D01*
X49530000Y-65222380D01*
X49434761Y-65174761D01*
X49387142Y-65127142D01*
X49339523Y-65031904D01*
X49291904Y-64841428D01*
X49291904Y-64603333D01*
X49339523Y-64412857D01*
X49387142Y-64317619D01*
X49434761Y-64270000D01*
X49530000Y-64222380D01*
X50244285Y-64317619D02*
X50291904Y-64270000D01*
X50387142Y-64222380D01*
X50625238Y-64222380D01*
X50720476Y-64270000D01*
X50768095Y-64317619D01*
X50815714Y-64412857D01*
X50815714Y-64508095D01*
X50768095Y-64650952D01*
X50196666Y-65222380D01*
X50815714Y-65222380D01*
X51196666Y-64936666D02*
X51672857Y-64936666D01*
X51101428Y-65222380D02*
X51434761Y-64222380D01*
X51768095Y-65222380D01*
X129460952Y-108402380D02*
X129460952Y-107402380D01*
X129841904Y-107402380D01*
X129937142Y-107450000D01*
X129984761Y-107497619D01*
X130032380Y-107592857D01*
X130032380Y-107735714D01*
X129984761Y-107830952D01*
X129937142Y-107878571D01*
X129841904Y-107926190D01*
X129460952Y-107926190D01*
X130460952Y-108402380D02*
X130460952Y-107735714D01*
X130460952Y-107926190D02*
X130508571Y-107830952D01*
X130556190Y-107783333D01*
X130651428Y-107735714D01*
X130746666Y-107735714D01*
X131222857Y-108402380D02*
X131127619Y-108354761D01*
X131080000Y-108307142D01*
X131032380Y-108211904D01*
X131032380Y-107926190D01*
X131080000Y-107830952D01*
X131127619Y-107783333D01*
X131222857Y-107735714D01*
X131365714Y-107735714D01*
X131460952Y-107783333D01*
X131508571Y-107830952D01*
X131556190Y-107926190D01*
X131556190Y-108211904D01*
X131508571Y-108307142D01*
X131460952Y-108354761D01*
X131365714Y-108402380D01*
X131222857Y-108402380D01*
X131984761Y-108402380D02*
X131984761Y-107735714D01*
X131984761Y-107830952D02*
X132032380Y-107783333D01*
X132127619Y-107735714D01*
X132270476Y-107735714D01*
X132365714Y-107783333D01*
X132413333Y-107878571D01*
X132413333Y-108402380D01*
X132413333Y-107878571D02*
X132460952Y-107783333D01*
X132556190Y-107735714D01*
X132699047Y-107735714D01*
X132794285Y-107783333D01*
X132841904Y-107878571D01*
X132841904Y-108402380D01*
X133318095Y-108402380D02*
X133318095Y-107735714D01*
X133318095Y-107402380D02*
X133270476Y-107450000D01*
X133318095Y-107497619D01*
X133365714Y-107450000D01*
X133318095Y-107402380D01*
X133318095Y-107497619D01*
X133794285Y-107735714D02*
X133794285Y-108402380D01*
X133794285Y-107830952D02*
X133841904Y-107783333D01*
X133937142Y-107735714D01*
X134080000Y-107735714D01*
X134175238Y-107783333D01*
X134222857Y-107878571D01*
X134222857Y-108402380D01*
X134699047Y-108402380D02*
X134699047Y-107735714D01*
X134699047Y-107402380D02*
X134651428Y-107450000D01*
X134699047Y-107497619D01*
X134746666Y-107450000D01*
X134699047Y-107402380D01*
X134699047Y-107497619D01*
X56396666Y-167862380D02*
X56968095Y-167862380D01*
X56682380Y-168862380D02*
X56682380Y-167862380D01*
X57491904Y-167862380D02*
X57682380Y-167862380D01*
X57777619Y-167910000D01*
X57872857Y-168005238D01*
X57920476Y-168195714D01*
X57920476Y-168529047D01*
X57872857Y-168719523D01*
X57777619Y-168814761D01*
X57682380Y-168862380D01*
X57491904Y-168862380D01*
X57396666Y-168814761D01*
X57301428Y-168719523D01*
X57253809Y-168529047D01*
X57253809Y-168195714D01*
X57301428Y-168005238D01*
X57396666Y-167910000D01*
X57491904Y-167862380D01*
X58349047Y-168862380D02*
X58349047Y-167862380D01*
X58682380Y-168576666D01*
X59015714Y-167862380D01*
X59015714Y-168862380D01*
X59444285Y-167957619D02*
X59491904Y-167910000D01*
X59587142Y-167862380D01*
X59825238Y-167862380D01*
X59920476Y-167910000D01*
X59968095Y-167957619D01*
X60015714Y-168052857D01*
X60015714Y-168148095D01*
X59968095Y-168290952D01*
X59396666Y-168862380D01*
X60015714Y-168862380D01*
X60634761Y-167862380D02*
X60729999Y-167862380D01*
X60825238Y-167910000D01*
X60872857Y-167957619D01*
X60920476Y-168052857D01*
X60968095Y-168243333D01*
X60968095Y-168481428D01*
X60920476Y-168671904D01*
X60872857Y-168767142D01*
X60825238Y-168814761D01*
X60729999Y-168862380D01*
X60634761Y-168862380D01*
X60539523Y-168814761D01*
X60491904Y-168767142D01*
X60444285Y-168671904D01*
X60396666Y-168481428D01*
X60396666Y-168243333D01*
X60444285Y-168052857D01*
X60491904Y-167957619D01*
X60539523Y-167910000D01*
X60634761Y-167862380D01*
X61872857Y-167862380D02*
X61396666Y-167862380D01*
X61349047Y-168338571D01*
X61396666Y-168290952D01*
X61491904Y-168243333D01*
X61729999Y-168243333D01*
X61825238Y-168290952D01*
X61872857Y-168338571D01*
X61920476Y-168433809D01*
X61920476Y-168671904D01*
X61872857Y-168767142D01*
X61825238Y-168814761D01*
X61729999Y-168862380D01*
X61491904Y-168862380D01*
X61396666Y-168814761D01*
X61349047Y-168767142D01*
X62491904Y-168290952D02*
X62396666Y-168243333D01*
X62349047Y-168195714D01*
X62301428Y-168100476D01*
X62301428Y-168052857D01*
X62349047Y-167957619D01*
X62396666Y-167910000D01*
X62491904Y-167862380D01*
X62682380Y-167862380D01*
X62777619Y-167910000D01*
X62825238Y-167957619D01*
X62872857Y-168052857D01*
X62872857Y-168100476D01*
X62825238Y-168195714D01*
X62777619Y-168243333D01*
X62682380Y-168290952D01*
X62491904Y-168290952D01*
X62396666Y-168338571D01*
X62349047Y-168386190D01*
X62301428Y-168481428D01*
X62301428Y-168671904D01*
X62349047Y-168767142D01*
X62396666Y-168814761D01*
X62491904Y-168862380D01*
X62682380Y-168862380D01*
X62777619Y-168814761D01*
X62825238Y-168767142D01*
X62872857Y-168671904D01*
X62872857Y-168481428D01*
X62825238Y-168386190D01*
X62777619Y-168338571D01*
X62682380Y-168290952D01*
X63253809Y-168576666D02*
X63729999Y-168576666D01*
X63158571Y-168862380D02*
X63491904Y-167862380D01*
X63825238Y-168862380D01*
X64158571Y-168862380D02*
X64158571Y-167862380D01*
X64491904Y-168576666D01*
X64825238Y-167862380D01*
X64825238Y-168862380D01*
X65253809Y-168576666D02*
X65729999Y-168576666D01*
X65158571Y-168862380D02*
X65491904Y-167862380D01*
X65825238Y-168862380D01*
X66158571Y-168481428D02*
X66920476Y-168481428D01*
X67730000Y-168338571D02*
X67872857Y-168386190D01*
X67920476Y-168433809D01*
X67968095Y-168529047D01*
X67968095Y-168671904D01*
X67920476Y-168767142D01*
X67872857Y-168814761D01*
X67777619Y-168862380D01*
X67396666Y-168862380D01*
X67396666Y-167862380D01*
X67730000Y-167862380D01*
X67825238Y-167910000D01*
X67872857Y-167957619D01*
X67920476Y-168052857D01*
X67920476Y-168148095D01*
X67872857Y-168243333D01*
X67825238Y-168290952D01*
X67730000Y-168338571D01*
X67396666Y-168338571D01*
X56396666Y-129762380D02*
X56968095Y-129762380D01*
X56682380Y-130762380D02*
X56682380Y-129762380D01*
X57491904Y-129762380D02*
X57682380Y-129762380D01*
X57777619Y-129810000D01*
X57872857Y-129905238D01*
X57920476Y-130095714D01*
X57920476Y-130429047D01*
X57872857Y-130619523D01*
X57777619Y-130714761D01*
X57682380Y-130762380D01*
X57491904Y-130762380D01*
X57396666Y-130714761D01*
X57301428Y-130619523D01*
X57253809Y-130429047D01*
X57253809Y-130095714D01*
X57301428Y-129905238D01*
X57396666Y-129810000D01*
X57491904Y-129762380D01*
X58349047Y-130762380D02*
X58349047Y-129762380D01*
X58682380Y-130476666D01*
X59015714Y-129762380D01*
X59015714Y-130762380D01*
X59444285Y-129857619D02*
X59491904Y-129810000D01*
X59587142Y-129762380D01*
X59825238Y-129762380D01*
X59920476Y-129810000D01*
X59968095Y-129857619D01*
X60015714Y-129952857D01*
X60015714Y-130048095D01*
X59968095Y-130190952D01*
X59396666Y-130762380D01*
X60015714Y-130762380D01*
X60634761Y-129762380D02*
X60729999Y-129762380D01*
X60825238Y-129810000D01*
X60872857Y-129857619D01*
X60920476Y-129952857D01*
X60968095Y-130143333D01*
X60968095Y-130381428D01*
X60920476Y-130571904D01*
X60872857Y-130667142D01*
X60825238Y-130714761D01*
X60729999Y-130762380D01*
X60634761Y-130762380D01*
X60539523Y-130714761D01*
X60491904Y-130667142D01*
X60444285Y-130571904D01*
X60396666Y-130381428D01*
X60396666Y-130143333D01*
X60444285Y-129952857D01*
X60491904Y-129857619D01*
X60539523Y-129810000D01*
X60634761Y-129762380D01*
X61872857Y-129762380D02*
X61396666Y-129762380D01*
X61349047Y-130238571D01*
X61396666Y-130190952D01*
X61491904Y-130143333D01*
X61729999Y-130143333D01*
X61825238Y-130190952D01*
X61872857Y-130238571D01*
X61920476Y-130333809D01*
X61920476Y-130571904D01*
X61872857Y-130667142D01*
X61825238Y-130714761D01*
X61729999Y-130762380D01*
X61491904Y-130762380D01*
X61396666Y-130714761D01*
X61349047Y-130667142D01*
X62491904Y-130190952D02*
X62396666Y-130143333D01*
X62349047Y-130095714D01*
X62301428Y-130000476D01*
X62301428Y-129952857D01*
X62349047Y-129857619D01*
X62396666Y-129810000D01*
X62491904Y-129762380D01*
X62682380Y-129762380D01*
X62777619Y-129810000D01*
X62825238Y-129857619D01*
X62872857Y-129952857D01*
X62872857Y-130000476D01*
X62825238Y-130095714D01*
X62777619Y-130143333D01*
X62682380Y-130190952D01*
X62491904Y-130190952D01*
X62396666Y-130238571D01*
X62349047Y-130286190D01*
X62301428Y-130381428D01*
X62301428Y-130571904D01*
X62349047Y-130667142D01*
X62396666Y-130714761D01*
X62491904Y-130762380D01*
X62682380Y-130762380D01*
X62777619Y-130714761D01*
X62825238Y-130667142D01*
X62872857Y-130571904D01*
X62872857Y-130381428D01*
X62825238Y-130286190D01*
X62777619Y-130238571D01*
X62682380Y-130190952D01*
X63253809Y-130476666D02*
X63729999Y-130476666D01*
X63158571Y-130762380D02*
X63491904Y-129762380D01*
X63825238Y-130762380D01*
X64158571Y-130762380D02*
X64158571Y-129762380D01*
X64491904Y-130476666D01*
X64825238Y-129762380D01*
X64825238Y-130762380D01*
X65253809Y-130476666D02*
X65729999Y-130476666D01*
X65158571Y-130762380D02*
X65491904Y-129762380D01*
X65825238Y-130762380D01*
X66158571Y-130381428D02*
X66920476Y-130381428D01*
X67730000Y-130238571D02*
X67872857Y-130286190D01*
X67920476Y-130333809D01*
X67968095Y-130429047D01*
X67968095Y-130571904D01*
X67920476Y-130667142D01*
X67872857Y-130714761D01*
X67777619Y-130762380D01*
X67396666Y-130762380D01*
X67396666Y-129762380D01*
X67730000Y-129762380D01*
X67825238Y-129810000D01*
X67872857Y-129857619D01*
X67920476Y-129952857D01*
X67920476Y-130048095D01*
X67872857Y-130143333D01*
X67825238Y-130190952D01*
X67730000Y-130238571D01*
X67396666Y-130238571D01*
X46268095Y-119892380D02*
X46934761Y-119892380D01*
X46506190Y-120892380D01*
X47744285Y-120225714D02*
X47744285Y-120892380D01*
X47506190Y-119844761D02*
X47268095Y-120559047D01*
X47887142Y-120559047D01*
X48268095Y-120892380D02*
X48268095Y-119892380D01*
X48268095Y-120368571D02*
X48839523Y-120368571D01*
X48839523Y-120892380D02*
X48839523Y-119892380D01*
X49887142Y-120797142D02*
X49839523Y-120844761D01*
X49696666Y-120892380D01*
X49601428Y-120892380D01*
X49458571Y-120844761D01*
X49363333Y-120749523D01*
X49315714Y-120654285D01*
X49268095Y-120463809D01*
X49268095Y-120320952D01*
X49315714Y-120130476D01*
X49363333Y-120035238D01*
X49458571Y-119940000D01*
X49601428Y-119892380D01*
X49696666Y-119892380D01*
X49839523Y-119940000D01*
X49887142Y-119987619D01*
X50791904Y-119892380D02*
X50315714Y-119892380D01*
X50268095Y-120368571D01*
X50315714Y-120320952D01*
X50410952Y-120273333D01*
X50649047Y-120273333D01*
X50744285Y-120320952D01*
X50791904Y-120368571D01*
X50839523Y-120463809D01*
X50839523Y-120701904D01*
X50791904Y-120797142D01*
X50744285Y-120844761D01*
X50649047Y-120892380D01*
X50410952Y-120892380D01*
X50315714Y-120844761D01*
X50268095Y-120797142D01*
X51315714Y-120892380D02*
X51506190Y-120892380D01*
X51601428Y-120844761D01*
X51649047Y-120797142D01*
X51744285Y-120654285D01*
X51791904Y-120463809D01*
X51791904Y-120082857D01*
X51744285Y-119987619D01*
X51696666Y-119940000D01*
X51601428Y-119892380D01*
X51410952Y-119892380D01*
X51315714Y-119940000D01*
X51268095Y-119987619D01*
X51220476Y-120082857D01*
X51220476Y-120320952D01*
X51268095Y-120416190D01*
X51315714Y-120463809D01*
X51410952Y-120511428D01*
X51601428Y-120511428D01*
X51696666Y-120463809D01*
X51744285Y-120416190D01*
X51791904Y-120320952D01*
X52696666Y-119892380D02*
X52220476Y-119892380D01*
X52172857Y-120368571D01*
X52220476Y-120320952D01*
X52315714Y-120273333D01*
X52553809Y-120273333D01*
X52649047Y-120320952D01*
X52696666Y-120368571D01*
X52744285Y-120463809D01*
X52744285Y-120701904D01*
X52696666Y-120797142D01*
X52649047Y-120844761D01*
X52553809Y-120892380D01*
X52315714Y-120892380D01*
X52220476Y-120844761D01*
X52172857Y-120797142D01*
X48768095Y-108672380D02*
X48768095Y-109481904D01*
X48815714Y-109577142D01*
X48863333Y-109624761D01*
X48958571Y-109672380D01*
X49149047Y-109672380D01*
X49244285Y-109624761D01*
X49291904Y-109577142D01*
X49339523Y-109481904D01*
X49339523Y-108672380D01*
X50244285Y-109005714D02*
X50244285Y-109672380D01*
X50006190Y-108624761D02*
X49768095Y-109339047D01*
X50387142Y-109339047D01*
X56396666Y-90892380D02*
X56968095Y-90892380D01*
X56682380Y-91892380D02*
X56682380Y-90892380D01*
X57491904Y-90892380D02*
X57682380Y-90892380D01*
X57777619Y-90940000D01*
X57872857Y-91035238D01*
X57920476Y-91225714D01*
X57920476Y-91559047D01*
X57872857Y-91749523D01*
X57777619Y-91844761D01*
X57682380Y-91892380D01*
X57491904Y-91892380D01*
X57396666Y-91844761D01*
X57301428Y-91749523D01*
X57253809Y-91559047D01*
X57253809Y-91225714D01*
X57301428Y-91035238D01*
X57396666Y-90940000D01*
X57491904Y-90892380D01*
X58349047Y-91892380D02*
X58349047Y-90892380D01*
X58682380Y-91606666D01*
X59015714Y-90892380D01*
X59015714Y-91892380D01*
X59444285Y-90987619D02*
X59491904Y-90940000D01*
X59587142Y-90892380D01*
X59825238Y-90892380D01*
X59920476Y-90940000D01*
X59968095Y-90987619D01*
X60015714Y-91082857D01*
X60015714Y-91178095D01*
X59968095Y-91320952D01*
X59396666Y-91892380D01*
X60015714Y-91892380D01*
X60634761Y-90892380D02*
X60729999Y-90892380D01*
X60825238Y-90940000D01*
X60872857Y-90987619D01*
X60920476Y-91082857D01*
X60968095Y-91273333D01*
X60968095Y-91511428D01*
X60920476Y-91701904D01*
X60872857Y-91797142D01*
X60825238Y-91844761D01*
X60729999Y-91892380D01*
X60634761Y-91892380D01*
X60539523Y-91844761D01*
X60491904Y-91797142D01*
X60444285Y-91701904D01*
X60396666Y-91511428D01*
X60396666Y-91273333D01*
X60444285Y-91082857D01*
X60491904Y-90987619D01*
X60539523Y-90940000D01*
X60634761Y-90892380D01*
X61872857Y-90892380D02*
X61396666Y-90892380D01*
X61349047Y-91368571D01*
X61396666Y-91320952D01*
X61491904Y-91273333D01*
X61729999Y-91273333D01*
X61825238Y-91320952D01*
X61872857Y-91368571D01*
X61920476Y-91463809D01*
X61920476Y-91701904D01*
X61872857Y-91797142D01*
X61825238Y-91844761D01*
X61729999Y-91892380D01*
X61491904Y-91892380D01*
X61396666Y-91844761D01*
X61349047Y-91797142D01*
X62491904Y-91320952D02*
X62396666Y-91273333D01*
X62349047Y-91225714D01*
X62301428Y-91130476D01*
X62301428Y-91082857D01*
X62349047Y-90987619D01*
X62396666Y-90940000D01*
X62491904Y-90892380D01*
X62682380Y-90892380D01*
X62777619Y-90940000D01*
X62825238Y-90987619D01*
X62872857Y-91082857D01*
X62872857Y-91130476D01*
X62825238Y-91225714D01*
X62777619Y-91273333D01*
X62682380Y-91320952D01*
X62491904Y-91320952D01*
X62396666Y-91368571D01*
X62349047Y-91416190D01*
X62301428Y-91511428D01*
X62301428Y-91701904D01*
X62349047Y-91797142D01*
X62396666Y-91844761D01*
X62491904Y-91892380D01*
X62682380Y-91892380D01*
X62777619Y-91844761D01*
X62825238Y-91797142D01*
X62872857Y-91701904D01*
X62872857Y-91511428D01*
X62825238Y-91416190D01*
X62777619Y-91368571D01*
X62682380Y-91320952D01*
X63253809Y-91606666D02*
X63729999Y-91606666D01*
X63158571Y-91892380D02*
X63491904Y-90892380D01*
X63825238Y-91892380D01*
X64158571Y-91892380D02*
X64158571Y-90892380D01*
X64491904Y-91606666D01*
X64825238Y-90892380D01*
X64825238Y-91892380D01*
X65253809Y-91606666D02*
X65729999Y-91606666D01*
X65158571Y-91892380D02*
X65491904Y-90892380D01*
X65825238Y-91892380D01*
X66158571Y-91511428D02*
X66920476Y-91511428D01*
X67730000Y-91368571D02*
X67872857Y-91416190D01*
X67920476Y-91463809D01*
X67968095Y-91559047D01*
X67968095Y-91701904D01*
X67920476Y-91797142D01*
X67872857Y-91844761D01*
X67777619Y-91892380D01*
X67396666Y-91892380D01*
X67396666Y-90892380D01*
X67730000Y-90892380D01*
X67825238Y-90940000D01*
X67872857Y-90987619D01*
X67920476Y-91082857D01*
X67920476Y-91178095D01*
X67872857Y-91273333D01*
X67825238Y-91320952D01*
X67730000Y-91368571D01*
X67396666Y-91368571D01*
X46268095Y-165612380D02*
X46934761Y-165612380D01*
X46506190Y-166612380D01*
X47744285Y-165945714D02*
X47744285Y-166612380D01*
X47506190Y-165564761D02*
X47268095Y-166279047D01*
X47887142Y-166279047D01*
X48268095Y-166612380D02*
X48268095Y-165612380D01*
X48268095Y-166088571D02*
X48839523Y-166088571D01*
X48839523Y-166612380D02*
X48839523Y-165612380D01*
X49887142Y-166517142D02*
X49839523Y-166564761D01*
X49696666Y-166612380D01*
X49601428Y-166612380D01*
X49458571Y-166564761D01*
X49363333Y-166469523D01*
X49315714Y-166374285D01*
X49268095Y-166183809D01*
X49268095Y-166040952D01*
X49315714Y-165850476D01*
X49363333Y-165755238D01*
X49458571Y-165660000D01*
X49601428Y-165612380D01*
X49696666Y-165612380D01*
X49839523Y-165660000D01*
X49887142Y-165707619D01*
X50791904Y-165612380D02*
X50315714Y-165612380D01*
X50268095Y-166088571D01*
X50315714Y-166040952D01*
X50410952Y-165993333D01*
X50649047Y-165993333D01*
X50744285Y-166040952D01*
X50791904Y-166088571D01*
X50839523Y-166183809D01*
X50839523Y-166421904D01*
X50791904Y-166517142D01*
X50744285Y-166564761D01*
X50649047Y-166612380D01*
X50410952Y-166612380D01*
X50315714Y-166564761D01*
X50268095Y-166517142D01*
X51315714Y-166612380D02*
X51506190Y-166612380D01*
X51601428Y-166564761D01*
X51649047Y-166517142D01*
X51744285Y-166374285D01*
X51791904Y-166183809D01*
X51791904Y-165802857D01*
X51744285Y-165707619D01*
X51696666Y-165660000D01*
X51601428Y-165612380D01*
X51410952Y-165612380D01*
X51315714Y-165660000D01*
X51268095Y-165707619D01*
X51220476Y-165802857D01*
X51220476Y-166040952D01*
X51268095Y-166136190D01*
X51315714Y-166183809D01*
X51410952Y-166231428D01*
X51601428Y-166231428D01*
X51696666Y-166183809D01*
X51744285Y-166136190D01*
X51791904Y-166040952D01*
X52696666Y-165612380D02*
X52220476Y-165612380D01*
X52172857Y-166088571D01*
X52220476Y-166040952D01*
X52315714Y-165993333D01*
X52553809Y-165993333D01*
X52649047Y-166040952D01*
X52696666Y-166088571D01*
X52744285Y-166183809D01*
X52744285Y-166421904D01*
X52696666Y-166517142D01*
X52649047Y-166564761D01*
X52553809Y-166612380D01*
X52315714Y-166612380D01*
X52220476Y-166564761D01*
X52172857Y-166517142D01*
X48768095Y-154392380D02*
X48768095Y-155201904D01*
X48815714Y-155297142D01*
X48863333Y-155344761D01*
X48958571Y-155392380D01*
X49149047Y-155392380D01*
X49244285Y-155344761D01*
X49291904Y-155297142D01*
X49339523Y-155201904D01*
X49339523Y-154392380D01*
X50244285Y-154392380D02*
X50053809Y-154392380D01*
X49958571Y-154440000D01*
X49910952Y-154487619D01*
X49815714Y-154630476D01*
X49768095Y-154820952D01*
X49768095Y-155201904D01*
X49815714Y-155297142D01*
X49863333Y-155344761D01*
X49958571Y-155392380D01*
X50149047Y-155392380D01*
X50244285Y-155344761D01*
X50291904Y-155297142D01*
X50339523Y-155201904D01*
X50339523Y-154963809D01*
X50291904Y-154868571D01*
X50244285Y-154820952D01*
X50149047Y-154773333D01*
X49958571Y-154773333D01*
X49863333Y-154820952D01*
X49815714Y-154868571D01*
X49768095Y-154963809D01*
X145184761Y-212708095D02*
X145232380Y-212565238D01*
X145232380Y-212327142D01*
X145184761Y-212231904D01*
X145137142Y-212184285D01*
X145041904Y-212136666D01*
X144946666Y-212136666D01*
X144851428Y-212184285D01*
X144803809Y-212231904D01*
X144756190Y-212327142D01*
X144708571Y-212517619D01*
X144660952Y-212612857D01*
X144613333Y-212660476D01*
X144518095Y-212708095D01*
X144422857Y-212708095D01*
X144327619Y-212660476D01*
X144280000Y-212612857D01*
X144232380Y-212517619D01*
X144232380Y-212279523D01*
X144280000Y-212136666D01*
X145184761Y-211279523D02*
X145232380Y-211374761D01*
X145232380Y-211565238D01*
X145184761Y-211660476D01*
X145137142Y-211708095D01*
X145041904Y-211755714D01*
X144756190Y-211755714D01*
X144660952Y-211708095D01*
X144613333Y-211660476D01*
X144565714Y-211565238D01*
X144565714Y-211374761D01*
X144613333Y-211279523D01*
X145232380Y-210850952D02*
X144565714Y-210850952D01*
X144756190Y-210850952D02*
X144660952Y-210803333D01*
X144613333Y-210755714D01*
X144565714Y-210660476D01*
X144565714Y-210565238D01*
X145184761Y-209850952D02*
X145232380Y-209946190D01*
X145232380Y-210136666D01*
X145184761Y-210231904D01*
X145089523Y-210279523D01*
X144708571Y-210279523D01*
X144613333Y-210231904D01*
X144565714Y-210136666D01*
X144565714Y-209946190D01*
X144613333Y-209850952D01*
X144708571Y-209803333D01*
X144803809Y-209803333D01*
X144899047Y-210279523D01*
X144565714Y-209470000D02*
X145232380Y-209279523D01*
X144756190Y-209089047D01*
X145232380Y-208898571D01*
X144565714Y-208708095D01*
X145327619Y-208565238D02*
X145327619Y-207803333D01*
X144232380Y-207708095D02*
X144232380Y-207136666D01*
X145232380Y-207422380D02*
X144232380Y-207422380D01*
X145184761Y-206422380D02*
X145232380Y-206517619D01*
X145232380Y-206708095D01*
X145184761Y-206803333D01*
X145089523Y-206850952D01*
X144708571Y-206850952D01*
X144613333Y-206803333D01*
X144565714Y-206708095D01*
X144565714Y-206517619D01*
X144613333Y-206422380D01*
X144708571Y-206374761D01*
X144803809Y-206374761D01*
X144899047Y-206850952D01*
X145232380Y-205946190D02*
X144565714Y-205946190D01*
X144756190Y-205946190D02*
X144660952Y-205898571D01*
X144613333Y-205850952D01*
X144565714Y-205755714D01*
X144565714Y-205660476D01*
X145232380Y-205327142D02*
X144565714Y-205327142D01*
X144660952Y-205327142D02*
X144613333Y-205279523D01*
X144565714Y-205184285D01*
X144565714Y-205041428D01*
X144613333Y-204946190D01*
X144708571Y-204898571D01*
X145232380Y-204898571D01*
X144708571Y-204898571D02*
X144613333Y-204850952D01*
X144565714Y-204755714D01*
X144565714Y-204612857D01*
X144613333Y-204517619D01*
X144708571Y-204470000D01*
X145232380Y-204470000D01*
X145232380Y-203993809D02*
X144565714Y-203993809D01*
X144232380Y-203993809D02*
X144280000Y-204041428D01*
X144327619Y-203993809D01*
X144280000Y-203946190D01*
X144232380Y-203993809D01*
X144327619Y-203993809D01*
X144565714Y-203517619D02*
X145232380Y-203517619D01*
X144660952Y-203517619D02*
X144613333Y-203470000D01*
X144565714Y-203374761D01*
X144565714Y-203231904D01*
X144613333Y-203136666D01*
X144708571Y-203089047D01*
X145232380Y-203089047D01*
X145232380Y-202184285D02*
X144708571Y-202184285D01*
X144613333Y-202231904D01*
X144565714Y-202327142D01*
X144565714Y-202517619D01*
X144613333Y-202612857D01*
X145184761Y-202184285D02*
X145232380Y-202279523D01*
X145232380Y-202517619D01*
X145184761Y-202612857D01*
X145089523Y-202660476D01*
X144994285Y-202660476D01*
X144899047Y-202612857D01*
X144851428Y-202517619D01*
X144851428Y-202279523D01*
X144803809Y-202184285D01*
X145232380Y-201565238D02*
X145184761Y-201660476D01*
X145089523Y-201708095D01*
X144232380Y-201708095D01*
X145327619Y-201422380D02*
X145327619Y-200660476D01*
X144232380Y-200231904D02*
X144232380Y-200136666D01*
X144280000Y-200041428D01*
X144327619Y-199993809D01*
X144422857Y-199946190D01*
X144613333Y-199898571D01*
X144851428Y-199898571D01*
X145041904Y-199946190D01*
X145137142Y-199993809D01*
X145184761Y-200041428D01*
X145232380Y-200136666D01*
X145232380Y-200231904D01*
X145184761Y-200327142D01*
X145137142Y-200374761D01*
X145041904Y-200422380D01*
X144851428Y-200470000D01*
X144613333Y-200470000D01*
X144422857Y-200422380D01*
X144327619Y-200374761D01*
X144280000Y-200327142D01*
X144232380Y-200231904D01*
X145232380Y-198946190D02*
X145232380Y-199517619D01*
X145232380Y-199231904D02*
X144232380Y-199231904D01*
X144375238Y-199327142D01*
X144470476Y-199422380D01*
X144518095Y-199517619D01*
X145232380Y-198612857D02*
X144565714Y-198089047D01*
X144565714Y-198612857D02*
X145232380Y-198089047D01*
X144232380Y-197517619D02*
X144232380Y-197422380D01*
X144280000Y-197327142D01*
X144327619Y-197279523D01*
X144422857Y-197231904D01*
X144613333Y-197184285D01*
X144851428Y-197184285D01*
X145041904Y-197231904D01*
X145137142Y-197279523D01*
X145184761Y-197327142D01*
X145232380Y-197422380D01*
X145232380Y-197517619D01*
X145184761Y-197612857D01*
X145137142Y-197660476D01*
X145041904Y-197708095D01*
X144851428Y-197755714D01*
X144613333Y-197755714D01*
X144422857Y-197708095D01*
X144327619Y-197660476D01*
X144280000Y-197612857D01*
X144232380Y-197517619D01*
X144327619Y-196803333D02*
X144280000Y-196755714D01*
X144232380Y-196660476D01*
X144232380Y-196422380D01*
X144280000Y-196327142D01*
X144327619Y-196279523D01*
X144422857Y-196231904D01*
X144518095Y-196231904D01*
X144660952Y-196279523D01*
X145232380Y-196850952D01*
X145232380Y-196231904D01*
X139152380Y-204803333D02*
X139866666Y-204803333D01*
X140009523Y-204850952D01*
X140104761Y-204946190D01*
X140152380Y-205089047D01*
X140152380Y-205184285D01*
X140152380Y-203803333D02*
X140152380Y-204374761D01*
X140152380Y-204089047D02*
X139152380Y-204089047D01*
X139295238Y-204184285D01*
X139390476Y-204279523D01*
X139438095Y-204374761D01*
X122119047Y-203692380D02*
X121642857Y-203692380D01*
X121642857Y-202692380D01*
X122452380Y-203692380D02*
X122452380Y-202692380D01*
X122785714Y-203406666D01*
X123119047Y-202692380D01*
X123119047Y-203692380D01*
X123500000Y-202692380D02*
X124166666Y-202692380D01*
X123738095Y-203692380D01*
X124690476Y-203120952D02*
X124595238Y-203073333D01*
X124547619Y-203025714D01*
X124500000Y-202930476D01*
X124500000Y-202882857D01*
X124547619Y-202787619D01*
X124595238Y-202740000D01*
X124690476Y-202692380D01*
X124880952Y-202692380D01*
X124976190Y-202740000D01*
X125023809Y-202787619D01*
X125071428Y-202882857D01*
X125071428Y-202930476D01*
X125023809Y-203025714D01*
X124976190Y-203073333D01*
X124880952Y-203120952D01*
X124690476Y-203120952D01*
X124595238Y-203168571D01*
X124547619Y-203216190D01*
X124500000Y-203311428D01*
X124500000Y-203501904D01*
X124547619Y-203597142D01*
X124595238Y-203644761D01*
X124690476Y-203692380D01*
X124880952Y-203692380D01*
X124976190Y-203644761D01*
X125023809Y-203597142D01*
X125071428Y-203501904D01*
X125071428Y-203311428D01*
X125023809Y-203216190D01*
X124976190Y-203168571D01*
X124880952Y-203120952D01*
X125690476Y-202692380D02*
X125785714Y-202692380D01*
X125880952Y-202740000D01*
X125928571Y-202787619D01*
X125976190Y-202882857D01*
X126023809Y-203073333D01*
X126023809Y-203311428D01*
X125976190Y-203501904D01*
X125928571Y-203597142D01*
X125880952Y-203644761D01*
X125785714Y-203692380D01*
X125690476Y-203692380D01*
X125595238Y-203644761D01*
X125547619Y-203597142D01*
X125500000Y-203501904D01*
X125452380Y-203311428D01*
X125452380Y-203073333D01*
X125500000Y-202882857D01*
X125547619Y-202787619D01*
X125595238Y-202740000D01*
X125690476Y-202692380D01*
X126928571Y-202692380D02*
X126452380Y-202692380D01*
X126404761Y-203168571D01*
X126452380Y-203120952D01*
X126547619Y-203073333D01*
X126785714Y-203073333D01*
X126880952Y-203120952D01*
X126928571Y-203168571D01*
X126976190Y-203263809D01*
X126976190Y-203501904D01*
X126928571Y-203597142D01*
X126880952Y-203644761D01*
X126785714Y-203692380D01*
X126547619Y-203692380D01*
X126452380Y-203644761D01*
X126404761Y-203597142D01*
X127166666Y-203787619D02*
X127928571Y-203787619D01*
X128023809Y-202692380D02*
X128595238Y-202692380D01*
X128309523Y-203692380D02*
X128309523Y-202692380D01*
X129119047Y-202692380D02*
X129309523Y-202692380D01*
X129404761Y-202740000D01*
X129500000Y-202835238D01*
X129547619Y-203025714D01*
X129547619Y-203359047D01*
X129500000Y-203549523D01*
X129404761Y-203644761D01*
X129309523Y-203692380D01*
X129119047Y-203692380D01*
X129023809Y-203644761D01*
X128928571Y-203549523D01*
X128880952Y-203359047D01*
X128880952Y-203025714D01*
X128928571Y-202835238D01*
X129023809Y-202740000D01*
X129119047Y-202692380D01*
X129928571Y-202787619D02*
X129976190Y-202740000D01*
X130071428Y-202692380D01*
X130309523Y-202692380D01*
X130404761Y-202740000D01*
X130452380Y-202787619D01*
X130500000Y-202882857D01*
X130500000Y-202978095D01*
X130452380Y-203120952D01*
X129880952Y-203692380D01*
X130500000Y-203692380D01*
X130880952Y-202787619D02*
X130928571Y-202740000D01*
X131023809Y-202692380D01*
X131261904Y-202692380D01*
X131357142Y-202740000D01*
X131404761Y-202787619D01*
X131452380Y-202882857D01*
X131452380Y-202978095D01*
X131404761Y-203120952D01*
X130833333Y-203692380D01*
X131452380Y-203692380D01*
X132071428Y-202692380D02*
X132166666Y-202692380D01*
X132261904Y-202740000D01*
X132309523Y-202787619D01*
X132357142Y-202882857D01*
X132404761Y-203073333D01*
X132404761Y-203311428D01*
X132357142Y-203501904D01*
X132309523Y-203597142D01*
X132261904Y-203644761D01*
X132166666Y-203692380D01*
X132071428Y-203692380D01*
X131976190Y-203644761D01*
X131928571Y-203597142D01*
X131880952Y-203501904D01*
X131833333Y-203311428D01*
X131833333Y-203073333D01*
X131880952Y-202882857D01*
X131928571Y-202787619D01*
X131976190Y-202740000D01*
X132071428Y-202692380D01*
X126238095Y-209462380D02*
X126238095Y-210271904D01*
X126285714Y-210367142D01*
X126333333Y-210414761D01*
X126428571Y-210462380D01*
X126619047Y-210462380D01*
X126714285Y-210414761D01*
X126761904Y-210367142D01*
X126809523Y-210271904D01*
X126809523Y-209462380D01*
X127190476Y-209462380D02*
X127857142Y-209462380D01*
X127428571Y-210462380D01*
X135037142Y-217340476D02*
X135084761Y-217388095D01*
X135132380Y-217530952D01*
X135132380Y-217626190D01*
X135084761Y-217769047D01*
X134989523Y-217864285D01*
X134894285Y-217911904D01*
X134703809Y-217959523D01*
X134560952Y-217959523D01*
X134370476Y-217911904D01*
X134275238Y-217864285D01*
X134180000Y-217769047D01*
X134132380Y-217626190D01*
X134132380Y-217530952D01*
X134180000Y-217388095D01*
X134227619Y-217340476D01*
X135132380Y-216911904D02*
X134132380Y-216911904D01*
X134132380Y-216530952D01*
X134180000Y-216435714D01*
X134227619Y-216388095D01*
X134322857Y-216340476D01*
X134465714Y-216340476D01*
X134560952Y-216388095D01*
X134608571Y-216435714D01*
X134656190Y-216530952D01*
X134656190Y-216911904D01*
X138787142Y-217316666D02*
X138834761Y-217364285D01*
X138882380Y-217507142D01*
X138882380Y-217602380D01*
X138834761Y-217745238D01*
X138739523Y-217840476D01*
X138644285Y-217888095D01*
X138453809Y-217935714D01*
X138310952Y-217935714D01*
X138120476Y-217888095D01*
X138025238Y-217840476D01*
X137930000Y-217745238D01*
X137882380Y-217602380D01*
X137882380Y-217507142D01*
X137930000Y-217364285D01*
X137977619Y-217316666D01*
X137977619Y-216935714D02*
X137930000Y-216888095D01*
X137882380Y-216792857D01*
X137882380Y-216554761D01*
X137930000Y-216459523D01*
X137977619Y-216411904D01*
X138072857Y-216364285D01*
X138168095Y-216364285D01*
X138310952Y-216411904D01*
X138882380Y-216983333D01*
X138882380Y-216364285D01*
X127417142Y-217340476D02*
X127464761Y-217388095D01*
X127512380Y-217530952D01*
X127512380Y-217626190D01*
X127464761Y-217769047D01*
X127369523Y-217864285D01*
X127274285Y-217911904D01*
X127083809Y-217959523D01*
X126940952Y-217959523D01*
X126750476Y-217911904D01*
X126655238Y-217864285D01*
X126560000Y-217769047D01*
X126512380Y-217626190D01*
X126512380Y-217530952D01*
X126560000Y-217388095D01*
X126607619Y-217340476D01*
X127512380Y-216911904D02*
X126512380Y-216911904D01*
X126512380Y-216530952D01*
X126560000Y-216435714D01*
X126607619Y-216388095D01*
X126702857Y-216340476D01*
X126845714Y-216340476D01*
X126940952Y-216388095D01*
X126988571Y-216435714D01*
X127036190Y-216530952D01*
X127036190Y-216911904D01*
X131167142Y-217316666D02*
X131214761Y-217364285D01*
X131262380Y-217507142D01*
X131262380Y-217602380D01*
X131214761Y-217745238D01*
X131119523Y-217840476D01*
X131024285Y-217888095D01*
X130833809Y-217935714D01*
X130690952Y-217935714D01*
X130500476Y-217888095D01*
X130405238Y-217840476D01*
X130310000Y-217745238D01*
X130262380Y-217602380D01*
X130262380Y-217507142D01*
X130310000Y-217364285D01*
X130357619Y-217316666D01*
X131262380Y-216364285D02*
X131262380Y-216935714D01*
X131262380Y-216650000D02*
X130262380Y-216650000D01*
X130405238Y-216745238D01*
X130500476Y-216840476D01*
X130548095Y-216935714D01*
X95952380Y-229354761D02*
X96095238Y-229402380D01*
X96333333Y-229402380D01*
X96428571Y-229354761D01*
X96476190Y-229307142D01*
X96523809Y-229211904D01*
X96523809Y-229116666D01*
X96476190Y-229021428D01*
X96428571Y-228973809D01*
X96333333Y-228926190D01*
X96142857Y-228878571D01*
X96047619Y-228830952D01*
X96000000Y-228783333D01*
X95952380Y-228688095D01*
X95952380Y-228592857D01*
X96000000Y-228497619D01*
X96047619Y-228450000D01*
X96142857Y-228402380D01*
X96380952Y-228402380D01*
X96523809Y-228450000D01*
X96857142Y-228402380D02*
X97095238Y-229402380D01*
X97285714Y-228688095D01*
X97476190Y-229402380D01*
X97714285Y-228402380D01*
X97857142Y-229497619D02*
X98619047Y-229497619D01*
X98857142Y-229402380D02*
X98857142Y-228402380D01*
X99238095Y-228402380D01*
X99333333Y-228450000D01*
X99380952Y-228497619D01*
X99428571Y-228592857D01*
X99428571Y-228735714D01*
X99380952Y-228830952D01*
X99333333Y-228878571D01*
X99238095Y-228926190D01*
X98857142Y-228926190D01*
X100285714Y-228735714D02*
X100285714Y-229402380D01*
X99857142Y-228735714D02*
X99857142Y-229259523D01*
X99904761Y-229354761D01*
X100000000Y-229402380D01*
X100142857Y-229402380D01*
X100238095Y-229354761D01*
X100285714Y-229307142D01*
X100714285Y-229354761D02*
X100809523Y-229402380D01*
X101000000Y-229402380D01*
X101095238Y-229354761D01*
X101142857Y-229259523D01*
X101142857Y-229211904D01*
X101095238Y-229116666D01*
X101000000Y-229069047D01*
X100857142Y-229069047D01*
X100761904Y-229021428D01*
X100714285Y-228926190D01*
X100714285Y-228878571D01*
X100761904Y-228783333D01*
X100857142Y-228735714D01*
X101000000Y-228735714D01*
X101095238Y-228783333D01*
X101571428Y-229402380D02*
X101571428Y-228402380D01*
X102000000Y-229402380D02*
X102000000Y-228878571D01*
X101952380Y-228783333D01*
X101857142Y-228735714D01*
X101714285Y-228735714D01*
X101619047Y-228783333D01*
X101571428Y-228830952D01*
X97166666Y-224904761D02*
X97309523Y-224952380D01*
X97547619Y-224952380D01*
X97642857Y-224904761D01*
X97690476Y-224857142D01*
X97738095Y-224761904D01*
X97738095Y-224666666D01*
X97690476Y-224571428D01*
X97642857Y-224523809D01*
X97547619Y-224476190D01*
X97357142Y-224428571D01*
X97261904Y-224380952D01*
X97214285Y-224333333D01*
X97166666Y-224238095D01*
X97166666Y-224142857D01*
X97214285Y-224047619D01*
X97261904Y-224000000D01*
X97357142Y-223952380D01*
X97595238Y-223952380D01*
X97738095Y-224000000D01*
X98071428Y-223952380D02*
X98309523Y-224952380D01*
X98500000Y-224238095D01*
X98690476Y-224952380D01*
X98928571Y-223952380D01*
X99261904Y-224047619D02*
X99309523Y-224000000D01*
X99404761Y-223952380D01*
X99642857Y-223952380D01*
X99738095Y-224000000D01*
X99785714Y-224047619D01*
X99833333Y-224142857D01*
X99833333Y-224238095D01*
X99785714Y-224380952D01*
X99214285Y-224952380D01*
X99833333Y-224952380D01*
X83252380Y-236974761D02*
X83395238Y-237022380D01*
X83633333Y-237022380D01*
X83728571Y-236974761D01*
X83776190Y-236927142D01*
X83823809Y-236831904D01*
X83823809Y-236736666D01*
X83776190Y-236641428D01*
X83728571Y-236593809D01*
X83633333Y-236546190D01*
X83442857Y-236498571D01*
X83347619Y-236450952D01*
X83300000Y-236403333D01*
X83252380Y-236308095D01*
X83252380Y-236212857D01*
X83300000Y-236117619D01*
X83347619Y-236070000D01*
X83442857Y-236022380D01*
X83680952Y-236022380D01*
X83823809Y-236070000D01*
X84157142Y-236022380D02*
X84395238Y-237022380D01*
X84585714Y-236308095D01*
X84776190Y-237022380D01*
X85014285Y-236022380D01*
X85157142Y-237117619D02*
X85919047Y-237117619D01*
X86157142Y-237022380D02*
X86157142Y-236022380D01*
X86538095Y-236022380D01*
X86633333Y-236070000D01*
X86680952Y-236117619D01*
X86728571Y-236212857D01*
X86728571Y-236355714D01*
X86680952Y-236450952D01*
X86633333Y-236498571D01*
X86538095Y-236546190D01*
X86157142Y-236546190D01*
X87585714Y-236355714D02*
X87585714Y-237022380D01*
X87157142Y-236355714D02*
X87157142Y-236879523D01*
X87204761Y-236974761D01*
X87300000Y-237022380D01*
X87442857Y-237022380D01*
X87538095Y-236974761D01*
X87585714Y-236927142D01*
X88014285Y-236974761D02*
X88109523Y-237022380D01*
X88300000Y-237022380D01*
X88395238Y-236974761D01*
X88442857Y-236879523D01*
X88442857Y-236831904D01*
X88395238Y-236736666D01*
X88300000Y-236689047D01*
X88157142Y-236689047D01*
X88061904Y-236641428D01*
X88014285Y-236546190D01*
X88014285Y-236498571D01*
X88061904Y-236403333D01*
X88157142Y-236355714D01*
X88300000Y-236355714D01*
X88395238Y-236403333D01*
X88871428Y-237022380D02*
X88871428Y-236022380D01*
X89300000Y-237022380D02*
X89300000Y-236498571D01*
X89252380Y-236403333D01*
X89157142Y-236355714D01*
X89014285Y-236355714D01*
X88919047Y-236403333D01*
X88871428Y-236450952D01*
X84466666Y-232524761D02*
X84609523Y-232572380D01*
X84847619Y-232572380D01*
X84942857Y-232524761D01*
X84990476Y-232477142D01*
X85038095Y-232381904D01*
X85038095Y-232286666D01*
X84990476Y-232191428D01*
X84942857Y-232143809D01*
X84847619Y-232096190D01*
X84657142Y-232048571D01*
X84561904Y-232000952D01*
X84514285Y-231953333D01*
X84466666Y-231858095D01*
X84466666Y-231762857D01*
X84514285Y-231667619D01*
X84561904Y-231620000D01*
X84657142Y-231572380D01*
X84895238Y-231572380D01*
X85038095Y-231620000D01*
X85371428Y-231572380D02*
X85609523Y-232572380D01*
X85800000Y-231858095D01*
X85990476Y-232572380D01*
X86228571Y-231572380D01*
X86514285Y-231572380D02*
X87133333Y-231572380D01*
X86800000Y-231953333D01*
X86942857Y-231953333D01*
X87038095Y-232000952D01*
X87085714Y-232048571D01*
X87133333Y-232143809D01*
X87133333Y-232381904D01*
X87085714Y-232477142D01*
X87038095Y-232524761D01*
X86942857Y-232572380D01*
X86657142Y-232572380D01*
X86561904Y-232524761D01*
X86514285Y-232477142D01*
X83252380Y-221734761D02*
X83395238Y-221782380D01*
X83633333Y-221782380D01*
X83728571Y-221734761D01*
X83776190Y-221687142D01*
X83823809Y-221591904D01*
X83823809Y-221496666D01*
X83776190Y-221401428D01*
X83728571Y-221353809D01*
X83633333Y-221306190D01*
X83442857Y-221258571D01*
X83347619Y-221210952D01*
X83300000Y-221163333D01*
X83252380Y-221068095D01*
X83252380Y-220972857D01*
X83300000Y-220877619D01*
X83347619Y-220830000D01*
X83442857Y-220782380D01*
X83680952Y-220782380D01*
X83823809Y-220830000D01*
X84157142Y-220782380D02*
X84395238Y-221782380D01*
X84585714Y-221068095D01*
X84776190Y-221782380D01*
X85014285Y-220782380D01*
X85157142Y-221877619D02*
X85919047Y-221877619D01*
X86157142Y-221782380D02*
X86157142Y-220782380D01*
X86538095Y-220782380D01*
X86633333Y-220830000D01*
X86680952Y-220877619D01*
X86728571Y-220972857D01*
X86728571Y-221115714D01*
X86680952Y-221210952D01*
X86633333Y-221258571D01*
X86538095Y-221306190D01*
X86157142Y-221306190D01*
X87585714Y-221115714D02*
X87585714Y-221782380D01*
X87157142Y-221115714D02*
X87157142Y-221639523D01*
X87204761Y-221734761D01*
X87300000Y-221782380D01*
X87442857Y-221782380D01*
X87538095Y-221734761D01*
X87585714Y-221687142D01*
X88014285Y-221734761D02*
X88109523Y-221782380D01*
X88300000Y-221782380D01*
X88395238Y-221734761D01*
X88442857Y-221639523D01*
X88442857Y-221591904D01*
X88395238Y-221496666D01*
X88300000Y-221449047D01*
X88157142Y-221449047D01*
X88061904Y-221401428D01*
X88014285Y-221306190D01*
X88014285Y-221258571D01*
X88061904Y-221163333D01*
X88157142Y-221115714D01*
X88300000Y-221115714D01*
X88395238Y-221163333D01*
X88871428Y-221782380D02*
X88871428Y-220782380D01*
X89300000Y-221782380D02*
X89300000Y-221258571D01*
X89252380Y-221163333D01*
X89157142Y-221115714D01*
X89014285Y-221115714D01*
X88919047Y-221163333D01*
X88871428Y-221210952D01*
X84466666Y-217284761D02*
X84609523Y-217332380D01*
X84847619Y-217332380D01*
X84942857Y-217284761D01*
X84990476Y-217237142D01*
X85038095Y-217141904D01*
X85038095Y-217046666D01*
X84990476Y-216951428D01*
X84942857Y-216903809D01*
X84847619Y-216856190D01*
X84657142Y-216808571D01*
X84561904Y-216760952D01*
X84514285Y-216713333D01*
X84466666Y-216618095D01*
X84466666Y-216522857D01*
X84514285Y-216427619D01*
X84561904Y-216380000D01*
X84657142Y-216332380D01*
X84895238Y-216332380D01*
X85038095Y-216380000D01*
X85371428Y-216332380D02*
X85609523Y-217332380D01*
X85800000Y-216618095D01*
X85990476Y-217332380D01*
X86228571Y-216332380D01*
X87133333Y-217332380D02*
X86561904Y-217332380D01*
X86847619Y-217332380D02*
X86847619Y-216332380D01*
X86752380Y-216475238D01*
X86657142Y-216570476D01*
X86561904Y-216618095D01*
X70552380Y-229354761D02*
X70695238Y-229402380D01*
X70933333Y-229402380D01*
X71028571Y-229354761D01*
X71076190Y-229307142D01*
X71123809Y-229211904D01*
X71123809Y-229116666D01*
X71076190Y-229021428D01*
X71028571Y-228973809D01*
X70933333Y-228926190D01*
X70742857Y-228878571D01*
X70647619Y-228830952D01*
X70600000Y-228783333D01*
X70552380Y-228688095D01*
X70552380Y-228592857D01*
X70600000Y-228497619D01*
X70647619Y-228450000D01*
X70742857Y-228402380D01*
X70980952Y-228402380D01*
X71123809Y-228450000D01*
X71457142Y-228402380D02*
X71695238Y-229402380D01*
X71885714Y-228688095D01*
X72076190Y-229402380D01*
X72314285Y-228402380D01*
X72457142Y-229497619D02*
X73219047Y-229497619D01*
X73457142Y-229402380D02*
X73457142Y-228402380D01*
X73838095Y-228402380D01*
X73933333Y-228450000D01*
X73980952Y-228497619D01*
X74028571Y-228592857D01*
X74028571Y-228735714D01*
X73980952Y-228830952D01*
X73933333Y-228878571D01*
X73838095Y-228926190D01*
X73457142Y-228926190D01*
X74885714Y-228735714D02*
X74885714Y-229402380D01*
X74457142Y-228735714D02*
X74457142Y-229259523D01*
X74504761Y-229354761D01*
X74600000Y-229402380D01*
X74742857Y-229402380D01*
X74838095Y-229354761D01*
X74885714Y-229307142D01*
X75314285Y-229354761D02*
X75409523Y-229402380D01*
X75600000Y-229402380D01*
X75695238Y-229354761D01*
X75742857Y-229259523D01*
X75742857Y-229211904D01*
X75695238Y-229116666D01*
X75600000Y-229069047D01*
X75457142Y-229069047D01*
X75361904Y-229021428D01*
X75314285Y-228926190D01*
X75314285Y-228878571D01*
X75361904Y-228783333D01*
X75457142Y-228735714D01*
X75600000Y-228735714D01*
X75695238Y-228783333D01*
X76171428Y-229402380D02*
X76171428Y-228402380D01*
X76600000Y-229402380D02*
X76600000Y-228878571D01*
X76552380Y-228783333D01*
X76457142Y-228735714D01*
X76314285Y-228735714D01*
X76219047Y-228783333D01*
X76171428Y-228830952D01*
X71766666Y-224904761D02*
X71909523Y-224952380D01*
X72147619Y-224952380D01*
X72242857Y-224904761D01*
X72290476Y-224857142D01*
X72338095Y-224761904D01*
X72338095Y-224666666D01*
X72290476Y-224571428D01*
X72242857Y-224523809D01*
X72147619Y-224476190D01*
X71957142Y-224428571D01*
X71861904Y-224380952D01*
X71814285Y-224333333D01*
X71766666Y-224238095D01*
X71766666Y-224142857D01*
X71814285Y-224047619D01*
X71861904Y-224000000D01*
X71957142Y-223952380D01*
X72195238Y-223952380D01*
X72338095Y-224000000D01*
X72671428Y-223952380D02*
X72909523Y-224952380D01*
X73100000Y-224238095D01*
X73290476Y-224952380D01*
X73528571Y-223952380D01*
X74338095Y-224285714D02*
X74338095Y-224952380D01*
X74100000Y-223904761D02*
X73861904Y-224619047D01*
X74480952Y-224619047D01*
X140802380Y-142906666D02*
X140802380Y-143478095D01*
X140802380Y-143192380D02*
X139802380Y-143192380D01*
X139945238Y-143287619D01*
X140040476Y-143382857D01*
X140088095Y-143478095D01*
X139802380Y-142287619D02*
X139802380Y-142192380D01*
X139850000Y-142097142D01*
X139897619Y-142049523D01*
X139992857Y-142001904D01*
X140183333Y-141954285D01*
X140421428Y-141954285D01*
X140611904Y-142001904D01*
X140707142Y-142049523D01*
X140754761Y-142097142D01*
X140802380Y-142192380D01*
X140802380Y-142287619D01*
X140754761Y-142382857D01*
X140707142Y-142430476D01*
X140611904Y-142478095D01*
X140421428Y-142525714D01*
X140183333Y-142525714D01*
X139992857Y-142478095D01*
X139897619Y-142430476D01*
X139850000Y-142382857D01*
X139802380Y-142287619D01*
X139802380Y-141335238D02*
X139802380Y-141240000D01*
X139850000Y-141144761D01*
X139897619Y-141097142D01*
X139992857Y-141049523D01*
X140183333Y-141001904D01*
X140421428Y-141001904D01*
X140611904Y-141049523D01*
X140707142Y-141097142D01*
X140754761Y-141144761D01*
X140802380Y-141240000D01*
X140802380Y-141335238D01*
X140754761Y-141430476D01*
X140707142Y-141478095D01*
X140611904Y-141525714D01*
X140421428Y-141573333D01*
X140183333Y-141573333D01*
X139992857Y-141525714D01*
X139897619Y-141478095D01*
X139850000Y-141430476D01*
X139802380Y-141335238D01*
D12*
X138755714Y-142702857D02*
X138412857Y-142942857D01*
X138755714Y-143114285D02*
X138035714Y-143114285D01*
X138035714Y-142840000D01*
X138070000Y-142771428D01*
X138104285Y-142737142D01*
X138172857Y-142702857D01*
X138275714Y-142702857D01*
X138344285Y-142737142D01*
X138378571Y-142771428D01*
X138412857Y-142840000D01*
X138412857Y-143114285D01*
X138755714Y-142017142D02*
X138755714Y-142428571D01*
X138755714Y-142222857D02*
X138035714Y-142222857D01*
X138138571Y-142291428D01*
X138207142Y-142360000D01*
X138241428Y-142428571D01*
X138035714Y-141777142D02*
X138035714Y-141297142D01*
X138755714Y-141605714D01*
D11*
X130612380Y-69540476D02*
X130136190Y-69873809D01*
X130612380Y-70111904D02*
X129612380Y-70111904D01*
X129612380Y-69730952D01*
X129660000Y-69635714D01*
X129707619Y-69588095D01*
X129802857Y-69540476D01*
X129945714Y-69540476D01*
X130040952Y-69588095D01*
X130088571Y-69635714D01*
X130136190Y-69730952D01*
X130136190Y-70111904D01*
D12*
X132405714Y-70312857D02*
X132062857Y-70552857D01*
X132405714Y-70724285D02*
X131685714Y-70724285D01*
X131685714Y-70450000D01*
X131720000Y-70381428D01*
X131754285Y-70347142D01*
X131822857Y-70312857D01*
X131925714Y-70312857D01*
X131994285Y-70347142D01*
X132028571Y-70381428D01*
X132062857Y-70450000D01*
X132062857Y-70724285D01*
X132405714Y-69627142D02*
X132405714Y-70038571D01*
X132405714Y-69832857D02*
X131685714Y-69832857D01*
X131788571Y-69901428D01*
X131857142Y-69970000D01*
X131891428Y-70038571D01*
X131685714Y-69010000D02*
X131685714Y-69147142D01*
X131720000Y-69215714D01*
X131754285Y-69250000D01*
X131857142Y-69318571D01*
X131994285Y-69352857D01*
X132268571Y-69352857D01*
X132337142Y-69318571D01*
X132371428Y-69284285D01*
X132405714Y-69215714D01*
X132405714Y-69078571D01*
X132371428Y-69010000D01*
X132337142Y-68975714D01*
X132268571Y-68941428D01*
X132097142Y-68941428D01*
X132028571Y-68975714D01*
X131994285Y-69010000D01*
X131960000Y-69078571D01*
X131960000Y-69215714D01*
X131994285Y-69284285D01*
X132028571Y-69318571D01*
X132097142Y-69352857D01*
D11*
X130612380Y-79573333D02*
X130612380Y-80144761D01*
X130612380Y-79859047D02*
X129612380Y-79859047D01*
X129755238Y-79954285D01*
X129850476Y-80049523D01*
X129898095Y-80144761D01*
X130517142Y-79144761D02*
X130564761Y-79097142D01*
X130612380Y-79144761D01*
X130564761Y-79192380D01*
X130517142Y-79144761D01*
X130612380Y-79144761D01*
X129707619Y-78716190D02*
X129660000Y-78668571D01*
X129612380Y-78573333D01*
X129612380Y-78335238D01*
X129660000Y-78240000D01*
X129707619Y-78192380D01*
X129802857Y-78144761D01*
X129898095Y-78144761D01*
X130040952Y-78192380D01*
X130612380Y-78763809D01*
X130612380Y-78144761D01*
X130612380Y-77716190D02*
X129612380Y-77716190D01*
X130231428Y-77620952D02*
X130612380Y-77335238D01*
X129945714Y-77335238D02*
X130326666Y-77716190D01*
D12*
X132405714Y-79202857D02*
X132062857Y-79442857D01*
X132405714Y-79614285D02*
X131685714Y-79614285D01*
X131685714Y-79340000D01*
X131720000Y-79271428D01*
X131754285Y-79237142D01*
X131822857Y-79202857D01*
X131925714Y-79202857D01*
X131994285Y-79237142D01*
X132028571Y-79271428D01*
X132062857Y-79340000D01*
X132062857Y-79614285D01*
X132405714Y-78517142D02*
X132405714Y-78928571D01*
X132405714Y-78722857D02*
X131685714Y-78722857D01*
X131788571Y-78791428D01*
X131857142Y-78860000D01*
X131891428Y-78928571D01*
X131685714Y-77865714D02*
X131685714Y-78208571D01*
X132028571Y-78242857D01*
X131994285Y-78208571D01*
X131960000Y-78140000D01*
X131960000Y-77968571D01*
X131994285Y-77900000D01*
X132028571Y-77865714D01*
X132097142Y-77831428D01*
X132268571Y-77831428D01*
X132337142Y-77865714D01*
X132371428Y-77900000D01*
X132405714Y-77968571D01*
X132405714Y-78140000D01*
X132371428Y-78208571D01*
X132337142Y-78242857D01*
D11*
X129707619Y-89034761D02*
X129660000Y-88987142D01*
X129612380Y-88891904D01*
X129612380Y-88653809D01*
X129660000Y-88558571D01*
X129707619Y-88510952D01*
X129802857Y-88463333D01*
X129898095Y-88463333D01*
X130040952Y-88510952D01*
X130612380Y-89082380D01*
X130612380Y-88463333D01*
X130517142Y-88034761D02*
X130564761Y-87987142D01*
X130612380Y-88034761D01*
X130564761Y-88082380D01*
X130517142Y-88034761D01*
X130612380Y-88034761D01*
X129707619Y-87606190D02*
X129660000Y-87558571D01*
X129612380Y-87463333D01*
X129612380Y-87225238D01*
X129660000Y-87130000D01*
X129707619Y-87082380D01*
X129802857Y-87034761D01*
X129898095Y-87034761D01*
X130040952Y-87082380D01*
X130612380Y-87653809D01*
X130612380Y-87034761D01*
X130612380Y-86606190D02*
X129612380Y-86606190D01*
X130231428Y-86510952D02*
X130612380Y-86225238D01*
X129945714Y-86225238D02*
X130326666Y-86606190D01*
D12*
X132405714Y-88092857D02*
X132062857Y-88332857D01*
X132405714Y-88504285D02*
X131685714Y-88504285D01*
X131685714Y-88230000D01*
X131720000Y-88161428D01*
X131754285Y-88127142D01*
X131822857Y-88092857D01*
X131925714Y-88092857D01*
X131994285Y-88127142D01*
X132028571Y-88161428D01*
X132062857Y-88230000D01*
X132062857Y-88504285D01*
X132405714Y-87407142D02*
X132405714Y-87818571D01*
X132405714Y-87612857D02*
X131685714Y-87612857D01*
X131788571Y-87681428D01*
X131857142Y-87750000D01*
X131891428Y-87818571D01*
X131925714Y-86790000D02*
X132405714Y-86790000D01*
X131651428Y-86961428D02*
X132165714Y-87132857D01*
X132165714Y-86687142D01*
D11*
X108291428Y-230275714D02*
X108291428Y-230942380D01*
X108053333Y-229894761D02*
X107815238Y-230609047D01*
X108434285Y-230609047D01*
X108815238Y-230847142D02*
X108862857Y-230894761D01*
X108815238Y-230942380D01*
X108767619Y-230894761D01*
X108815238Y-230847142D01*
X108815238Y-230942380D01*
X109196190Y-229942380D02*
X109862857Y-229942380D01*
X109434285Y-230942380D01*
X110243809Y-230942380D02*
X110243809Y-229942380D01*
X110339047Y-230561428D02*
X110624761Y-230942380D01*
X110624761Y-230275714D02*
X110243809Y-230656666D01*
D12*
X108757142Y-232735714D02*
X108517142Y-232392857D01*
X108345714Y-232735714D02*
X108345714Y-232015714D01*
X108620000Y-232015714D01*
X108688571Y-232050000D01*
X108722857Y-232084285D01*
X108757142Y-232152857D01*
X108757142Y-232255714D01*
X108722857Y-232324285D01*
X108688571Y-232358571D01*
X108620000Y-232392857D01*
X108345714Y-232392857D01*
X109442857Y-232735714D02*
X109031428Y-232735714D01*
X109237142Y-232735714D02*
X109237142Y-232015714D01*
X109168571Y-232118571D01*
X109100000Y-232187142D01*
X109031428Y-232221428D01*
X109682857Y-232015714D02*
X110128571Y-232015714D01*
X109888571Y-232290000D01*
X109991428Y-232290000D01*
X110060000Y-232324285D01*
X110094285Y-232358571D01*
X110128571Y-232427142D01*
X110128571Y-232598571D01*
X110094285Y-232667142D01*
X110060000Y-232701428D01*
X109991428Y-232735714D01*
X109785714Y-232735714D01*
X109717142Y-232701428D01*
X109682857Y-232667142D01*
D11*
X58855714Y-226988571D02*
X59522380Y-226988571D01*
X58474761Y-227226666D02*
X59189047Y-227464761D01*
X59189047Y-226845714D01*
X59427142Y-226464761D02*
X59474761Y-226417142D01*
X59522380Y-226464761D01*
X59474761Y-226512380D01*
X59427142Y-226464761D01*
X59522380Y-226464761D01*
X58522380Y-226083809D02*
X58522380Y-225417142D01*
X59522380Y-225845714D01*
X59522380Y-225036190D02*
X58522380Y-225036190D01*
X59141428Y-224940952D02*
X59522380Y-224655238D01*
X58855714Y-224655238D02*
X59236666Y-225036190D01*
D12*
X57475714Y-226522857D02*
X57132857Y-226762857D01*
X57475714Y-226934285D02*
X56755714Y-226934285D01*
X56755714Y-226660000D01*
X56790000Y-226591428D01*
X56824285Y-226557142D01*
X56892857Y-226522857D01*
X56995714Y-226522857D01*
X57064285Y-226557142D01*
X57098571Y-226591428D01*
X57132857Y-226660000D01*
X57132857Y-226934285D01*
X57475714Y-225837142D02*
X57475714Y-226248571D01*
X57475714Y-226042857D02*
X56755714Y-226042857D01*
X56858571Y-226111428D01*
X56927142Y-226180000D01*
X56961428Y-226248571D01*
X56824285Y-225562857D02*
X56790000Y-225528571D01*
X56755714Y-225460000D01*
X56755714Y-225288571D01*
X56790000Y-225220000D01*
X56824285Y-225185714D01*
X56892857Y-225151428D01*
X56961428Y-225151428D01*
X57064285Y-225185714D01*
X57475714Y-225597142D01*
X57475714Y-225151428D01*
D11*
X47395714Y-226988571D02*
X48062380Y-226988571D01*
X47014761Y-227226666D02*
X47729047Y-227464761D01*
X47729047Y-226845714D01*
X47967142Y-226464761D02*
X48014761Y-226417142D01*
X48062380Y-226464761D01*
X48014761Y-226512380D01*
X47967142Y-226464761D01*
X48062380Y-226464761D01*
X47062380Y-226083809D02*
X47062380Y-225417142D01*
X48062380Y-225845714D01*
X48062380Y-225036190D02*
X47062380Y-225036190D01*
X47681428Y-224940952D02*
X48062380Y-224655238D01*
X47395714Y-224655238D02*
X47776666Y-225036190D01*
D12*
X49855714Y-226522857D02*
X49512857Y-226762857D01*
X49855714Y-226934285D02*
X49135714Y-226934285D01*
X49135714Y-226660000D01*
X49170000Y-226591428D01*
X49204285Y-226557142D01*
X49272857Y-226522857D01*
X49375714Y-226522857D01*
X49444285Y-226557142D01*
X49478571Y-226591428D01*
X49512857Y-226660000D01*
X49512857Y-226934285D01*
X49855714Y-225837142D02*
X49855714Y-226248571D01*
X49855714Y-226042857D02*
X49135714Y-226042857D01*
X49238571Y-226111428D01*
X49307142Y-226180000D01*
X49341428Y-226248571D01*
X49855714Y-225151428D02*
X49855714Y-225562857D01*
X49855714Y-225357142D02*
X49135714Y-225357142D01*
X49238571Y-225425714D01*
X49307142Y-225494285D01*
X49341428Y-225562857D01*
D11*
X47395714Y-216828571D02*
X48062380Y-216828571D01*
X47014761Y-217066666D02*
X47729047Y-217304761D01*
X47729047Y-216685714D01*
X47967142Y-216304761D02*
X48014761Y-216257142D01*
X48062380Y-216304761D01*
X48014761Y-216352380D01*
X47967142Y-216304761D01*
X48062380Y-216304761D01*
X47062380Y-215923809D02*
X47062380Y-215257142D01*
X48062380Y-215685714D01*
X48062380Y-214876190D02*
X47062380Y-214876190D01*
X47681428Y-214780952D02*
X48062380Y-214495238D01*
X47395714Y-214495238D02*
X47776666Y-214876190D01*
D12*
X49855714Y-216362857D02*
X49512857Y-216602857D01*
X49855714Y-216774285D02*
X49135714Y-216774285D01*
X49135714Y-216500000D01*
X49170000Y-216431428D01*
X49204285Y-216397142D01*
X49272857Y-216362857D01*
X49375714Y-216362857D01*
X49444285Y-216397142D01*
X49478571Y-216431428D01*
X49512857Y-216500000D01*
X49512857Y-216774285D01*
X49855714Y-215677142D02*
X49855714Y-216088571D01*
X49855714Y-215882857D02*
X49135714Y-215882857D01*
X49238571Y-215951428D01*
X49307142Y-216020000D01*
X49341428Y-216088571D01*
X49135714Y-215231428D02*
X49135714Y-215162857D01*
X49170000Y-215094285D01*
X49204285Y-215060000D01*
X49272857Y-215025714D01*
X49410000Y-214991428D01*
X49581428Y-214991428D01*
X49718571Y-215025714D01*
X49787142Y-215060000D01*
X49821428Y-215094285D01*
X49855714Y-215162857D01*
X49855714Y-215231428D01*
X49821428Y-215300000D01*
X49787142Y-215334285D01*
X49718571Y-215368571D01*
X49581428Y-215402857D01*
X49410000Y-215402857D01*
X49272857Y-215368571D01*
X49204285Y-215334285D01*
X49170000Y-215300000D01*
X49135714Y-215231428D01*
D11*
X47395714Y-206668571D02*
X48062380Y-206668571D01*
X47014761Y-206906666D02*
X47729047Y-207144761D01*
X47729047Y-206525714D01*
X47967142Y-206144761D02*
X48014761Y-206097142D01*
X48062380Y-206144761D01*
X48014761Y-206192380D01*
X47967142Y-206144761D01*
X48062380Y-206144761D01*
X47062380Y-205763809D02*
X47062380Y-205097142D01*
X48062380Y-205525714D01*
X48062380Y-204716190D02*
X47062380Y-204716190D01*
X47681428Y-204620952D02*
X48062380Y-204335238D01*
X47395714Y-204335238D02*
X47776666Y-204716190D01*
D12*
X49855714Y-205860000D02*
X49512857Y-206100000D01*
X49855714Y-206271428D02*
X49135714Y-206271428D01*
X49135714Y-205997142D01*
X49170000Y-205928571D01*
X49204285Y-205894285D01*
X49272857Y-205860000D01*
X49375714Y-205860000D01*
X49444285Y-205894285D01*
X49478571Y-205928571D01*
X49512857Y-205997142D01*
X49512857Y-206271428D01*
X49855714Y-205517142D02*
X49855714Y-205380000D01*
X49821428Y-205311428D01*
X49787142Y-205277142D01*
X49684285Y-205208571D01*
X49547142Y-205174285D01*
X49272857Y-205174285D01*
X49204285Y-205208571D01*
X49170000Y-205242857D01*
X49135714Y-205311428D01*
X49135714Y-205448571D01*
X49170000Y-205517142D01*
X49204285Y-205551428D01*
X49272857Y-205585714D01*
X49444285Y-205585714D01*
X49512857Y-205551428D01*
X49547142Y-205517142D01*
X49581428Y-205448571D01*
X49581428Y-205311428D01*
X49547142Y-205242857D01*
X49512857Y-205208571D01*
X49444285Y-205174285D01*
D11*
X132701428Y-167788571D02*
X132844285Y-167836190D01*
X132891904Y-167883809D01*
X132939523Y-167979047D01*
X132939523Y-168121904D01*
X132891904Y-168217142D01*
X132844285Y-168264761D01*
X132749047Y-168312380D01*
X132368095Y-168312380D01*
X132368095Y-167312380D01*
X132701428Y-167312380D01*
X132796666Y-167360000D01*
X132844285Y-167407619D01*
X132891904Y-167502857D01*
X132891904Y-167598095D01*
X132844285Y-167693333D01*
X132796666Y-167740952D01*
X132701428Y-167788571D01*
X132368095Y-167788571D01*
X133796666Y-167645714D02*
X133796666Y-168312380D01*
X133368095Y-167645714D02*
X133368095Y-168169523D01*
X133415714Y-168264761D01*
X133510952Y-168312380D01*
X133653809Y-168312380D01*
X133749047Y-168264761D01*
X133796666Y-168217142D01*
X134177619Y-167645714D02*
X134701428Y-167645714D01*
X134177619Y-168312380D01*
X134701428Y-168312380D01*
X134987142Y-167645714D02*
X135510952Y-167645714D01*
X134987142Y-168312380D01*
X135510952Y-168312380D01*
X136272857Y-168264761D02*
X136177619Y-168312380D01*
X135987142Y-168312380D01*
X135891904Y-168264761D01*
X135844285Y-168169523D01*
X135844285Y-167788571D01*
X135891904Y-167693333D01*
X135987142Y-167645714D01*
X136177619Y-167645714D01*
X136272857Y-167693333D01*
X136320476Y-167788571D01*
X136320476Y-167883809D01*
X135844285Y-167979047D01*
X136749047Y-168312380D02*
X136749047Y-167645714D01*
X136749047Y-167836190D02*
X136796666Y-167740952D01*
X136844285Y-167693333D01*
X136939523Y-167645714D01*
X137034761Y-167645714D01*
X133749047Y-179188571D02*
X133891904Y-179236190D01*
X133939523Y-179283809D01*
X133987142Y-179379047D01*
X133987142Y-179521904D01*
X133939523Y-179617142D01*
X133891904Y-179664761D01*
X133796666Y-179712380D01*
X133415714Y-179712380D01*
X133415714Y-178712380D01*
X133749047Y-178712380D01*
X133844285Y-178760000D01*
X133891904Y-178807619D01*
X133939523Y-178902857D01*
X133939523Y-178998095D01*
X133891904Y-179093333D01*
X133844285Y-179140952D01*
X133749047Y-179188571D01*
X133415714Y-179188571D01*
X134320476Y-178712380D02*
X134987142Y-178712380D01*
X134320476Y-179712380D01*
X134987142Y-179712380D01*
X135891904Y-179712380D02*
X135320476Y-179712380D01*
X135606190Y-179712380D02*
X135606190Y-178712380D01*
X135510952Y-178855238D01*
X135415714Y-178950476D01*
X135320476Y-178998095D01*
X138059047Y-177871428D02*
X138820952Y-177871428D01*
X138440000Y-178252380D02*
X138440000Y-177490476D01*
X48696666Y-142072380D02*
X48125238Y-142072380D01*
X48410952Y-142072380D02*
X48410952Y-141072380D01*
X48315714Y-141215238D01*
X48220476Y-141310476D01*
X48125238Y-141358095D01*
X49125238Y-141977142D02*
X49172857Y-142024761D01*
X49125238Y-142072380D01*
X49077619Y-142024761D01*
X49125238Y-141977142D01*
X49125238Y-142072380D01*
X49553809Y-141167619D02*
X49601428Y-141120000D01*
X49696666Y-141072380D01*
X49934761Y-141072380D01*
X50030000Y-141120000D01*
X50077619Y-141167619D01*
X50125238Y-141262857D01*
X50125238Y-141358095D01*
X50077619Y-141500952D01*
X49506190Y-142072380D01*
X50125238Y-142072380D01*
X50553809Y-142072380D02*
X50553809Y-141072380D01*
X50649047Y-141691428D02*
X50934761Y-142072380D01*
X50934761Y-141405714D02*
X50553809Y-141786666D01*
D12*
X49410000Y-140025714D02*
X49170000Y-139682857D01*
X48998571Y-140025714D02*
X48998571Y-139305714D01*
X49272857Y-139305714D01*
X49341428Y-139340000D01*
X49375714Y-139374285D01*
X49410000Y-139442857D01*
X49410000Y-139545714D01*
X49375714Y-139614285D01*
X49341428Y-139648571D01*
X49272857Y-139682857D01*
X48998571Y-139682857D01*
X49821428Y-139614285D02*
X49752857Y-139580000D01*
X49718571Y-139545714D01*
X49684285Y-139477142D01*
X49684285Y-139442857D01*
X49718571Y-139374285D01*
X49752857Y-139340000D01*
X49821428Y-139305714D01*
X49958571Y-139305714D01*
X50027142Y-139340000D01*
X50061428Y-139374285D01*
X50095714Y-139442857D01*
X50095714Y-139477142D01*
X50061428Y-139545714D01*
X50027142Y-139580000D01*
X49958571Y-139614285D01*
X49821428Y-139614285D01*
X49752857Y-139648571D01*
X49718571Y-139682857D01*
X49684285Y-139751428D01*
X49684285Y-139888571D01*
X49718571Y-139957142D01*
X49752857Y-139991428D01*
X49821428Y-140025714D01*
X49958571Y-140025714D01*
X50027142Y-139991428D01*
X50061428Y-139957142D01*
X50095714Y-139888571D01*
X50095714Y-139751428D01*
X50061428Y-139682857D01*
X50027142Y-139648571D01*
X49958571Y-139614285D01*
D11*
X48696666Y-136992380D02*
X48125238Y-136992380D01*
X48410952Y-136992380D02*
X48410952Y-135992380D01*
X48315714Y-136135238D01*
X48220476Y-136230476D01*
X48125238Y-136278095D01*
X49125238Y-136897142D02*
X49172857Y-136944761D01*
X49125238Y-136992380D01*
X49077619Y-136944761D01*
X49125238Y-136897142D01*
X49125238Y-136992380D01*
X49553809Y-136087619D02*
X49601428Y-136040000D01*
X49696666Y-135992380D01*
X49934761Y-135992380D01*
X50030000Y-136040000D01*
X50077619Y-136087619D01*
X50125238Y-136182857D01*
X50125238Y-136278095D01*
X50077619Y-136420952D01*
X49506190Y-136992380D01*
X50125238Y-136992380D01*
X50553809Y-136992380D02*
X50553809Y-135992380D01*
X50649047Y-136611428D02*
X50934761Y-136992380D01*
X50934761Y-136325714D02*
X50553809Y-136706666D01*
D12*
X49410000Y-134945714D02*
X49170000Y-134602857D01*
X48998571Y-134945714D02*
X48998571Y-134225714D01*
X49272857Y-134225714D01*
X49341428Y-134260000D01*
X49375714Y-134294285D01*
X49410000Y-134362857D01*
X49410000Y-134465714D01*
X49375714Y-134534285D01*
X49341428Y-134568571D01*
X49272857Y-134602857D01*
X48998571Y-134602857D01*
X49650000Y-134225714D02*
X50130000Y-134225714D01*
X49821428Y-134945714D01*
D11*
X48696666Y-131912380D02*
X48125238Y-131912380D01*
X48410952Y-131912380D02*
X48410952Y-130912380D01*
X48315714Y-131055238D01*
X48220476Y-131150476D01*
X48125238Y-131198095D01*
X49125238Y-131817142D02*
X49172857Y-131864761D01*
X49125238Y-131912380D01*
X49077619Y-131864761D01*
X49125238Y-131817142D01*
X49125238Y-131912380D01*
X49553809Y-131007619D02*
X49601428Y-130960000D01*
X49696666Y-130912380D01*
X49934761Y-130912380D01*
X50030000Y-130960000D01*
X50077619Y-131007619D01*
X50125238Y-131102857D01*
X50125238Y-131198095D01*
X50077619Y-131340952D01*
X49506190Y-131912380D01*
X50125238Y-131912380D01*
X50553809Y-131912380D02*
X50553809Y-130912380D01*
X50649047Y-131531428D02*
X50934761Y-131912380D01*
X50934761Y-131245714D02*
X50553809Y-131626666D01*
D12*
X49410000Y-129865714D02*
X49170000Y-129522857D01*
X48998571Y-129865714D02*
X48998571Y-129145714D01*
X49272857Y-129145714D01*
X49341428Y-129180000D01*
X49375714Y-129214285D01*
X49410000Y-129282857D01*
X49410000Y-129385714D01*
X49375714Y-129454285D01*
X49341428Y-129488571D01*
X49272857Y-129522857D01*
X48998571Y-129522857D01*
X50027142Y-129145714D02*
X49890000Y-129145714D01*
X49821428Y-129180000D01*
X49787142Y-129214285D01*
X49718571Y-129317142D01*
X49684285Y-129454285D01*
X49684285Y-129728571D01*
X49718571Y-129797142D01*
X49752857Y-129831428D01*
X49821428Y-129865714D01*
X49958571Y-129865714D01*
X50027142Y-129831428D01*
X50061428Y-129797142D01*
X50095714Y-129728571D01*
X50095714Y-129557142D01*
X50061428Y-129488571D01*
X50027142Y-129454285D01*
X49958571Y-129420000D01*
X49821428Y-129420000D01*
X49752857Y-129454285D01*
X49718571Y-129488571D01*
X49684285Y-129557142D01*
D11*
X48696666Y-126832380D02*
X48125238Y-126832380D01*
X48410952Y-126832380D02*
X48410952Y-125832380D01*
X48315714Y-125975238D01*
X48220476Y-126070476D01*
X48125238Y-126118095D01*
X49125238Y-126737142D02*
X49172857Y-126784761D01*
X49125238Y-126832380D01*
X49077619Y-126784761D01*
X49125238Y-126737142D01*
X49125238Y-126832380D01*
X49553809Y-125927619D02*
X49601428Y-125880000D01*
X49696666Y-125832380D01*
X49934761Y-125832380D01*
X50030000Y-125880000D01*
X50077619Y-125927619D01*
X50125238Y-126022857D01*
X50125238Y-126118095D01*
X50077619Y-126260952D01*
X49506190Y-126832380D01*
X50125238Y-126832380D01*
X50553809Y-126832380D02*
X50553809Y-125832380D01*
X50649047Y-126451428D02*
X50934761Y-126832380D01*
X50934761Y-126165714D02*
X50553809Y-126546666D01*
D12*
X49410000Y-124785714D02*
X49170000Y-124442857D01*
X48998571Y-124785714D02*
X48998571Y-124065714D01*
X49272857Y-124065714D01*
X49341428Y-124100000D01*
X49375714Y-124134285D01*
X49410000Y-124202857D01*
X49410000Y-124305714D01*
X49375714Y-124374285D01*
X49341428Y-124408571D01*
X49272857Y-124442857D01*
X48998571Y-124442857D01*
X50061428Y-124065714D02*
X49718571Y-124065714D01*
X49684285Y-124408571D01*
X49718571Y-124374285D01*
X49787142Y-124340000D01*
X49958571Y-124340000D01*
X50027142Y-124374285D01*
X50061428Y-124408571D01*
X50095714Y-124477142D01*
X50095714Y-124648571D01*
X50061428Y-124717142D01*
X50027142Y-124751428D01*
X49958571Y-124785714D01*
X49787142Y-124785714D01*
X49718571Y-124751428D01*
X49684285Y-124717142D01*
D11*
X48062380Y-172410476D02*
X47586190Y-172743809D01*
X48062380Y-172981904D02*
X47062380Y-172981904D01*
X47062380Y-172600952D01*
X47110000Y-172505714D01*
X47157619Y-172458095D01*
X47252857Y-172410476D01*
X47395714Y-172410476D01*
X47490952Y-172458095D01*
X47538571Y-172505714D01*
X47586190Y-172600952D01*
X47586190Y-172981904D01*
D12*
X49855714Y-172840000D02*
X49512857Y-173080000D01*
X49855714Y-173251428D02*
X49135714Y-173251428D01*
X49135714Y-172977142D01*
X49170000Y-172908571D01*
X49204285Y-172874285D01*
X49272857Y-172840000D01*
X49375714Y-172840000D01*
X49444285Y-172874285D01*
X49478571Y-172908571D01*
X49512857Y-172977142D01*
X49512857Y-173251428D01*
X49375714Y-172222857D02*
X49855714Y-172222857D01*
X49101428Y-172394285D02*
X49615714Y-172565714D01*
X49615714Y-172120000D01*
D11*
X122992380Y-171140476D02*
X122516190Y-171473809D01*
X122992380Y-171711904D02*
X121992380Y-171711904D01*
X121992380Y-171330952D01*
X122040000Y-171235714D01*
X122087619Y-171188095D01*
X122182857Y-171140476D01*
X122325714Y-171140476D01*
X122420952Y-171188095D01*
X122468571Y-171235714D01*
X122516190Y-171330952D01*
X122516190Y-171711904D01*
D12*
X124785714Y-171570000D02*
X124442857Y-171810000D01*
X124785714Y-171981428D02*
X124065714Y-171981428D01*
X124065714Y-171707142D01*
X124100000Y-171638571D01*
X124134285Y-171604285D01*
X124202857Y-171570000D01*
X124305714Y-171570000D01*
X124374285Y-171604285D01*
X124408571Y-171638571D01*
X124442857Y-171707142D01*
X124442857Y-171981428D01*
X124065714Y-171330000D02*
X124065714Y-170884285D01*
X124340000Y-171124285D01*
X124340000Y-171021428D01*
X124374285Y-170952857D01*
X124408571Y-170918571D01*
X124477142Y-170884285D01*
X124648571Y-170884285D01*
X124717142Y-170918571D01*
X124751428Y-170952857D01*
X124785714Y-171021428D01*
X124785714Y-171227142D01*
X124751428Y-171295714D01*
X124717142Y-171330000D01*
D11*
X48062380Y-192730476D02*
X47586190Y-193063809D01*
X48062380Y-193301904D02*
X47062380Y-193301904D01*
X47062380Y-192920952D01*
X47110000Y-192825714D01*
X47157619Y-192778095D01*
X47252857Y-192730476D01*
X47395714Y-192730476D01*
X47490952Y-192778095D01*
X47538571Y-192825714D01*
X47586190Y-192920952D01*
X47586190Y-193301904D01*
D12*
X49855714Y-193160000D02*
X49512857Y-193400000D01*
X49855714Y-193571428D02*
X49135714Y-193571428D01*
X49135714Y-193297142D01*
X49170000Y-193228571D01*
X49204285Y-193194285D01*
X49272857Y-193160000D01*
X49375714Y-193160000D01*
X49444285Y-193194285D01*
X49478571Y-193228571D01*
X49512857Y-193297142D01*
X49512857Y-193571428D01*
X49204285Y-192885714D02*
X49170000Y-192851428D01*
X49135714Y-192782857D01*
X49135714Y-192611428D01*
X49170000Y-192542857D01*
X49204285Y-192508571D01*
X49272857Y-192474285D01*
X49341428Y-192474285D01*
X49444285Y-192508571D01*
X49855714Y-192920000D01*
X49855714Y-192474285D01*
D11*
X48062380Y-182570476D02*
X47586190Y-182903809D01*
X48062380Y-183141904D02*
X47062380Y-183141904D01*
X47062380Y-182760952D01*
X47110000Y-182665714D01*
X47157619Y-182618095D01*
X47252857Y-182570476D01*
X47395714Y-182570476D01*
X47490952Y-182618095D01*
X47538571Y-182665714D01*
X47586190Y-182760952D01*
X47586190Y-183141904D01*
D12*
X49855714Y-183000000D02*
X49512857Y-183240000D01*
X49855714Y-183411428D02*
X49135714Y-183411428D01*
X49135714Y-183137142D01*
X49170000Y-183068571D01*
X49204285Y-183034285D01*
X49272857Y-183000000D01*
X49375714Y-183000000D01*
X49444285Y-183034285D01*
X49478571Y-183068571D01*
X49512857Y-183137142D01*
X49512857Y-183411428D01*
X49855714Y-182314285D02*
X49855714Y-182725714D01*
X49855714Y-182520000D02*
X49135714Y-182520000D01*
X49238571Y-182588571D01*
X49307142Y-182657142D01*
X49341428Y-182725714D01*
D11*
X127548095Y-165612380D02*
X128214761Y-165612380D01*
X127786190Y-166612380D01*
X129024285Y-165945714D02*
X129024285Y-166612380D01*
X128786190Y-165564761D02*
X128548095Y-166279047D01*
X129167142Y-166279047D01*
X129548095Y-166612380D02*
X129548095Y-165612380D01*
X129548095Y-166088571D02*
X130119523Y-166088571D01*
X130119523Y-166612380D02*
X130119523Y-165612380D01*
X131167142Y-166517142D02*
X131119523Y-166564761D01*
X130976666Y-166612380D01*
X130881428Y-166612380D01*
X130738571Y-166564761D01*
X130643333Y-166469523D01*
X130595714Y-166374285D01*
X130548095Y-166183809D01*
X130548095Y-166040952D01*
X130595714Y-165850476D01*
X130643333Y-165755238D01*
X130738571Y-165660000D01*
X130881428Y-165612380D01*
X130976666Y-165612380D01*
X131119523Y-165660000D01*
X131167142Y-165707619D01*
X132071904Y-165612380D02*
X131595714Y-165612380D01*
X131548095Y-166088571D01*
X131595714Y-166040952D01*
X131690952Y-165993333D01*
X131929047Y-165993333D01*
X132024285Y-166040952D01*
X132071904Y-166088571D01*
X132119523Y-166183809D01*
X132119523Y-166421904D01*
X132071904Y-166517142D01*
X132024285Y-166564761D01*
X131929047Y-166612380D01*
X131690952Y-166612380D01*
X131595714Y-166564761D01*
X131548095Y-166517142D01*
X132595714Y-166612380D02*
X132786190Y-166612380D01*
X132881428Y-166564761D01*
X132929047Y-166517142D01*
X133024285Y-166374285D01*
X133071904Y-166183809D01*
X133071904Y-165802857D01*
X133024285Y-165707619D01*
X132976666Y-165660000D01*
X132881428Y-165612380D01*
X132690952Y-165612380D01*
X132595714Y-165660000D01*
X132548095Y-165707619D01*
X132500476Y-165802857D01*
X132500476Y-166040952D01*
X132548095Y-166136190D01*
X132595714Y-166183809D01*
X132690952Y-166231428D01*
X132881428Y-166231428D01*
X132976666Y-166183809D01*
X133024285Y-166136190D01*
X133071904Y-166040952D01*
X133976666Y-165612380D02*
X133500476Y-165612380D01*
X133452857Y-166088571D01*
X133500476Y-166040952D01*
X133595714Y-165993333D01*
X133833809Y-165993333D01*
X133929047Y-166040952D01*
X133976666Y-166088571D01*
X134024285Y-166183809D01*
X134024285Y-166421904D01*
X133976666Y-166517142D01*
X133929047Y-166564761D01*
X133833809Y-166612380D01*
X133595714Y-166612380D01*
X133500476Y-166564761D01*
X133452857Y-166517142D01*
X130048095Y-154392380D02*
X130048095Y-155201904D01*
X130095714Y-155297142D01*
X130143333Y-155344761D01*
X130238571Y-155392380D01*
X130429047Y-155392380D01*
X130524285Y-155344761D01*
X130571904Y-155297142D01*
X130619523Y-155201904D01*
X130619523Y-154392380D01*
X131571904Y-154392380D02*
X131095714Y-154392380D01*
X131048095Y-154868571D01*
X131095714Y-154820952D01*
X131190952Y-154773333D01*
X131429047Y-154773333D01*
X131524285Y-154820952D01*
X131571904Y-154868571D01*
X131619523Y-154963809D01*
X131619523Y-155201904D01*
X131571904Y-155297142D01*
X131524285Y-155344761D01*
X131429047Y-155392380D01*
X131190952Y-155392380D01*
X131095714Y-155344761D01*
X131048095Y-155297142D01*
M02*
