G04 #@! TF.GenerationSoftware,KiCad,Pcbnew,5.1.5-52549c5~84~ubuntu19.10.1*
G04 #@! TF.CreationDate,2020-03-16T22:21:34+01:00*
G04 #@! TF.ProjectId,tetris-board,74657472-6973-42d6-926f-6172642e6b69,rev?*
G04 #@! TF.SameCoordinates,Original*
G04 #@! TF.FileFunction,Legend,Top*
G04 #@! TF.FilePolarity,Positive*
%FSLAX46Y46*%
G04 Gerber Fmt 4.6, Leading zero omitted, Abs format (unit mm)*
G04 Created by KiCad (PCBNEW 5.1.5-52549c5~84~ubuntu19.10.1) date 2020-03-16 22:21:34*
%MOMM*%
%LPD*%
G04 APERTURE LIST*
%ADD10C,0.120000*%
%ADD11C,0.150000*%
G04 APERTURE END LIST*
D10*
X44450000Y-93980000D02*
X44450000Y-57150000D01*
X124460000Y-93980000D02*
X44450000Y-93980000D01*
X124460000Y-57150000D02*
X124460000Y-93980000D01*
X44450000Y-57150000D02*
X124460000Y-57150000D01*
X123190000Y-99060000D02*
X123190000Y-132080000D01*
X140970000Y-99060000D02*
X140970000Y-132080000D01*
X140970000Y-99060000D02*
X123190000Y-99060000D01*
X123190000Y-132080000D02*
X140970000Y-132080000D01*
X55880000Y-210820000D02*
X55880000Y-172720000D01*
X116840000Y-210820000D02*
X55880000Y-210820000D01*
X116840000Y-172720000D02*
X116840000Y-210820000D01*
X55880000Y-172720000D02*
X116840000Y-172720000D01*
X55880000Y-172720000D02*
X55880000Y-134620000D01*
X116840000Y-172720000D02*
X55880000Y-172720000D01*
X116840000Y-134620000D02*
X116840000Y-172720000D01*
X55880000Y-134620000D02*
X116840000Y-134620000D01*
X52180000Y-99000000D02*
X50530000Y-99000000D01*
X52180000Y-119440000D02*
X52180000Y-99000000D01*
X46880000Y-119440000D02*
X52180000Y-119440000D01*
X46880000Y-99000000D02*
X46880000Y-119440000D01*
X48530000Y-99000000D02*
X46880000Y-99000000D01*
X50530000Y-99000000D02*
G75*
G02X48530000Y-99000000I-1000000J0D01*
G01*
X55880000Y-134620000D02*
X55880000Y-96520000D01*
X116840000Y-134620000D02*
X55880000Y-134620000D01*
X116840000Y-96520000D02*
X116840000Y-134620000D01*
X55880000Y-96520000D02*
X116840000Y-96520000D01*
X52180000Y-144720000D02*
X50530000Y-144720000D01*
X52180000Y-165160000D02*
X52180000Y-144720000D01*
X46880000Y-165160000D02*
X52180000Y-165160000D01*
X46880000Y-144720000D02*
X46880000Y-165160000D01*
X48530000Y-144720000D02*
X46880000Y-144720000D01*
X50530000Y-144720000D02*
G75*
G02X48530000Y-144720000I-1000000J0D01*
G01*
X143510000Y-209550000D02*
X143510000Y-199390000D01*
X135890000Y-209550000D02*
X143510000Y-209550000D01*
X135890000Y-199390000D02*
X135890000Y-209550000D01*
X143510000Y-199390000D02*
X135890000Y-199390000D01*
X142240000Y-199390000D02*
X142240000Y-209550000D01*
X125149000Y-209010000D02*
X125149000Y-207500000D01*
X128850000Y-209010000D02*
X128850000Y-207500000D01*
X132120000Y-207500000D02*
X121880000Y-207500000D01*
X121880000Y-209010000D02*
X121880000Y-204369000D01*
X132120000Y-209010000D02*
X132120000Y-204369000D01*
X132120000Y-204369000D02*
X121880000Y-204369000D01*
X132120000Y-209010000D02*
X121880000Y-209010000D01*
X140155000Y-214595225D02*
X139655000Y-214595225D01*
X139905000Y-214345225D02*
X139905000Y-214845225D01*
X138714000Y-219751000D02*
X138146000Y-219751000D01*
X138948000Y-219711000D02*
X137912000Y-219711000D01*
X139107000Y-219671000D02*
X137753000Y-219671000D01*
X139235000Y-219631000D02*
X137625000Y-219631000D01*
X139345000Y-219591000D02*
X137515000Y-219591000D01*
X139441000Y-219551000D02*
X137419000Y-219551000D01*
X139528000Y-219511000D02*
X137332000Y-219511000D01*
X139608000Y-219471000D02*
X137252000Y-219471000D01*
X137390000Y-219431000D02*
X137179000Y-219431000D01*
X139681000Y-219431000D02*
X139470000Y-219431000D01*
X137390000Y-219391000D02*
X137111000Y-219391000D01*
X139749000Y-219391000D02*
X139470000Y-219391000D01*
X137390000Y-219351000D02*
X137047000Y-219351000D01*
X139813000Y-219351000D02*
X139470000Y-219351000D01*
X137390000Y-219311000D02*
X136987000Y-219311000D01*
X139873000Y-219311000D02*
X139470000Y-219311000D01*
X137390000Y-219271000D02*
X136930000Y-219271000D01*
X139930000Y-219271000D02*
X139470000Y-219271000D01*
X137390000Y-219231000D02*
X136876000Y-219231000D01*
X139984000Y-219231000D02*
X139470000Y-219231000D01*
X137390000Y-219191000D02*
X136825000Y-219191000D01*
X140035000Y-219191000D02*
X139470000Y-219191000D01*
X137390000Y-219151000D02*
X136777000Y-219151000D01*
X140083000Y-219151000D02*
X139470000Y-219151000D01*
X137390000Y-219111000D02*
X136731000Y-219111000D01*
X140129000Y-219111000D02*
X139470000Y-219111000D01*
X137390000Y-219071000D02*
X136687000Y-219071000D01*
X140173000Y-219071000D02*
X139470000Y-219071000D01*
X137390000Y-219031000D02*
X136645000Y-219031000D01*
X140215000Y-219031000D02*
X139470000Y-219031000D01*
X137390000Y-218991000D02*
X136604000Y-218991000D01*
X140256000Y-218991000D02*
X139470000Y-218991000D01*
X137390000Y-218951000D02*
X136566000Y-218951000D01*
X140294000Y-218951000D02*
X139470000Y-218951000D01*
X137390000Y-218911000D02*
X136529000Y-218911000D01*
X140331000Y-218911000D02*
X139470000Y-218911000D01*
X137390000Y-218871000D02*
X136493000Y-218871000D01*
X140367000Y-218871000D02*
X139470000Y-218871000D01*
X137390000Y-218831000D02*
X136459000Y-218831000D01*
X140401000Y-218831000D02*
X139470000Y-218831000D01*
X137390000Y-218791000D02*
X136426000Y-218791000D01*
X140434000Y-218791000D02*
X139470000Y-218791000D01*
X137390000Y-218751000D02*
X136395000Y-218751000D01*
X140465000Y-218751000D02*
X139470000Y-218751000D01*
X137390000Y-218711000D02*
X136365000Y-218711000D01*
X140495000Y-218711000D02*
X139470000Y-218711000D01*
X137390000Y-218671000D02*
X136335000Y-218671000D01*
X140525000Y-218671000D02*
X139470000Y-218671000D01*
X137390000Y-218631000D02*
X136308000Y-218631000D01*
X140552000Y-218631000D02*
X139470000Y-218631000D01*
X137390000Y-218591000D02*
X136281000Y-218591000D01*
X140579000Y-218591000D02*
X139470000Y-218591000D01*
X137390000Y-218551000D02*
X136255000Y-218551000D01*
X140605000Y-218551000D02*
X139470000Y-218551000D01*
X137390000Y-218511000D02*
X136230000Y-218511000D01*
X140630000Y-218511000D02*
X139470000Y-218511000D01*
X137390000Y-218471000D02*
X136206000Y-218471000D01*
X140654000Y-218471000D02*
X139470000Y-218471000D01*
X137390000Y-218431000D02*
X136183000Y-218431000D01*
X140677000Y-218431000D02*
X139470000Y-218431000D01*
X137390000Y-218391000D02*
X136162000Y-218391000D01*
X140698000Y-218391000D02*
X139470000Y-218391000D01*
X137390000Y-218351000D02*
X136140000Y-218351000D01*
X140720000Y-218351000D02*
X139470000Y-218351000D01*
X137390000Y-218311000D02*
X136120000Y-218311000D01*
X140740000Y-218311000D02*
X139470000Y-218311000D01*
X137390000Y-218271000D02*
X136101000Y-218271000D01*
X140759000Y-218271000D02*
X139470000Y-218271000D01*
X137390000Y-218231000D02*
X136082000Y-218231000D01*
X140778000Y-218231000D02*
X139470000Y-218231000D01*
X137390000Y-218191000D02*
X136065000Y-218191000D01*
X140795000Y-218191000D02*
X139470000Y-218191000D01*
X137390000Y-218151000D02*
X136048000Y-218151000D01*
X140812000Y-218151000D02*
X139470000Y-218151000D01*
X137390000Y-218111000D02*
X136032000Y-218111000D01*
X140828000Y-218111000D02*
X139470000Y-218111000D01*
X137390000Y-218071000D02*
X136016000Y-218071000D01*
X140844000Y-218071000D02*
X139470000Y-218071000D01*
X137390000Y-218031000D02*
X136002000Y-218031000D01*
X140858000Y-218031000D02*
X139470000Y-218031000D01*
X137390000Y-217991000D02*
X135988000Y-217991000D01*
X140872000Y-217991000D02*
X139470000Y-217991000D01*
X137390000Y-217951000D02*
X135975000Y-217951000D01*
X140885000Y-217951000D02*
X139470000Y-217951000D01*
X137390000Y-217911000D02*
X135962000Y-217911000D01*
X140898000Y-217911000D02*
X139470000Y-217911000D01*
X137390000Y-217871000D02*
X135950000Y-217871000D01*
X140910000Y-217871000D02*
X139470000Y-217871000D01*
X137390000Y-217830000D02*
X135939000Y-217830000D01*
X140921000Y-217830000D02*
X139470000Y-217830000D01*
X137390000Y-217790000D02*
X135929000Y-217790000D01*
X140931000Y-217790000D02*
X139470000Y-217790000D01*
X137390000Y-217750000D02*
X135919000Y-217750000D01*
X140941000Y-217750000D02*
X139470000Y-217750000D01*
X137390000Y-217710000D02*
X135910000Y-217710000D01*
X140950000Y-217710000D02*
X139470000Y-217710000D01*
X137390000Y-217670000D02*
X135902000Y-217670000D01*
X140958000Y-217670000D02*
X139470000Y-217670000D01*
X137390000Y-217630000D02*
X135894000Y-217630000D01*
X140966000Y-217630000D02*
X139470000Y-217630000D01*
X137390000Y-217590000D02*
X135887000Y-217590000D01*
X140973000Y-217590000D02*
X139470000Y-217590000D01*
X137390000Y-217550000D02*
X135880000Y-217550000D01*
X140980000Y-217550000D02*
X139470000Y-217550000D01*
X137390000Y-217510000D02*
X135874000Y-217510000D01*
X140986000Y-217510000D02*
X139470000Y-217510000D01*
X137390000Y-217470000D02*
X135869000Y-217470000D01*
X140991000Y-217470000D02*
X139470000Y-217470000D01*
X137390000Y-217430000D02*
X135865000Y-217430000D01*
X140995000Y-217430000D02*
X139470000Y-217430000D01*
X137390000Y-217390000D02*
X135861000Y-217390000D01*
X140999000Y-217390000D02*
X139470000Y-217390000D01*
X141003000Y-217350000D02*
X135857000Y-217350000D01*
X141006000Y-217310000D02*
X135854000Y-217310000D01*
X141008000Y-217270000D02*
X135852000Y-217270000D01*
X141009000Y-217230000D02*
X135851000Y-217230000D01*
X141010000Y-217190000D02*
X135850000Y-217190000D01*
X141010000Y-217150000D02*
X135850000Y-217150000D01*
X141050000Y-217150000D02*
G75*
G03X141050000Y-217150000I-2620000J0D01*
G01*
X132535000Y-214595225D02*
X132035000Y-214595225D01*
X132285000Y-214345225D02*
X132285000Y-214845225D01*
X131094000Y-219751000D02*
X130526000Y-219751000D01*
X131328000Y-219711000D02*
X130292000Y-219711000D01*
X131487000Y-219671000D02*
X130133000Y-219671000D01*
X131615000Y-219631000D02*
X130005000Y-219631000D01*
X131725000Y-219591000D02*
X129895000Y-219591000D01*
X131821000Y-219551000D02*
X129799000Y-219551000D01*
X131908000Y-219511000D02*
X129712000Y-219511000D01*
X131988000Y-219471000D02*
X129632000Y-219471000D01*
X129770000Y-219431000D02*
X129559000Y-219431000D01*
X132061000Y-219431000D02*
X131850000Y-219431000D01*
X129770000Y-219391000D02*
X129491000Y-219391000D01*
X132129000Y-219391000D02*
X131850000Y-219391000D01*
X129770000Y-219351000D02*
X129427000Y-219351000D01*
X132193000Y-219351000D02*
X131850000Y-219351000D01*
X129770000Y-219311000D02*
X129367000Y-219311000D01*
X132253000Y-219311000D02*
X131850000Y-219311000D01*
X129770000Y-219271000D02*
X129310000Y-219271000D01*
X132310000Y-219271000D02*
X131850000Y-219271000D01*
X129770000Y-219231000D02*
X129256000Y-219231000D01*
X132364000Y-219231000D02*
X131850000Y-219231000D01*
X129770000Y-219191000D02*
X129205000Y-219191000D01*
X132415000Y-219191000D02*
X131850000Y-219191000D01*
X129770000Y-219151000D02*
X129157000Y-219151000D01*
X132463000Y-219151000D02*
X131850000Y-219151000D01*
X129770000Y-219111000D02*
X129111000Y-219111000D01*
X132509000Y-219111000D02*
X131850000Y-219111000D01*
X129770000Y-219071000D02*
X129067000Y-219071000D01*
X132553000Y-219071000D02*
X131850000Y-219071000D01*
X129770000Y-219031000D02*
X129025000Y-219031000D01*
X132595000Y-219031000D02*
X131850000Y-219031000D01*
X129770000Y-218991000D02*
X128984000Y-218991000D01*
X132636000Y-218991000D02*
X131850000Y-218991000D01*
X129770000Y-218951000D02*
X128946000Y-218951000D01*
X132674000Y-218951000D02*
X131850000Y-218951000D01*
X129770000Y-218911000D02*
X128909000Y-218911000D01*
X132711000Y-218911000D02*
X131850000Y-218911000D01*
X129770000Y-218871000D02*
X128873000Y-218871000D01*
X132747000Y-218871000D02*
X131850000Y-218871000D01*
X129770000Y-218831000D02*
X128839000Y-218831000D01*
X132781000Y-218831000D02*
X131850000Y-218831000D01*
X129770000Y-218791000D02*
X128806000Y-218791000D01*
X132814000Y-218791000D02*
X131850000Y-218791000D01*
X129770000Y-218751000D02*
X128775000Y-218751000D01*
X132845000Y-218751000D02*
X131850000Y-218751000D01*
X129770000Y-218711000D02*
X128745000Y-218711000D01*
X132875000Y-218711000D02*
X131850000Y-218711000D01*
X129770000Y-218671000D02*
X128715000Y-218671000D01*
X132905000Y-218671000D02*
X131850000Y-218671000D01*
X129770000Y-218631000D02*
X128688000Y-218631000D01*
X132932000Y-218631000D02*
X131850000Y-218631000D01*
X129770000Y-218591000D02*
X128661000Y-218591000D01*
X132959000Y-218591000D02*
X131850000Y-218591000D01*
X129770000Y-218551000D02*
X128635000Y-218551000D01*
X132985000Y-218551000D02*
X131850000Y-218551000D01*
X129770000Y-218511000D02*
X128610000Y-218511000D01*
X133010000Y-218511000D02*
X131850000Y-218511000D01*
X129770000Y-218471000D02*
X128586000Y-218471000D01*
X133034000Y-218471000D02*
X131850000Y-218471000D01*
X129770000Y-218431000D02*
X128563000Y-218431000D01*
X133057000Y-218431000D02*
X131850000Y-218431000D01*
X129770000Y-218391000D02*
X128542000Y-218391000D01*
X133078000Y-218391000D02*
X131850000Y-218391000D01*
X129770000Y-218351000D02*
X128520000Y-218351000D01*
X133100000Y-218351000D02*
X131850000Y-218351000D01*
X129770000Y-218311000D02*
X128500000Y-218311000D01*
X133120000Y-218311000D02*
X131850000Y-218311000D01*
X129770000Y-218271000D02*
X128481000Y-218271000D01*
X133139000Y-218271000D02*
X131850000Y-218271000D01*
X129770000Y-218231000D02*
X128462000Y-218231000D01*
X133158000Y-218231000D02*
X131850000Y-218231000D01*
X129770000Y-218191000D02*
X128445000Y-218191000D01*
X133175000Y-218191000D02*
X131850000Y-218191000D01*
X129770000Y-218151000D02*
X128428000Y-218151000D01*
X133192000Y-218151000D02*
X131850000Y-218151000D01*
X129770000Y-218111000D02*
X128412000Y-218111000D01*
X133208000Y-218111000D02*
X131850000Y-218111000D01*
X129770000Y-218071000D02*
X128396000Y-218071000D01*
X133224000Y-218071000D02*
X131850000Y-218071000D01*
X129770000Y-218031000D02*
X128382000Y-218031000D01*
X133238000Y-218031000D02*
X131850000Y-218031000D01*
X129770000Y-217991000D02*
X128368000Y-217991000D01*
X133252000Y-217991000D02*
X131850000Y-217991000D01*
X129770000Y-217951000D02*
X128355000Y-217951000D01*
X133265000Y-217951000D02*
X131850000Y-217951000D01*
X129770000Y-217911000D02*
X128342000Y-217911000D01*
X133278000Y-217911000D02*
X131850000Y-217911000D01*
X129770000Y-217871000D02*
X128330000Y-217871000D01*
X133290000Y-217871000D02*
X131850000Y-217871000D01*
X129770000Y-217830000D02*
X128319000Y-217830000D01*
X133301000Y-217830000D02*
X131850000Y-217830000D01*
X129770000Y-217790000D02*
X128309000Y-217790000D01*
X133311000Y-217790000D02*
X131850000Y-217790000D01*
X129770000Y-217750000D02*
X128299000Y-217750000D01*
X133321000Y-217750000D02*
X131850000Y-217750000D01*
X129770000Y-217710000D02*
X128290000Y-217710000D01*
X133330000Y-217710000D02*
X131850000Y-217710000D01*
X129770000Y-217670000D02*
X128282000Y-217670000D01*
X133338000Y-217670000D02*
X131850000Y-217670000D01*
X129770000Y-217630000D02*
X128274000Y-217630000D01*
X133346000Y-217630000D02*
X131850000Y-217630000D01*
X129770000Y-217590000D02*
X128267000Y-217590000D01*
X133353000Y-217590000D02*
X131850000Y-217590000D01*
X129770000Y-217550000D02*
X128260000Y-217550000D01*
X133360000Y-217550000D02*
X131850000Y-217550000D01*
X129770000Y-217510000D02*
X128254000Y-217510000D01*
X133366000Y-217510000D02*
X131850000Y-217510000D01*
X129770000Y-217470000D02*
X128249000Y-217470000D01*
X133371000Y-217470000D02*
X131850000Y-217470000D01*
X129770000Y-217430000D02*
X128245000Y-217430000D01*
X133375000Y-217430000D02*
X131850000Y-217430000D01*
X129770000Y-217390000D02*
X128241000Y-217390000D01*
X133379000Y-217390000D02*
X131850000Y-217390000D01*
X133383000Y-217350000D02*
X128237000Y-217350000D01*
X133386000Y-217310000D02*
X128234000Y-217310000D01*
X133388000Y-217270000D02*
X128232000Y-217270000D01*
X133389000Y-217230000D02*
X128231000Y-217230000D01*
X133390000Y-217190000D02*
X128230000Y-217190000D01*
X133390000Y-217150000D02*
X128230000Y-217150000D01*
X133430000Y-217150000D02*
G75*
G03X133430000Y-217150000I-2620000J0D01*
G01*
X102000000Y-225250000D02*
X102000000Y-223750000D01*
X100750000Y-221250000D02*
X96250000Y-221250000D01*
X95000000Y-223750000D02*
X95000000Y-225250000D01*
X96250000Y-227750000D02*
X100750000Y-227750000D01*
X89300000Y-232870000D02*
X89300000Y-231370000D01*
X88050000Y-228870000D02*
X83550000Y-228870000D01*
X82300000Y-231370000D02*
X82300000Y-232870000D01*
X83550000Y-235370000D02*
X88050000Y-235370000D01*
X89300000Y-217630000D02*
X89300000Y-216130000D01*
X88050000Y-213630000D02*
X83550000Y-213630000D01*
X82300000Y-216130000D02*
X82300000Y-217630000D01*
X83550000Y-220130000D02*
X88050000Y-220130000D01*
X76600000Y-225250000D02*
X76600000Y-223750000D01*
X75350000Y-221250000D02*
X70850000Y-221250000D01*
X69600000Y-223750000D02*
X69600000Y-225250000D01*
X70850000Y-227750000D02*
X75350000Y-227750000D01*
X139350000Y-144160000D02*
X139350000Y-140320000D01*
X137510000Y-144160000D02*
X137510000Y-140320000D01*
X131160000Y-67930000D02*
X131160000Y-71770000D01*
X133000000Y-67930000D02*
X133000000Y-71770000D01*
X131160000Y-76820000D02*
X131160000Y-80660000D01*
X133000000Y-76820000D02*
X133000000Y-80660000D01*
X131160000Y-85710000D02*
X131160000Y-89550000D01*
X133000000Y-85710000D02*
X133000000Y-89550000D01*
X111140000Y-231490000D02*
X107300000Y-231490000D01*
X111140000Y-233330000D02*
X107300000Y-233330000D01*
X58070000Y-227980000D02*
X58070000Y-224140000D01*
X56230000Y-227980000D02*
X56230000Y-224140000D01*
X48610000Y-224140000D02*
X48610000Y-227980000D01*
X50450000Y-224140000D02*
X50450000Y-227980000D01*
X48610000Y-213980000D02*
X48610000Y-217820000D01*
X50450000Y-213980000D02*
X50450000Y-217820000D01*
X48610000Y-203820000D02*
X48610000Y-207660000D01*
X50450000Y-203820000D02*
X50450000Y-207660000D01*
X140730000Y-175260000D02*
G75*
G03X140730000Y-175260000I-6100000J0D01*
G01*
X47610000Y-140620000D02*
X51450000Y-140620000D01*
X47610000Y-138780000D02*
X51450000Y-138780000D01*
X47610000Y-135540000D02*
X51450000Y-135540000D01*
X47610000Y-133700000D02*
X51450000Y-133700000D01*
X47610000Y-130460000D02*
X51450000Y-130460000D01*
X47610000Y-128620000D02*
X51450000Y-128620000D01*
X47610000Y-125380000D02*
X51450000Y-125380000D01*
X47610000Y-123540000D02*
X51450000Y-123540000D01*
X48610000Y-170800000D02*
X48610000Y-174640000D01*
X50450000Y-170800000D02*
X50450000Y-174640000D01*
X123540000Y-169530000D02*
X123540000Y-173370000D01*
X125380000Y-169530000D02*
X125380000Y-173370000D01*
X48610000Y-191120000D02*
X48610000Y-194960000D01*
X50450000Y-191120000D02*
X50450000Y-194960000D01*
X48610000Y-180960000D02*
X48610000Y-184800000D01*
X50450000Y-180960000D02*
X50450000Y-184800000D01*
X133460000Y-144720000D02*
X131810000Y-144720000D01*
X133460000Y-165160000D02*
X133460000Y-144720000D01*
X128160000Y-165160000D02*
X133460000Y-165160000D01*
X128160000Y-144720000D02*
X128160000Y-165160000D01*
X129810000Y-144720000D02*
X128160000Y-144720000D01*
X131810000Y-144720000D02*
G75*
G02X129810000Y-144720000I-1000000J0D01*
G01*
D11*
X48768095Y-66762380D02*
X48768095Y-67571904D01*
X48815714Y-67667142D01*
X48863333Y-67714761D01*
X48958571Y-67762380D01*
X49149047Y-67762380D01*
X49244285Y-67714761D01*
X49291904Y-67667142D01*
X49339523Y-67571904D01*
X49339523Y-66762380D01*
X49863333Y-67762380D02*
X50053809Y-67762380D01*
X50149047Y-67714761D01*
X50196666Y-67667142D01*
X50291904Y-67524285D01*
X50339523Y-67333809D01*
X50339523Y-66952857D01*
X50291904Y-66857619D01*
X50244285Y-66810000D01*
X50149047Y-66762380D01*
X49958571Y-66762380D01*
X49863333Y-66810000D01*
X49815714Y-66857619D01*
X49768095Y-66952857D01*
X49768095Y-67190952D01*
X49815714Y-67286190D01*
X49863333Y-67333809D01*
X49958571Y-67381428D01*
X50149047Y-67381428D01*
X50244285Y-67333809D01*
X50291904Y-67286190D01*
X50339523Y-67190952D01*
X131318095Y-109942380D02*
X131318095Y-110751904D01*
X131365714Y-110847142D01*
X131413333Y-110894761D01*
X131508571Y-110942380D01*
X131699047Y-110942380D01*
X131794285Y-110894761D01*
X131841904Y-110847142D01*
X131889523Y-110751904D01*
X131889523Y-109942380D01*
X132508571Y-110370952D02*
X132413333Y-110323333D01*
X132365714Y-110275714D01*
X132318095Y-110180476D01*
X132318095Y-110132857D01*
X132365714Y-110037619D01*
X132413333Y-109990000D01*
X132508571Y-109942380D01*
X132699047Y-109942380D01*
X132794285Y-109990000D01*
X132841904Y-110037619D01*
X132889523Y-110132857D01*
X132889523Y-110180476D01*
X132841904Y-110275714D01*
X132794285Y-110323333D01*
X132699047Y-110370952D01*
X132508571Y-110370952D01*
X132413333Y-110418571D01*
X132365714Y-110466190D01*
X132318095Y-110561428D01*
X132318095Y-110751904D01*
X132365714Y-110847142D01*
X132413333Y-110894761D01*
X132508571Y-110942380D01*
X132699047Y-110942380D01*
X132794285Y-110894761D01*
X132841904Y-110847142D01*
X132889523Y-110751904D01*
X132889523Y-110561428D01*
X132841904Y-110466190D01*
X132794285Y-110418571D01*
X132699047Y-110370952D01*
X61468095Y-168862380D02*
X61468095Y-169671904D01*
X61515714Y-169767142D01*
X61563333Y-169814761D01*
X61658571Y-169862380D01*
X61849047Y-169862380D01*
X61944285Y-169814761D01*
X61991904Y-169767142D01*
X62039523Y-169671904D01*
X62039523Y-168862380D01*
X62420476Y-168862380D02*
X63039523Y-168862380D01*
X62706190Y-169243333D01*
X62849047Y-169243333D01*
X62944285Y-169290952D01*
X62991904Y-169338571D01*
X63039523Y-169433809D01*
X63039523Y-169671904D01*
X62991904Y-169767142D01*
X62944285Y-169814761D01*
X62849047Y-169862380D01*
X62563333Y-169862380D01*
X62468095Y-169814761D01*
X62420476Y-169767142D01*
X61468095Y-130762380D02*
X61468095Y-131571904D01*
X61515714Y-131667142D01*
X61563333Y-131714761D01*
X61658571Y-131762380D01*
X61849047Y-131762380D01*
X61944285Y-131714761D01*
X61991904Y-131667142D01*
X62039523Y-131571904D01*
X62039523Y-130762380D01*
X62468095Y-130857619D02*
X62515714Y-130810000D01*
X62610952Y-130762380D01*
X62849047Y-130762380D01*
X62944285Y-130810000D01*
X62991904Y-130857619D01*
X63039523Y-130952857D01*
X63039523Y-131048095D01*
X62991904Y-131190952D01*
X62420476Y-131762380D01*
X63039523Y-131762380D01*
X48768095Y-97452380D02*
X48768095Y-98261904D01*
X48815714Y-98357142D01*
X48863333Y-98404761D01*
X48958571Y-98452380D01*
X49149047Y-98452380D01*
X49244285Y-98404761D01*
X49291904Y-98357142D01*
X49339523Y-98261904D01*
X49339523Y-97452380D01*
X50244285Y-97785714D02*
X50244285Y-98452380D01*
X50006190Y-97404761D02*
X49768095Y-98119047D01*
X50387142Y-98119047D01*
X61468095Y-92662380D02*
X61468095Y-93471904D01*
X61515714Y-93567142D01*
X61563333Y-93614761D01*
X61658571Y-93662380D01*
X61849047Y-93662380D01*
X61944285Y-93614761D01*
X61991904Y-93567142D01*
X62039523Y-93471904D01*
X62039523Y-92662380D01*
X63039523Y-93662380D02*
X62468095Y-93662380D01*
X62753809Y-93662380D02*
X62753809Y-92662380D01*
X62658571Y-92805238D01*
X62563333Y-92900476D01*
X62468095Y-92948095D01*
X48768095Y-143172380D02*
X48768095Y-143981904D01*
X48815714Y-144077142D01*
X48863333Y-144124761D01*
X48958571Y-144172380D01*
X49149047Y-144172380D01*
X49244285Y-144124761D01*
X49291904Y-144077142D01*
X49339523Y-143981904D01*
X49339523Y-143172380D01*
X50244285Y-143172380D02*
X50053809Y-143172380D01*
X49958571Y-143220000D01*
X49910952Y-143267619D01*
X49815714Y-143410476D01*
X49768095Y-143600952D01*
X49768095Y-143981904D01*
X49815714Y-144077142D01*
X49863333Y-144124761D01*
X49958571Y-144172380D01*
X50149047Y-144172380D01*
X50244285Y-144124761D01*
X50291904Y-144077142D01*
X50339523Y-143981904D01*
X50339523Y-143743809D01*
X50291904Y-143648571D01*
X50244285Y-143600952D01*
X50149047Y-143553333D01*
X49958571Y-143553333D01*
X49863333Y-143600952D01*
X49815714Y-143648571D01*
X49768095Y-143743809D01*
X134072380Y-204803333D02*
X134786666Y-204803333D01*
X134929523Y-204850952D01*
X135024761Y-204946190D01*
X135072380Y-205089047D01*
X135072380Y-205184285D01*
X135072380Y-203803333D02*
X135072380Y-204374761D01*
X135072380Y-204089047D02*
X134072380Y-204089047D01*
X134215238Y-204184285D01*
X134310476Y-204279523D01*
X134358095Y-204374761D01*
X126238095Y-209462380D02*
X126238095Y-210271904D01*
X126285714Y-210367142D01*
X126333333Y-210414761D01*
X126428571Y-210462380D01*
X126619047Y-210462380D01*
X126714285Y-210414761D01*
X126761904Y-210367142D01*
X126809523Y-210271904D01*
X126809523Y-209462380D01*
X127190476Y-209462380D02*
X127857142Y-209462380D01*
X127428571Y-210462380D01*
X142537142Y-217316666D02*
X142584761Y-217364285D01*
X142632380Y-217507142D01*
X142632380Y-217602380D01*
X142584761Y-217745238D01*
X142489523Y-217840476D01*
X142394285Y-217888095D01*
X142203809Y-217935714D01*
X142060952Y-217935714D01*
X141870476Y-217888095D01*
X141775238Y-217840476D01*
X141680000Y-217745238D01*
X141632380Y-217602380D01*
X141632380Y-217507142D01*
X141680000Y-217364285D01*
X141727619Y-217316666D01*
X141727619Y-216935714D02*
X141680000Y-216888095D01*
X141632380Y-216792857D01*
X141632380Y-216554761D01*
X141680000Y-216459523D01*
X141727619Y-216411904D01*
X141822857Y-216364285D01*
X141918095Y-216364285D01*
X142060952Y-216411904D01*
X142632380Y-216983333D01*
X142632380Y-216364285D01*
X134917142Y-217316666D02*
X134964761Y-217364285D01*
X135012380Y-217507142D01*
X135012380Y-217602380D01*
X134964761Y-217745238D01*
X134869523Y-217840476D01*
X134774285Y-217888095D01*
X134583809Y-217935714D01*
X134440952Y-217935714D01*
X134250476Y-217888095D01*
X134155238Y-217840476D01*
X134060000Y-217745238D01*
X134012380Y-217602380D01*
X134012380Y-217507142D01*
X134060000Y-217364285D01*
X134107619Y-217316666D01*
X135012380Y-216364285D02*
X135012380Y-216935714D01*
X135012380Y-216650000D02*
X134012380Y-216650000D01*
X134155238Y-216745238D01*
X134250476Y-216840476D01*
X134298095Y-216935714D01*
X97166666Y-220654761D02*
X97309523Y-220702380D01*
X97547619Y-220702380D01*
X97642857Y-220654761D01*
X97690476Y-220607142D01*
X97738095Y-220511904D01*
X97738095Y-220416666D01*
X97690476Y-220321428D01*
X97642857Y-220273809D01*
X97547619Y-220226190D01*
X97357142Y-220178571D01*
X97261904Y-220130952D01*
X97214285Y-220083333D01*
X97166666Y-219988095D01*
X97166666Y-219892857D01*
X97214285Y-219797619D01*
X97261904Y-219750000D01*
X97357142Y-219702380D01*
X97595238Y-219702380D01*
X97738095Y-219750000D01*
X98071428Y-219702380D02*
X98309523Y-220702380D01*
X98500000Y-219988095D01*
X98690476Y-220702380D01*
X98928571Y-219702380D01*
X99261904Y-219797619D02*
X99309523Y-219750000D01*
X99404761Y-219702380D01*
X99642857Y-219702380D01*
X99738095Y-219750000D01*
X99785714Y-219797619D01*
X99833333Y-219892857D01*
X99833333Y-219988095D01*
X99785714Y-220130952D01*
X99214285Y-220702380D01*
X99833333Y-220702380D01*
X84466666Y-228274761D02*
X84609523Y-228322380D01*
X84847619Y-228322380D01*
X84942857Y-228274761D01*
X84990476Y-228227142D01*
X85038095Y-228131904D01*
X85038095Y-228036666D01*
X84990476Y-227941428D01*
X84942857Y-227893809D01*
X84847619Y-227846190D01*
X84657142Y-227798571D01*
X84561904Y-227750952D01*
X84514285Y-227703333D01*
X84466666Y-227608095D01*
X84466666Y-227512857D01*
X84514285Y-227417619D01*
X84561904Y-227370000D01*
X84657142Y-227322380D01*
X84895238Y-227322380D01*
X85038095Y-227370000D01*
X85371428Y-227322380D02*
X85609523Y-228322380D01*
X85800000Y-227608095D01*
X85990476Y-228322380D01*
X86228571Y-227322380D01*
X86514285Y-227322380D02*
X87133333Y-227322380D01*
X86800000Y-227703333D01*
X86942857Y-227703333D01*
X87038095Y-227750952D01*
X87085714Y-227798571D01*
X87133333Y-227893809D01*
X87133333Y-228131904D01*
X87085714Y-228227142D01*
X87038095Y-228274761D01*
X86942857Y-228322380D01*
X86657142Y-228322380D01*
X86561904Y-228274761D01*
X86514285Y-228227142D01*
X84466666Y-213034761D02*
X84609523Y-213082380D01*
X84847619Y-213082380D01*
X84942857Y-213034761D01*
X84990476Y-212987142D01*
X85038095Y-212891904D01*
X85038095Y-212796666D01*
X84990476Y-212701428D01*
X84942857Y-212653809D01*
X84847619Y-212606190D01*
X84657142Y-212558571D01*
X84561904Y-212510952D01*
X84514285Y-212463333D01*
X84466666Y-212368095D01*
X84466666Y-212272857D01*
X84514285Y-212177619D01*
X84561904Y-212130000D01*
X84657142Y-212082380D01*
X84895238Y-212082380D01*
X85038095Y-212130000D01*
X85371428Y-212082380D02*
X85609523Y-213082380D01*
X85800000Y-212368095D01*
X85990476Y-213082380D01*
X86228571Y-212082380D01*
X87133333Y-213082380D02*
X86561904Y-213082380D01*
X86847619Y-213082380D02*
X86847619Y-212082380D01*
X86752380Y-212225238D01*
X86657142Y-212320476D01*
X86561904Y-212368095D01*
X71766666Y-220654761D02*
X71909523Y-220702380D01*
X72147619Y-220702380D01*
X72242857Y-220654761D01*
X72290476Y-220607142D01*
X72338095Y-220511904D01*
X72338095Y-220416666D01*
X72290476Y-220321428D01*
X72242857Y-220273809D01*
X72147619Y-220226190D01*
X71957142Y-220178571D01*
X71861904Y-220130952D01*
X71814285Y-220083333D01*
X71766666Y-219988095D01*
X71766666Y-219892857D01*
X71814285Y-219797619D01*
X71861904Y-219750000D01*
X71957142Y-219702380D01*
X72195238Y-219702380D01*
X72338095Y-219750000D01*
X72671428Y-219702380D02*
X72909523Y-220702380D01*
X73100000Y-219988095D01*
X73290476Y-220702380D01*
X73528571Y-219702380D01*
X74338095Y-220035714D02*
X74338095Y-220702380D01*
X74100000Y-219654761D02*
X73861904Y-220369047D01*
X74480952Y-220369047D01*
X136962380Y-142882857D02*
X136486190Y-143216190D01*
X136962380Y-143454285D02*
X135962380Y-143454285D01*
X135962380Y-143073333D01*
X136010000Y-142978095D01*
X136057619Y-142930476D01*
X136152857Y-142882857D01*
X136295714Y-142882857D01*
X136390952Y-142930476D01*
X136438571Y-142978095D01*
X136486190Y-143073333D01*
X136486190Y-143454285D01*
X136962380Y-141930476D02*
X136962380Y-142501904D01*
X136962380Y-142216190D02*
X135962380Y-142216190D01*
X136105238Y-142311428D01*
X136200476Y-142406666D01*
X136248095Y-142501904D01*
X135962380Y-141597142D02*
X135962380Y-140930476D01*
X136962380Y-141359047D01*
X134452380Y-70492857D02*
X133976190Y-70826190D01*
X134452380Y-71064285D02*
X133452380Y-71064285D01*
X133452380Y-70683333D01*
X133500000Y-70588095D01*
X133547619Y-70540476D01*
X133642857Y-70492857D01*
X133785714Y-70492857D01*
X133880952Y-70540476D01*
X133928571Y-70588095D01*
X133976190Y-70683333D01*
X133976190Y-71064285D01*
X134452380Y-69540476D02*
X134452380Y-70111904D01*
X134452380Y-69826190D02*
X133452380Y-69826190D01*
X133595238Y-69921428D01*
X133690476Y-70016666D01*
X133738095Y-70111904D01*
X133452380Y-68683333D02*
X133452380Y-68873809D01*
X133500000Y-68969047D01*
X133547619Y-69016666D01*
X133690476Y-69111904D01*
X133880952Y-69159523D01*
X134261904Y-69159523D01*
X134357142Y-69111904D01*
X134404761Y-69064285D01*
X134452380Y-68969047D01*
X134452380Y-68778571D01*
X134404761Y-68683333D01*
X134357142Y-68635714D01*
X134261904Y-68588095D01*
X134023809Y-68588095D01*
X133928571Y-68635714D01*
X133880952Y-68683333D01*
X133833333Y-68778571D01*
X133833333Y-68969047D01*
X133880952Y-69064285D01*
X133928571Y-69111904D01*
X134023809Y-69159523D01*
X134452380Y-79382857D02*
X133976190Y-79716190D01*
X134452380Y-79954285D02*
X133452380Y-79954285D01*
X133452380Y-79573333D01*
X133500000Y-79478095D01*
X133547619Y-79430476D01*
X133642857Y-79382857D01*
X133785714Y-79382857D01*
X133880952Y-79430476D01*
X133928571Y-79478095D01*
X133976190Y-79573333D01*
X133976190Y-79954285D01*
X134452380Y-78430476D02*
X134452380Y-79001904D01*
X134452380Y-78716190D02*
X133452380Y-78716190D01*
X133595238Y-78811428D01*
X133690476Y-78906666D01*
X133738095Y-79001904D01*
X133452380Y-77525714D02*
X133452380Y-78001904D01*
X133928571Y-78049523D01*
X133880952Y-78001904D01*
X133833333Y-77906666D01*
X133833333Y-77668571D01*
X133880952Y-77573333D01*
X133928571Y-77525714D01*
X134023809Y-77478095D01*
X134261904Y-77478095D01*
X134357142Y-77525714D01*
X134404761Y-77573333D01*
X134452380Y-77668571D01*
X134452380Y-77906666D01*
X134404761Y-78001904D01*
X134357142Y-78049523D01*
X134452380Y-88272857D02*
X133976190Y-88606190D01*
X134452380Y-88844285D02*
X133452380Y-88844285D01*
X133452380Y-88463333D01*
X133500000Y-88368095D01*
X133547619Y-88320476D01*
X133642857Y-88272857D01*
X133785714Y-88272857D01*
X133880952Y-88320476D01*
X133928571Y-88368095D01*
X133976190Y-88463333D01*
X133976190Y-88844285D01*
X134452380Y-87320476D02*
X134452380Y-87891904D01*
X134452380Y-87606190D02*
X133452380Y-87606190D01*
X133595238Y-87701428D01*
X133690476Y-87796666D01*
X133738095Y-87891904D01*
X133785714Y-86463333D02*
X134452380Y-86463333D01*
X133404761Y-86701428D02*
X134119047Y-86939523D01*
X134119047Y-86320476D01*
X108577142Y-234782380D02*
X108243809Y-234306190D01*
X108005714Y-234782380D02*
X108005714Y-233782380D01*
X108386666Y-233782380D01*
X108481904Y-233830000D01*
X108529523Y-233877619D01*
X108577142Y-233972857D01*
X108577142Y-234115714D01*
X108529523Y-234210952D01*
X108481904Y-234258571D01*
X108386666Y-234306190D01*
X108005714Y-234306190D01*
X109529523Y-234782380D02*
X108958095Y-234782380D01*
X109243809Y-234782380D02*
X109243809Y-233782380D01*
X109148571Y-233925238D01*
X109053333Y-234020476D01*
X108958095Y-234068095D01*
X109862857Y-233782380D02*
X110481904Y-233782380D01*
X110148571Y-234163333D01*
X110291428Y-234163333D01*
X110386666Y-234210952D01*
X110434285Y-234258571D01*
X110481904Y-234353809D01*
X110481904Y-234591904D01*
X110434285Y-234687142D01*
X110386666Y-234734761D01*
X110291428Y-234782380D01*
X110005714Y-234782380D01*
X109910476Y-234734761D01*
X109862857Y-234687142D01*
X55682380Y-226702857D02*
X55206190Y-227036190D01*
X55682380Y-227274285D02*
X54682380Y-227274285D01*
X54682380Y-226893333D01*
X54730000Y-226798095D01*
X54777619Y-226750476D01*
X54872857Y-226702857D01*
X55015714Y-226702857D01*
X55110952Y-226750476D01*
X55158571Y-226798095D01*
X55206190Y-226893333D01*
X55206190Y-227274285D01*
X55682380Y-225750476D02*
X55682380Y-226321904D01*
X55682380Y-226036190D02*
X54682380Y-226036190D01*
X54825238Y-226131428D01*
X54920476Y-226226666D01*
X54968095Y-226321904D01*
X54777619Y-225369523D02*
X54730000Y-225321904D01*
X54682380Y-225226666D01*
X54682380Y-224988571D01*
X54730000Y-224893333D01*
X54777619Y-224845714D01*
X54872857Y-224798095D01*
X54968095Y-224798095D01*
X55110952Y-224845714D01*
X55682380Y-225417142D01*
X55682380Y-224798095D01*
X51902380Y-226702857D02*
X51426190Y-227036190D01*
X51902380Y-227274285D02*
X50902380Y-227274285D01*
X50902380Y-226893333D01*
X50950000Y-226798095D01*
X50997619Y-226750476D01*
X51092857Y-226702857D01*
X51235714Y-226702857D01*
X51330952Y-226750476D01*
X51378571Y-226798095D01*
X51426190Y-226893333D01*
X51426190Y-227274285D01*
X51902380Y-225750476D02*
X51902380Y-226321904D01*
X51902380Y-226036190D02*
X50902380Y-226036190D01*
X51045238Y-226131428D01*
X51140476Y-226226666D01*
X51188095Y-226321904D01*
X51902380Y-224798095D02*
X51902380Y-225369523D01*
X51902380Y-225083809D02*
X50902380Y-225083809D01*
X51045238Y-225179047D01*
X51140476Y-225274285D01*
X51188095Y-225369523D01*
X51902380Y-216542857D02*
X51426190Y-216876190D01*
X51902380Y-217114285D02*
X50902380Y-217114285D01*
X50902380Y-216733333D01*
X50950000Y-216638095D01*
X50997619Y-216590476D01*
X51092857Y-216542857D01*
X51235714Y-216542857D01*
X51330952Y-216590476D01*
X51378571Y-216638095D01*
X51426190Y-216733333D01*
X51426190Y-217114285D01*
X51902380Y-215590476D02*
X51902380Y-216161904D01*
X51902380Y-215876190D02*
X50902380Y-215876190D01*
X51045238Y-215971428D01*
X51140476Y-216066666D01*
X51188095Y-216161904D01*
X50902380Y-214971428D02*
X50902380Y-214876190D01*
X50950000Y-214780952D01*
X50997619Y-214733333D01*
X51092857Y-214685714D01*
X51283333Y-214638095D01*
X51521428Y-214638095D01*
X51711904Y-214685714D01*
X51807142Y-214733333D01*
X51854761Y-214780952D01*
X51902380Y-214876190D01*
X51902380Y-214971428D01*
X51854761Y-215066666D01*
X51807142Y-215114285D01*
X51711904Y-215161904D01*
X51521428Y-215209523D01*
X51283333Y-215209523D01*
X51092857Y-215161904D01*
X50997619Y-215114285D01*
X50950000Y-215066666D01*
X50902380Y-214971428D01*
X51902380Y-205906666D02*
X51426190Y-206240000D01*
X51902380Y-206478095D02*
X50902380Y-206478095D01*
X50902380Y-206097142D01*
X50950000Y-206001904D01*
X50997619Y-205954285D01*
X51092857Y-205906666D01*
X51235714Y-205906666D01*
X51330952Y-205954285D01*
X51378571Y-206001904D01*
X51426190Y-206097142D01*
X51426190Y-206478095D01*
X51902380Y-205430476D02*
X51902380Y-205240000D01*
X51854761Y-205144761D01*
X51807142Y-205097142D01*
X51664285Y-205001904D01*
X51473809Y-204954285D01*
X51092857Y-204954285D01*
X50997619Y-205001904D01*
X50950000Y-205049523D01*
X50902380Y-205144761D01*
X50902380Y-205335238D01*
X50950000Y-205430476D01*
X50997619Y-205478095D01*
X51092857Y-205525714D01*
X51330952Y-205525714D01*
X51426190Y-205478095D01*
X51473809Y-205430476D01*
X51521428Y-205335238D01*
X51521428Y-205144761D01*
X51473809Y-205049523D01*
X51426190Y-205001904D01*
X51330952Y-204954285D01*
X133749047Y-182388571D02*
X133891904Y-182436190D01*
X133939523Y-182483809D01*
X133987142Y-182579047D01*
X133987142Y-182721904D01*
X133939523Y-182817142D01*
X133891904Y-182864761D01*
X133796666Y-182912380D01*
X133415714Y-182912380D01*
X133415714Y-181912380D01*
X133749047Y-181912380D01*
X133844285Y-181960000D01*
X133891904Y-182007619D01*
X133939523Y-182102857D01*
X133939523Y-182198095D01*
X133891904Y-182293333D01*
X133844285Y-182340952D01*
X133749047Y-182388571D01*
X133415714Y-182388571D01*
X134320476Y-181912380D02*
X134987142Y-181912380D01*
X134320476Y-182912380D01*
X134987142Y-182912380D01*
X135891904Y-182912380D02*
X135320476Y-182912380D01*
X135606190Y-182912380D02*
X135606190Y-181912380D01*
X135510952Y-182055238D01*
X135415714Y-182150476D01*
X135320476Y-182198095D01*
X138059047Y-177871428D02*
X138820952Y-177871428D01*
X138440000Y-178252380D02*
X138440000Y-177490476D01*
X49363333Y-138232380D02*
X49030000Y-137756190D01*
X48791904Y-138232380D02*
X48791904Y-137232380D01*
X49172857Y-137232380D01*
X49268095Y-137280000D01*
X49315714Y-137327619D01*
X49363333Y-137422857D01*
X49363333Y-137565714D01*
X49315714Y-137660952D01*
X49268095Y-137708571D01*
X49172857Y-137756190D01*
X48791904Y-137756190D01*
X49934761Y-137660952D02*
X49839523Y-137613333D01*
X49791904Y-137565714D01*
X49744285Y-137470476D01*
X49744285Y-137422857D01*
X49791904Y-137327619D01*
X49839523Y-137280000D01*
X49934761Y-137232380D01*
X50125238Y-137232380D01*
X50220476Y-137280000D01*
X50268095Y-137327619D01*
X50315714Y-137422857D01*
X50315714Y-137470476D01*
X50268095Y-137565714D01*
X50220476Y-137613333D01*
X50125238Y-137660952D01*
X49934761Y-137660952D01*
X49839523Y-137708571D01*
X49791904Y-137756190D01*
X49744285Y-137851428D01*
X49744285Y-138041904D01*
X49791904Y-138137142D01*
X49839523Y-138184761D01*
X49934761Y-138232380D01*
X50125238Y-138232380D01*
X50220476Y-138184761D01*
X50268095Y-138137142D01*
X50315714Y-138041904D01*
X50315714Y-137851428D01*
X50268095Y-137756190D01*
X50220476Y-137708571D01*
X50125238Y-137660952D01*
X49363333Y-133152380D02*
X49030000Y-132676190D01*
X48791904Y-133152380D02*
X48791904Y-132152380D01*
X49172857Y-132152380D01*
X49268095Y-132200000D01*
X49315714Y-132247619D01*
X49363333Y-132342857D01*
X49363333Y-132485714D01*
X49315714Y-132580952D01*
X49268095Y-132628571D01*
X49172857Y-132676190D01*
X48791904Y-132676190D01*
X49696666Y-132152380D02*
X50363333Y-132152380D01*
X49934761Y-133152380D01*
X49363333Y-128072380D02*
X49030000Y-127596190D01*
X48791904Y-128072380D02*
X48791904Y-127072380D01*
X49172857Y-127072380D01*
X49268095Y-127120000D01*
X49315714Y-127167619D01*
X49363333Y-127262857D01*
X49363333Y-127405714D01*
X49315714Y-127500952D01*
X49268095Y-127548571D01*
X49172857Y-127596190D01*
X48791904Y-127596190D01*
X50220476Y-127072380D02*
X50030000Y-127072380D01*
X49934761Y-127120000D01*
X49887142Y-127167619D01*
X49791904Y-127310476D01*
X49744285Y-127500952D01*
X49744285Y-127881904D01*
X49791904Y-127977142D01*
X49839523Y-128024761D01*
X49934761Y-128072380D01*
X50125238Y-128072380D01*
X50220476Y-128024761D01*
X50268095Y-127977142D01*
X50315714Y-127881904D01*
X50315714Y-127643809D01*
X50268095Y-127548571D01*
X50220476Y-127500952D01*
X50125238Y-127453333D01*
X49934761Y-127453333D01*
X49839523Y-127500952D01*
X49791904Y-127548571D01*
X49744285Y-127643809D01*
X49363333Y-122992380D02*
X49030000Y-122516190D01*
X48791904Y-122992380D02*
X48791904Y-121992380D01*
X49172857Y-121992380D01*
X49268095Y-122040000D01*
X49315714Y-122087619D01*
X49363333Y-122182857D01*
X49363333Y-122325714D01*
X49315714Y-122420952D01*
X49268095Y-122468571D01*
X49172857Y-122516190D01*
X48791904Y-122516190D01*
X50268095Y-121992380D02*
X49791904Y-121992380D01*
X49744285Y-122468571D01*
X49791904Y-122420952D01*
X49887142Y-122373333D01*
X50125238Y-122373333D01*
X50220476Y-122420952D01*
X50268095Y-122468571D01*
X50315714Y-122563809D01*
X50315714Y-122801904D01*
X50268095Y-122897142D01*
X50220476Y-122944761D01*
X50125238Y-122992380D01*
X49887142Y-122992380D01*
X49791904Y-122944761D01*
X49744285Y-122897142D01*
X51902380Y-172886666D02*
X51426190Y-173220000D01*
X51902380Y-173458095D02*
X50902380Y-173458095D01*
X50902380Y-173077142D01*
X50950000Y-172981904D01*
X50997619Y-172934285D01*
X51092857Y-172886666D01*
X51235714Y-172886666D01*
X51330952Y-172934285D01*
X51378571Y-172981904D01*
X51426190Y-173077142D01*
X51426190Y-173458095D01*
X51235714Y-172029523D02*
X51902380Y-172029523D01*
X50854761Y-172267619D02*
X51569047Y-172505714D01*
X51569047Y-171886666D01*
X126832380Y-171616666D02*
X126356190Y-171950000D01*
X126832380Y-172188095D02*
X125832380Y-172188095D01*
X125832380Y-171807142D01*
X125880000Y-171711904D01*
X125927619Y-171664285D01*
X126022857Y-171616666D01*
X126165714Y-171616666D01*
X126260952Y-171664285D01*
X126308571Y-171711904D01*
X126356190Y-171807142D01*
X126356190Y-172188095D01*
X125832380Y-171283333D02*
X125832380Y-170664285D01*
X126213333Y-170997619D01*
X126213333Y-170854761D01*
X126260952Y-170759523D01*
X126308571Y-170711904D01*
X126403809Y-170664285D01*
X126641904Y-170664285D01*
X126737142Y-170711904D01*
X126784761Y-170759523D01*
X126832380Y-170854761D01*
X126832380Y-171140476D01*
X126784761Y-171235714D01*
X126737142Y-171283333D01*
X51902380Y-193206666D02*
X51426190Y-193540000D01*
X51902380Y-193778095D02*
X50902380Y-193778095D01*
X50902380Y-193397142D01*
X50950000Y-193301904D01*
X50997619Y-193254285D01*
X51092857Y-193206666D01*
X51235714Y-193206666D01*
X51330952Y-193254285D01*
X51378571Y-193301904D01*
X51426190Y-193397142D01*
X51426190Y-193778095D01*
X50997619Y-192825714D02*
X50950000Y-192778095D01*
X50902380Y-192682857D01*
X50902380Y-192444761D01*
X50950000Y-192349523D01*
X50997619Y-192301904D01*
X51092857Y-192254285D01*
X51188095Y-192254285D01*
X51330952Y-192301904D01*
X51902380Y-192873333D01*
X51902380Y-192254285D01*
X51902380Y-183046666D02*
X51426190Y-183380000D01*
X51902380Y-183618095D02*
X50902380Y-183618095D01*
X50902380Y-183237142D01*
X50950000Y-183141904D01*
X50997619Y-183094285D01*
X51092857Y-183046666D01*
X51235714Y-183046666D01*
X51330952Y-183094285D01*
X51378571Y-183141904D01*
X51426190Y-183237142D01*
X51426190Y-183618095D01*
X51902380Y-182094285D02*
X51902380Y-182665714D01*
X51902380Y-182380000D02*
X50902380Y-182380000D01*
X51045238Y-182475238D01*
X51140476Y-182570476D01*
X51188095Y-182665714D01*
X130048095Y-143172380D02*
X130048095Y-143981904D01*
X130095714Y-144077142D01*
X130143333Y-144124761D01*
X130238571Y-144172380D01*
X130429047Y-144172380D01*
X130524285Y-144124761D01*
X130571904Y-144077142D01*
X130619523Y-143981904D01*
X130619523Y-143172380D01*
X131571904Y-143172380D02*
X131095714Y-143172380D01*
X131048095Y-143648571D01*
X131095714Y-143600952D01*
X131190952Y-143553333D01*
X131429047Y-143553333D01*
X131524285Y-143600952D01*
X131571904Y-143648571D01*
X131619523Y-143743809D01*
X131619523Y-143981904D01*
X131571904Y-144077142D01*
X131524285Y-144124761D01*
X131429047Y-144172380D01*
X131190952Y-144172380D01*
X131095714Y-144124761D01*
X131048095Y-144077142D01*
M02*
