G04 #@! TF.GenerationSoftware,KiCad,Pcbnew,5.1.5-52549c5~84~ubuntu19.10.1*
G04 #@! TF.CreationDate,2020-02-09T00:12:04+01:00*
G04 #@! TF.ProjectId,tetris-board,74657472-6973-42d6-926f-6172642e6b69,rev?*
G04 #@! TF.SameCoordinates,Original*
G04 #@! TF.FileFunction,Copper,L1,Top*
G04 #@! TF.FilePolarity,Positive*
%FSLAX46Y46*%
G04 Gerber Fmt 4.6, Leading zero omitted, Abs format (unit mm)*
G04 Created by KiCad (PCBNEW 5.1.5-52549c5~84~ubuntu19.10.1) date 2020-02-09 00:12:04*
%MOMM*%
%LPD*%
G04 APERTURE LIST*
%ADD10C,1.524000*%
%ADD11O,1.600000X1.600000*%
%ADD12R,1.600000X1.600000*%
%ADD13C,3.000000*%
%ADD14R,3.000000X3.000000*%
%ADD15O,1.905000X2.000000*%
%ADD16R,1.905000X2.000000*%
%ADD17C,1.600000*%
%ADD18O,1.800000X2.600000*%
%ADD19R,1.800000X2.600000*%
%ADD20C,2.000000*%
%ADD21O,1.400000X1.400000*%
%ADD22C,1.400000*%
%ADD23R,2.000000X2.000000*%
%ADD24C,0.250000*%
G04 APERTURE END LIST*
D10*
X111760000Y-74930000D03*
X111760000Y-77470000D03*
X99060000Y-66040000D03*
X99060000Y-68580000D03*
X99060000Y-71120000D03*
X99060000Y-73660000D03*
X99060000Y-76200000D03*
X99060000Y-78740000D03*
X99060000Y-81280000D03*
X99060000Y-83820000D03*
X99060000Y-86360000D03*
X99060000Y-88900000D03*
X99060000Y-91440000D03*
X99060000Y-93980000D03*
X106680000Y-93980000D03*
X109220000Y-93980000D03*
X111760000Y-93980000D03*
X114300000Y-66040000D03*
X114300000Y-68580000D03*
X114300000Y-71120000D03*
X114300000Y-73660000D03*
X114300000Y-76200000D03*
X114300000Y-78740000D03*
X114300000Y-81280000D03*
X114300000Y-83820000D03*
X114300000Y-86360000D03*
X114300000Y-88900000D03*
X114300000Y-91440000D03*
X114300000Y-93980000D03*
X83820000Y-162560000D03*
X83820000Y-160020000D03*
X83820000Y-157480000D03*
X83820000Y-154940000D03*
X83820000Y-152400000D03*
X83820000Y-149860000D03*
X83820000Y-147320000D03*
X38100000Y-162560000D03*
X38100000Y-160020000D03*
X38100000Y-157480000D03*
X38100000Y-154940000D03*
X38100000Y-152400000D03*
X38100000Y-149860000D03*
X38100000Y-147320000D03*
X83820000Y-124460000D03*
X83820000Y-121920000D03*
X83820000Y-119380000D03*
X83820000Y-116840000D03*
X83820000Y-114300000D03*
X83820000Y-111760000D03*
X83820000Y-109220000D03*
X38100000Y-124460000D03*
X38100000Y-121920000D03*
X38100000Y-119380000D03*
X38100000Y-116840000D03*
X38100000Y-114300000D03*
X38100000Y-111760000D03*
X38100000Y-109220000D03*
D11*
X27940000Y-63500000D03*
X20320000Y-81280000D03*
X27940000Y-66040000D03*
X20320000Y-78740000D03*
X27940000Y-68580000D03*
X20320000Y-76200000D03*
X27940000Y-71120000D03*
X20320000Y-73660000D03*
X27940000Y-73660000D03*
X20320000Y-71120000D03*
X27940000Y-76200000D03*
X20320000Y-68580000D03*
X27940000Y-78740000D03*
X20320000Y-66040000D03*
X27940000Y-81280000D03*
D12*
X20320000Y-63500000D03*
D10*
X83820000Y-86360000D03*
X83820000Y-83820000D03*
X83820000Y-81280000D03*
X83820000Y-78740000D03*
X83820000Y-76200000D03*
X83820000Y-73660000D03*
X83820000Y-71120000D03*
X38100000Y-86360000D03*
X38100000Y-83820000D03*
X38100000Y-81280000D03*
X38100000Y-78740000D03*
X38100000Y-76200000D03*
X38100000Y-73660000D03*
X38100000Y-71120000D03*
D11*
X27940000Y-109220000D03*
X20320000Y-127000000D03*
X27940000Y-111760000D03*
X20320000Y-124460000D03*
X27940000Y-114300000D03*
X20320000Y-121920000D03*
X27940000Y-116840000D03*
X20320000Y-119380000D03*
X27940000Y-119380000D03*
X20320000Y-116840000D03*
X27940000Y-121920000D03*
X20320000Y-114300000D03*
X27940000Y-124460000D03*
X20320000Y-111760000D03*
X27940000Y-127000000D03*
D12*
X20320000Y-109220000D03*
D13*
X114300000Y-165100000D03*
D14*
X114300000Y-170180000D03*
D15*
X99060000Y-168910000D03*
X101600000Y-168910000D03*
D16*
X104140000Y-168910000D03*
D17*
X113030000Y-181570000D03*
D12*
X113030000Y-179070000D03*
D17*
X105410000Y-181570000D03*
D12*
X105410000Y-179070000D03*
D13*
X97440000Y-24130000D03*
X97439480Y-55130700D03*
X22440900Y-55130700D03*
X22440900Y-24130000D03*
D18*
X66040000Y-24130000D03*
X63500000Y-24130000D03*
X60960000Y-24130000D03*
X58420000Y-24130000D03*
X55880000Y-24130000D03*
X53340000Y-24130000D03*
X50800000Y-24130000D03*
X48260000Y-24130000D03*
X45720000Y-24130000D03*
X43180000Y-24130000D03*
X40640000Y-24130000D03*
X38100000Y-24130000D03*
X35560000Y-24130000D03*
X33020000Y-24130000D03*
X30480000Y-24130000D03*
D19*
X27940000Y-24130000D03*
D20*
X76350000Y-185420000D03*
X76350000Y-189920000D03*
X69850000Y-185420000D03*
X69850000Y-189920000D03*
X63650000Y-193040000D03*
X63650000Y-197540000D03*
X57150000Y-193040000D03*
X57150000Y-197540000D03*
X63650000Y-177800000D03*
X63650000Y-182300000D03*
X57150000Y-177800000D03*
X57150000Y-182300000D03*
X50950000Y-185420000D03*
X50950000Y-189920000D03*
X44450000Y-185420000D03*
X44450000Y-189920000D03*
D21*
X113030000Y-102870000D03*
D22*
X113030000Y-107950000D03*
D21*
X106680000Y-35560000D03*
D22*
X106680000Y-30480000D03*
D21*
X106680000Y-44450000D03*
D22*
X106680000Y-39370000D03*
D21*
X106680000Y-53340000D03*
D22*
X106680000Y-48260000D03*
D21*
X81280000Y-195580000D03*
D22*
X86360000Y-195580000D03*
D21*
X31750000Y-186690000D03*
D22*
X31750000Y-191770000D03*
D21*
X24130000Y-191770000D03*
D22*
X24130000Y-186690000D03*
D21*
X24130000Y-181610000D03*
D22*
X24130000Y-176530000D03*
D21*
X24130000Y-171450000D03*
D22*
X24130000Y-166370000D03*
D20*
X105430000Y-138430000D03*
D23*
X113030000Y-138430000D03*
D21*
X26670000Y-102870000D03*
D22*
X21590000Y-102870000D03*
D21*
X26670000Y-97790000D03*
D22*
X21590000Y-97790000D03*
D21*
X26670000Y-92710000D03*
D22*
X21590000Y-92710000D03*
D21*
X26670000Y-87630000D03*
D22*
X21590000Y-87630000D03*
D21*
X24130000Y-138430000D03*
D22*
X24130000Y-133350000D03*
D21*
X99060000Y-137160000D03*
D22*
X99060000Y-132080000D03*
D21*
X24130000Y-158750000D03*
D22*
X24130000Y-153670000D03*
D21*
X24130000Y-148590000D03*
D22*
X24130000Y-143510000D03*
D11*
X109220000Y-109220000D03*
X101600000Y-127000000D03*
X109220000Y-111760000D03*
X101600000Y-124460000D03*
X109220000Y-114300000D03*
X101600000Y-121920000D03*
X109220000Y-116840000D03*
X101600000Y-119380000D03*
X109220000Y-119380000D03*
X101600000Y-116840000D03*
X109220000Y-121920000D03*
X101600000Y-114300000D03*
X109220000Y-124460000D03*
X101600000Y-111760000D03*
X109220000Y-127000000D03*
D12*
X101600000Y-109220000D03*
D24*
X121920000Y-71120000D02*
X121920000Y-71364999D01*
X83820000Y-81280000D02*
X53340000Y-81280000D01*
X21119999Y-67780001D02*
X20320000Y-68580000D01*
X21445001Y-67454999D02*
X21119999Y-67780001D01*
X39514999Y-67454999D02*
X21445001Y-67454999D01*
X53340000Y-81280000D02*
X39514999Y-67454999D01*
X83820000Y-78740000D02*
X82550000Y-77470000D01*
X84341761Y-74747001D02*
X85090000Y-73998762D01*
X83664237Y-74747001D02*
X84341761Y-74747001D01*
X82550000Y-77470000D02*
X82550000Y-75861238D01*
X82550000Y-75861238D02*
X83664237Y-74747001D01*
X85090000Y-73321238D02*
X84158762Y-72390000D01*
X85090000Y-73998762D02*
X85090000Y-73321238D01*
X84158762Y-72390000D02*
X46990000Y-72390000D01*
X46990000Y-72390000D02*
X39370000Y-64770000D01*
X21590000Y-64770000D02*
X20320000Y-66040000D01*
X39370000Y-64770000D02*
X21590000Y-64770000D01*
X83820000Y-73660000D02*
X46990000Y-73660000D01*
X39370000Y-66040000D02*
X27940000Y-66040000D01*
X46990000Y-73660000D02*
X39370000Y-66040000D01*
X34290000Y-80010000D02*
X38100000Y-83820000D01*
X34290000Y-78740000D02*
X34290000Y-80010000D01*
X28480001Y-72534999D02*
X30875002Y-74930000D01*
X30875002Y-74930000D02*
X30875002Y-75325002D01*
X21734999Y-72534999D02*
X28480001Y-72534999D01*
X20320000Y-71120000D02*
X21734999Y-72534999D01*
X30875002Y-75325002D02*
X34290000Y-78740000D01*
X38100000Y-76200000D02*
X34290000Y-76200000D01*
X34290000Y-76200000D02*
X33020000Y-74930000D01*
X33020000Y-74930000D02*
X33020000Y-72390000D01*
X30624999Y-69994999D02*
X19194999Y-69994999D01*
X33020000Y-72390000D02*
X30624999Y-69994999D01*
X19194999Y-69994999D02*
X17780000Y-68580000D01*
X17780000Y-64990000D02*
X19270000Y-63500000D01*
X19270000Y-63500000D02*
X20320000Y-63500000D01*
X17780000Y-68580000D02*
X17780000Y-64990000D01*
X90170000Y-157480000D02*
X83820000Y-157480000D01*
X95250000Y-152400000D02*
X90170000Y-157480000D01*
X95250000Y-120650000D02*
X95250000Y-152400000D01*
X99060000Y-119380000D02*
X96520000Y-119380000D01*
X96520000Y-119380000D02*
X95250000Y-120650000D01*
X99060000Y-119380000D02*
X101600000Y-119380000D01*
X92710000Y-149860000D02*
X87630000Y-154940000D01*
X99060000Y-116840000D02*
X93980000Y-116840000D01*
X87630000Y-154940000D02*
X83820000Y-154940000D01*
X92710000Y-118110000D02*
X92710000Y-149860000D01*
X93980000Y-116840000D02*
X92710000Y-118110000D01*
X99060000Y-116840000D02*
X101600000Y-116840000D01*
X93980000Y-111760000D02*
X99060000Y-111760000D01*
X91440000Y-114300000D02*
X93980000Y-111760000D01*
X91440000Y-148590000D02*
X91440000Y-114300000D01*
X86360000Y-153670000D02*
X91440000Y-148590000D01*
X82732999Y-150947001D02*
X82732999Y-152921761D01*
X83820000Y-149860000D02*
X82732999Y-150947001D01*
X99060000Y-111760000D02*
X101600000Y-111760000D01*
X82732999Y-152921761D02*
X83298239Y-153487001D01*
X83298239Y-153487001D02*
X85090000Y-153670000D01*
X85090000Y-153670000D02*
X86360000Y-153670000D01*
X69850000Y-160020000D02*
X38100000Y-160020000D01*
X97790000Y-121920000D02*
X96520000Y-123190000D01*
X101600000Y-121920000D02*
X97790000Y-121920000D01*
X74930000Y-165100000D02*
X69850000Y-160020000D01*
X85090000Y-165100000D02*
X74930000Y-165100000D01*
X96520000Y-123190000D02*
X96520000Y-153670000D01*
X96520000Y-153670000D02*
X85090000Y-165100000D01*
X84341761Y-163647001D02*
X77287001Y-163647001D01*
X66040000Y-152400000D02*
X38100000Y-152400000D01*
X87630000Y-160020000D02*
X87630000Y-160358762D01*
X77287001Y-163647001D02*
X66040000Y-152400000D01*
X86360000Y-158750000D02*
X87630000Y-160020000D01*
X83481238Y-158750000D02*
X86360000Y-158750000D01*
X101850003Y-118254999D02*
X95105001Y-118254999D01*
X102870000Y-115570000D02*
X102870000Y-117235002D01*
X102870000Y-117235002D02*
X101850003Y-118254999D01*
X95105001Y-118254999D02*
X93980000Y-119380000D01*
X93980000Y-119380000D02*
X93980000Y-151130000D01*
X82732999Y-158001761D02*
X83481238Y-158750000D01*
X93980000Y-151130000D02*
X89082999Y-156027001D01*
X101600000Y-114300000D02*
X102870000Y-115570000D01*
X89082999Y-156027001D02*
X83664237Y-156027001D01*
X83664237Y-156027001D02*
X82732999Y-156958239D01*
X87630000Y-160358762D02*
X84341761Y-163647001D01*
X82732999Y-156958239D02*
X82732999Y-158001761D01*
X25400000Y-106680000D02*
X25400000Y-111760000D01*
X26670000Y-105410000D02*
X25400000Y-106680000D01*
X87630000Y-167640000D02*
X33020000Y-167640000D01*
X101600000Y-153670000D02*
X87630000Y-167640000D01*
X33020000Y-167640000D02*
X29210000Y-163830000D01*
X31750000Y-133350000D02*
X31750000Y-106680000D01*
X30480000Y-105410000D02*
X26670000Y-105410000D01*
X29210000Y-135890000D02*
X31750000Y-133350000D01*
X101600000Y-132080000D02*
X101600000Y-153670000D01*
X25400000Y-111760000D02*
X27940000Y-114300000D01*
X106680000Y-127000000D02*
X101600000Y-132080000D01*
X31750000Y-106680000D02*
X30480000Y-105410000D01*
X109220000Y-127000000D02*
X106680000Y-127000000D01*
X29210000Y-163830000D02*
X29210000Y-135890000D01*
X37338001Y-156718001D02*
X38100000Y-157480000D01*
X35560000Y-154940000D02*
X38100000Y-157480000D01*
X38100000Y-119380000D02*
X40640000Y-119380000D01*
X41910000Y-120650000D02*
X41910000Y-140970000D01*
X35560000Y-147320000D02*
X35560000Y-154940000D01*
X41910000Y-140970000D02*
X35560000Y-147320000D01*
X40640000Y-119380000D02*
X41910000Y-120650000D01*
X40822999Y-113212999D02*
X41910000Y-114300000D01*
X35560000Y-111760000D02*
X37012999Y-113212999D01*
X41910000Y-114300000D02*
X41910000Y-115570000D01*
X37012999Y-113212999D02*
X40822999Y-113212999D01*
X38100000Y-81280000D02*
X39370000Y-81280000D01*
X41910000Y-83820000D02*
X41910000Y-101600000D01*
X35560000Y-107950000D02*
X35560000Y-111760000D01*
X41910000Y-115570000D02*
X38100000Y-119380000D01*
X39370000Y-81280000D02*
X41910000Y-83820000D01*
X41910000Y-101600000D02*
X35560000Y-107950000D01*
X41910000Y-109220000D02*
X38100000Y-109220000D01*
X41910000Y-109220000D02*
X44450000Y-111760000D01*
X44450000Y-106680000D02*
X41910000Y-109220000D01*
X41910000Y-71120000D02*
X44450000Y-73660000D01*
X44450000Y-73660000D02*
X44450000Y-106680000D01*
X38100000Y-71120000D02*
X41910000Y-71120000D01*
X44450000Y-143510000D02*
X40640000Y-147320000D01*
X40640000Y-147320000D02*
X38100000Y-147320000D01*
X44450000Y-111760000D02*
X44450000Y-143510000D01*
X36830000Y-148590000D02*
X37338001Y-149098001D01*
X36830000Y-146981238D02*
X36830000Y-148590000D01*
X37578239Y-146232999D02*
X36830000Y-146981238D01*
X37338001Y-149098001D02*
X38100000Y-149860000D01*
X38100000Y-111760000D02*
X41910000Y-111760000D01*
X41910000Y-111760000D02*
X43180000Y-113030000D01*
X43180000Y-142240000D02*
X39370000Y-146050000D01*
X43180000Y-113030000D02*
X43180000Y-142240000D01*
X39370000Y-146050000D02*
X37578239Y-146232999D01*
X36830000Y-110490000D02*
X38100000Y-111760000D01*
X40640000Y-73660000D02*
X43180000Y-76200000D01*
X38100000Y-73660000D02*
X40640000Y-73660000D01*
X36830000Y-108881238D02*
X36830000Y-110490000D01*
X43180000Y-76200000D02*
X43180000Y-102531238D01*
X43180000Y-102531238D02*
X36830000Y-108881238D01*
X101600000Y-124460000D02*
X100330000Y-124460000D01*
X99060000Y-125730000D02*
X99060000Y-132080000D01*
X100330000Y-124460000D02*
X99060000Y-125730000D01*
X35560000Y-162560000D02*
X38100000Y-162560000D01*
X36830000Y-125730000D02*
X36830000Y-140970000D01*
X36830000Y-140970000D02*
X31750000Y-146050000D01*
X38100000Y-124460000D02*
X36830000Y-125730000D01*
X31750000Y-146050000D02*
X31750000Y-158750000D01*
X31750000Y-158750000D02*
X35560000Y-162560000D01*
X34290000Y-120650000D02*
X38100000Y-124460000D01*
X38100000Y-86360000D02*
X39370000Y-86360000D01*
X40640000Y-96520000D02*
X34290000Y-102870000D01*
X40640000Y-87630000D02*
X40640000Y-96520000D01*
X39370000Y-86360000D02*
X40640000Y-87630000D01*
X34290000Y-102870000D02*
X34290000Y-120650000D01*
X27940000Y-111760000D02*
X26670000Y-110490000D01*
X26670000Y-110490000D02*
X26670000Y-108824998D01*
X26670000Y-108824998D02*
X28814998Y-106680000D01*
X29210000Y-106680000D02*
X30480000Y-107950000D01*
X28814998Y-106680000D02*
X29210000Y-106680000D01*
X24130000Y-133350000D02*
X25400000Y-133350000D01*
X25400000Y-133350000D02*
X30480000Y-128270000D01*
X30480000Y-107950000D02*
X30480000Y-128270000D01*
X88900000Y-113030000D02*
X87630000Y-114300000D01*
X87630000Y-107950000D02*
X83481238Y-107950000D01*
X88900000Y-106680000D02*
X87630000Y-107950000D01*
X83481238Y-107950000D02*
X82732999Y-108698239D01*
X87630000Y-110490000D02*
X88900000Y-111760000D01*
X87630000Y-114300000D02*
X83820000Y-114300000D01*
X88900000Y-77470000D02*
X88900000Y-106680000D01*
X83820000Y-76200000D02*
X87630000Y-76200000D01*
X87630000Y-76200000D02*
X88900000Y-77470000D01*
X83481238Y-110490000D02*
X87630000Y-110490000D01*
X82732999Y-108698239D02*
X82732999Y-109741761D01*
X88900000Y-111760000D02*
X88900000Y-113030000D01*
X82732999Y-109741761D02*
X83481238Y-110490000D01*
X87630000Y-114300000D02*
X88900000Y-115570000D01*
X88900000Y-115570000D02*
X88900000Y-144780000D01*
X88900000Y-144780000D02*
X87630000Y-146050000D01*
X84907001Y-151312999D02*
X84581999Y-151638001D01*
X83664237Y-148772999D02*
X84341761Y-148772999D01*
X82732999Y-147841761D02*
X83664237Y-148772999D01*
X84581999Y-151638001D02*
X83820000Y-152400000D01*
X84907001Y-149338239D02*
X84907001Y-151312999D01*
X82732999Y-146798239D02*
X82732999Y-147841761D01*
X84341761Y-148772999D02*
X84907001Y-149338239D01*
X83481238Y-146050000D02*
X82732999Y-146798239D01*
X87630000Y-146050000D02*
X83481238Y-146050000D01*
X17780000Y-111760000D02*
X20320000Y-114300000D01*
X17780000Y-101600000D02*
X17780000Y-111760000D01*
X19050000Y-100330000D02*
X17780000Y-101600000D01*
X21590000Y-90170000D02*
X20320000Y-91440000D01*
X20320000Y-91440000D02*
X20320000Y-95250000D01*
X20320000Y-95250000D02*
X19050000Y-96520000D01*
X21590000Y-87630000D02*
X21590000Y-90170000D01*
X19050000Y-96520000D02*
X19050000Y-100330000D01*
X78740000Y-160020000D02*
X81280000Y-162560000D01*
X78740000Y-128270000D02*
X78740000Y-160020000D01*
X81280000Y-162560000D02*
X83820000Y-162560000D01*
X83820000Y-124460000D02*
X82550000Y-124460000D01*
X82550000Y-124460000D02*
X78740000Y-128270000D01*
X83820000Y-86360000D02*
X80010000Y-86360000D01*
X80010000Y-86360000D02*
X78740000Y-87630000D01*
X78740000Y-119380000D02*
X83820000Y-124460000D01*
X78740000Y-87630000D02*
X78740000Y-119380000D01*
X21590000Y-92710000D02*
X21590000Y-95250000D01*
X21590000Y-95250000D02*
X20320000Y-96520000D01*
X20320000Y-96520000D02*
X20320000Y-100330000D01*
X20320000Y-100330000D02*
X19050000Y-101600000D01*
X19050000Y-101600000D02*
X19050000Y-104140000D01*
X21590000Y-106680000D02*
X21590000Y-115570000D01*
X21590000Y-115570000D02*
X20320000Y-116840000D01*
X19050000Y-104140000D02*
X21590000Y-106680000D01*
X88900000Y-109220000D02*
X83820000Y-109220000D01*
X90170000Y-107950000D02*
X88900000Y-109220000D01*
X90170000Y-72390000D02*
X90170000Y-107950000D01*
X83820000Y-71120000D02*
X88900000Y-71120000D01*
X88900000Y-71120000D02*
X90170000Y-72390000D01*
X88900000Y-109220000D02*
X90170000Y-110490000D01*
X90170000Y-110490000D02*
X90170000Y-146050000D01*
X90170000Y-146050000D02*
X88900000Y-147320000D01*
X88900000Y-147320000D02*
X83820000Y-147320000D01*
X21590000Y-100330000D02*
X20320000Y-101600000D01*
X21590000Y-97790000D02*
X21590000Y-100330000D01*
X20320000Y-101600000D02*
X20320000Y-104140000D01*
X22860000Y-106680000D02*
X22860000Y-116840000D01*
X22860000Y-116840000D02*
X20320000Y-119380000D01*
X20320000Y-104140000D02*
X22860000Y-106680000D01*
X81280000Y-119380000D02*
X83820000Y-121920000D01*
X82550000Y-106680000D02*
X81280000Y-107950000D01*
X81280000Y-107950000D02*
X81280000Y-119380000D01*
X86360000Y-83820000D02*
X87630000Y-85090000D01*
X83820000Y-83820000D02*
X86360000Y-83820000D01*
X86360000Y-106680000D02*
X82550000Y-106680000D01*
X87630000Y-85090000D02*
X87630000Y-105410000D01*
X87630000Y-105410000D02*
X86360000Y-106680000D01*
X84907001Y-123007001D02*
X84581999Y-122681999D01*
X84581999Y-122681999D02*
X83820000Y-121920000D01*
X84907001Y-124981761D02*
X84907001Y-123007001D01*
X82282990Y-127605772D02*
X84907001Y-124981761D01*
X82282990Y-158482990D02*
X82282990Y-127605772D01*
X83820000Y-160020000D02*
X82282990Y-158482990D01*
X21590000Y-102870000D02*
X22860000Y-102870000D01*
X22860000Y-119380000D02*
X20320000Y-121920000D01*
X24130000Y-118110000D02*
X22860000Y-119380000D01*
X24130000Y-104140000D02*
X24130000Y-118110000D01*
X22860000Y-102870000D02*
X24130000Y-104140000D01*
X113030000Y-107950000D02*
X113030000Y-138430000D01*
X104140000Y-36830000D02*
X106680000Y-39370000D01*
X38100000Y-24130000D02*
X38100000Y-19050000D01*
X40640000Y-16510000D02*
X95250000Y-16510000D01*
X95250000Y-16510000D02*
X104140000Y-25400000D01*
X38100000Y-19050000D02*
X40640000Y-16510000D01*
X104140000Y-25400000D02*
X104140000Y-36830000D01*
X106680000Y-24130000D02*
X106680000Y-30480000D01*
X39090000Y-13970000D02*
X96520000Y-13970000D01*
X96520000Y-13970000D02*
X106680000Y-24130000D01*
X30480000Y-22580000D02*
X39090000Y-13970000D01*
X30480000Y-24130000D02*
X30480000Y-22580000D01*
X24130000Y-171450000D02*
X24130000Y-176530000D01*
X55880000Y-176530000D02*
X57150000Y-177800000D01*
X24130000Y-176530000D02*
X55880000Y-176530000D01*
X24130000Y-181610000D02*
X24130000Y-186690000D01*
X24130000Y-181610000D02*
X53340000Y-181610000D01*
X53340000Y-181610000D02*
X57150000Y-185420000D01*
X57150000Y-185420000D02*
X69850000Y-185420000D01*
X24130000Y-191770000D02*
X31750000Y-191770000D01*
X31750000Y-191770000D02*
X35560000Y-191770000D01*
X36830000Y-193040000D02*
X57150000Y-193040000D01*
X35560000Y-191770000D02*
X36830000Y-193040000D01*
X31750000Y-186690000D02*
X33020000Y-186690000D01*
X34290000Y-185420000D02*
X44450000Y-185420000D01*
X33020000Y-186690000D02*
X34290000Y-185420000D01*
X106680000Y-44450000D02*
X106680000Y-48260000D01*
X105654999Y-34534999D02*
X105980001Y-34860001D01*
X105980001Y-34860001D02*
X106680000Y-35560000D01*
X39370000Y-15240000D02*
X96520000Y-15240000D01*
X35560000Y-19050000D02*
X39370000Y-15240000D01*
X96520000Y-15240000D02*
X105654999Y-24374999D01*
X35560000Y-24130000D02*
X35560000Y-19050000D01*
X105654999Y-24374999D02*
X105654999Y-34534999D01*
X27940000Y-63500000D02*
X27940000Y-62230000D01*
X27940000Y-62230000D02*
X26670000Y-60960000D01*
X26670000Y-60960000D02*
X17780000Y-60960000D01*
X17780000Y-60960000D02*
X16510000Y-62230000D01*
X16510000Y-62230000D02*
X16510000Y-85090000D01*
X21590000Y-85090000D02*
X16510000Y-85090000D01*
X27940000Y-78740000D02*
X21590000Y-85090000D01*
X27940000Y-124460000D02*
X21590000Y-130810000D01*
X21590000Y-130810000D02*
X16510000Y-130810000D01*
X28739999Y-123660001D02*
X27940000Y-124460000D01*
X29065001Y-123334999D02*
X28739999Y-123660001D01*
X29065001Y-110345001D02*
X29065001Y-123334999D01*
X27940000Y-109220000D02*
X29065001Y-110345001D01*
X16510000Y-87630000D02*
X15240000Y-88900000D01*
X15240000Y-88900000D02*
X15240000Y-129540000D01*
X15240000Y-129540000D02*
X16510000Y-130810000D01*
X20320000Y-165100000D02*
X21590000Y-166370000D01*
X20320000Y-134620000D02*
X20320000Y-165100000D01*
X16510000Y-130810000D02*
X20320000Y-134620000D01*
X21590000Y-166370000D02*
X24130000Y-166370000D01*
X16510000Y-85090000D02*
X16510000Y-87630000D01*
X26725001Y-168965001D02*
X30535001Y-168965001D01*
X24130000Y-166370000D02*
X26725001Y-168965001D01*
X83820000Y-193040000D02*
X99060000Y-177800000D01*
X83820000Y-194557002D02*
X83820000Y-193040000D01*
X86112998Y-196850000D02*
X83820000Y-194557002D01*
X99060000Y-177800000D02*
X99060000Y-168910000D01*
X92710000Y-196850000D02*
X86112998Y-196850000D01*
X101600000Y-187960000D02*
X92710000Y-196850000D01*
X113030000Y-187960000D02*
X109220000Y-187960000D01*
X109220000Y-187960000D02*
X101600000Y-187960000D01*
X116840000Y-180340000D02*
X116840000Y-184150000D01*
X110710000Y-187960000D02*
X109220000Y-187960000D01*
X113030000Y-179070000D02*
X115570000Y-179070000D01*
X116840000Y-184150000D02*
X113030000Y-187960000D01*
X115570000Y-179070000D02*
X116840000Y-180340000D01*
X30590002Y-168910000D02*
X99060000Y-168910000D01*
X30535001Y-168965001D02*
X30590002Y-168910000D01*
X113538001Y-93218001D02*
X114300000Y-93980000D01*
X113030000Y-92710000D02*
X113538001Y-93218001D01*
X110490000Y-92710000D02*
X113030000Y-92710000D01*
X97607001Y-87447001D02*
X105227001Y-87447001D01*
X66040000Y-24130000D02*
X67310000Y-22860000D01*
X95250000Y-27940000D02*
X95250000Y-85090000D01*
X105227001Y-87447001D02*
X110490000Y-92710000D01*
X67310000Y-22860000D02*
X90170000Y-22860000D01*
X90170000Y-22860000D02*
X95250000Y-27940000D01*
X95250000Y-85090000D02*
X97607001Y-87447001D01*
X63500000Y-24130000D02*
X63500000Y-22580000D01*
X63500000Y-22580000D02*
X62059991Y-21139991D01*
X63500000Y-22580000D02*
X61240000Y-20320000D01*
X61240000Y-20320000D02*
X57150000Y-20320000D01*
X57150000Y-20320000D02*
X55880000Y-20320000D01*
X55880000Y-20320000D02*
X54610000Y-21590000D01*
X54610000Y-24130000D02*
X54610000Y-26670000D01*
X54610000Y-24130000D02*
X54610000Y-24992425D01*
X54610000Y-21590000D02*
X54610000Y-24130000D01*
X54610000Y-26670000D02*
X57150000Y-29210000D01*
X57150000Y-29210000D02*
X88900000Y-29210000D01*
X88900000Y-29210000D02*
X91440000Y-31750000D01*
X91440000Y-31750000D02*
X91440000Y-88900000D01*
X96520000Y-93980000D02*
X99060000Y-93980000D01*
X91440000Y-88900000D02*
X96520000Y-93980000D01*
X60960000Y-22580000D02*
X59970000Y-21590000D01*
X60960000Y-24130000D02*
X60960000Y-22580000D01*
X59970000Y-21590000D02*
X58420000Y-21590000D01*
X58420000Y-21590000D02*
X57150000Y-22860000D01*
X57150000Y-22860000D02*
X57150000Y-26670000D01*
X57150000Y-26670000D02*
X58420000Y-27940000D01*
X58420000Y-27940000D02*
X90170000Y-27940000D01*
X90170000Y-27940000D02*
X92710000Y-30480000D01*
X92710000Y-30480000D02*
X92710000Y-87630000D01*
X96520000Y-91440000D02*
X99060000Y-91440000D01*
X92710000Y-87630000D02*
X96520000Y-91440000D01*
X96520000Y-88900000D02*
X99060000Y-88900000D01*
X93980000Y-86360000D02*
X96520000Y-88900000D01*
X58420000Y-25400000D02*
X59690000Y-26670000D01*
X59690000Y-26670000D02*
X91440000Y-26670000D01*
X58420000Y-24130000D02*
X58420000Y-25400000D01*
X91440000Y-26670000D02*
X93980000Y-29210000D01*
X93980000Y-29210000D02*
X93980000Y-86360000D01*
X96520000Y-60960000D02*
X96520000Y-83820000D01*
X96520000Y-83820000D02*
X99060000Y-86360000D01*
X100330000Y-57150000D02*
X96520000Y-60960000D01*
X45720000Y-22860000D02*
X49530000Y-19050000D01*
X49530000Y-19050000D02*
X88900000Y-19050000D01*
X88900000Y-19050000D02*
X100330000Y-30480000D01*
X45720000Y-24130000D02*
X45720000Y-22860000D01*
X100330000Y-30480000D02*
X100330000Y-57150000D01*
X97790000Y-62230000D02*
X97790000Y-82550000D01*
X40640000Y-24130000D02*
X40640000Y-19050000D01*
X41910000Y-17780000D02*
X93980000Y-17780000D01*
X40640000Y-19050000D02*
X41910000Y-17780000D01*
X101600000Y-58420000D02*
X97790000Y-62230000D01*
X93980000Y-17780000D02*
X101600000Y-25400000D01*
X97790000Y-82550000D02*
X99060000Y-83820000D01*
X101600000Y-25400000D02*
X101600000Y-58420000D01*
X63650000Y-182300000D02*
X76890000Y-182300000D01*
X81280000Y-186690000D02*
X81280000Y-195580000D01*
X76890000Y-182300000D02*
X81280000Y-186690000D01*
X81280000Y-194850000D02*
X81280000Y-195580000D01*
X76350000Y-189920000D02*
X81280000Y-194850000D01*
X50950000Y-189920000D02*
X65460000Y-189920000D01*
X71120000Y-195580000D02*
X81280000Y-195580000D01*
X65460000Y-189920000D02*
X71120000Y-195580000D01*
X79320000Y-197540000D02*
X81280000Y-195580000D01*
X63650000Y-197540000D02*
X79320000Y-197540000D01*
X82550000Y-195580000D02*
X81280000Y-195580000D01*
X85090000Y-198120000D02*
X82550000Y-195580000D01*
X114300000Y-83820000D02*
X120650000Y-90170000D01*
X120650000Y-90170000D02*
X120650000Y-186690000D01*
X93980000Y-198120000D02*
X85090000Y-198120000D01*
X118110000Y-189230000D02*
X102870000Y-189230000D01*
X102870000Y-189230000D02*
X93980000Y-198120000D01*
X120650000Y-186690000D02*
X118110000Y-189230000D01*
X113729999Y-102170001D02*
X113030000Y-102870000D01*
X114300000Y-91440000D02*
X116840000Y-91440000D01*
X118110000Y-92710000D02*
X118110000Y-97790000D01*
X118110000Y-97790000D02*
X113729999Y-102170001D01*
X116840000Y-91440000D02*
X118110000Y-92710000D01*
X107950000Y-119380000D02*
X109220000Y-119380000D01*
X101600000Y-83820000D02*
X102870000Y-85090000D01*
X118292999Y-90352999D02*
X119380000Y-91440000D01*
X101600000Y-78740000D02*
X101600000Y-83820000D01*
X108881238Y-85090000D02*
X114144237Y-90352999D01*
X102870000Y-85090000D02*
X108881238Y-85090000D01*
X99060000Y-76200000D02*
X101600000Y-78740000D01*
X114144237Y-90352999D02*
X118292999Y-90352999D01*
X119380000Y-91440000D02*
X119380000Y-99060000D01*
X105410000Y-116840000D02*
X107950000Y-119380000D01*
X107950000Y-105410000D02*
X105410000Y-107950000D01*
X119380000Y-99060000D02*
X113030000Y-105410000D01*
X105410000Y-107950000D02*
X105410000Y-116840000D01*
X113030000Y-105410000D02*
X107950000Y-105410000D01*
X27940000Y-121920000D02*
X20320000Y-129540000D01*
X20320000Y-129540000D02*
X19050000Y-129540000D01*
X19050000Y-129540000D02*
X17780000Y-128270000D01*
X17780000Y-128270000D02*
X16510000Y-127000000D01*
X16510000Y-127000000D02*
X16510000Y-88900000D01*
X16510000Y-88900000D02*
X19050000Y-86360000D01*
X19050000Y-86360000D02*
X26917002Y-86360000D01*
X26917002Y-86360000D02*
X27940000Y-86360000D01*
X29210000Y-77470000D02*
X29210000Y-87630000D01*
X27940000Y-86360000D02*
X29210000Y-87630000D01*
X27940000Y-76200000D02*
X29210000Y-77470000D01*
X105410000Y-121920000D02*
X109220000Y-121920000D01*
X104140000Y-120650000D02*
X105410000Y-121920000D01*
X33020000Y-91440000D02*
X29210000Y-87630000D01*
X33020000Y-142240000D02*
X33020000Y-91440000D01*
X30480000Y-161290000D02*
X30480000Y-144780000D01*
X104140000Y-120650000D02*
X104140000Y-128270000D01*
X30480000Y-144780000D02*
X33020000Y-142240000D01*
X100330000Y-152400000D02*
X86360000Y-166370000D01*
X35560000Y-166370000D02*
X30480000Y-161290000D01*
X86360000Y-166370000D02*
X35560000Y-166370000D01*
X104140000Y-128270000D02*
X100330000Y-132080000D01*
X100330000Y-132080000D02*
X100330000Y-152400000D01*
X100330000Y-85090000D02*
X101600000Y-86360000D01*
X106680000Y-86360000D02*
X109220000Y-88900000D01*
X100330000Y-80010000D02*
X100330000Y-85090000D01*
X101600000Y-86360000D02*
X106680000Y-86360000D01*
X99060000Y-78740000D02*
X100330000Y-80010000D01*
X104140000Y-100330000D02*
X104140000Y-120650000D01*
X105410000Y-99060000D02*
X104140000Y-100330000D01*
X115570000Y-92710000D02*
X116840000Y-93980000D01*
X109220000Y-88900000D02*
X110151238Y-88900000D01*
X110151238Y-88900000D02*
X113961238Y-92710000D01*
X113961238Y-92710000D02*
X115570000Y-92710000D01*
X116840000Y-95250000D02*
X113030000Y-99060000D01*
X113030000Y-99060000D02*
X105410000Y-99060000D01*
X116840000Y-93980000D02*
X116840000Y-95250000D01*
X27940000Y-116840000D02*
X26670000Y-116840000D01*
X26670000Y-116840000D02*
X24130000Y-119380000D01*
X24130000Y-123190000D02*
X20320000Y-127000000D01*
X24130000Y-119380000D02*
X24130000Y-123190000D01*
X27940000Y-24130000D02*
X27940000Y-25680000D01*
X27940000Y-25680000D02*
X28930000Y-26670000D01*
X43180000Y-25680000D02*
X42216439Y-26643561D01*
X43180000Y-24130000D02*
X43180000Y-25680000D01*
X42216439Y-26643561D02*
X34316439Y-26643561D01*
X31750000Y-26670000D02*
X28930000Y-26670000D01*
X33020000Y-24130000D02*
X33020000Y-26670000D01*
X31750000Y-26670000D02*
X33020000Y-26670000D01*
X33020000Y-26670000D02*
X35560000Y-26670000D01*
X113030000Y-181570000D02*
X105410000Y-181570000D01*
X91400000Y-195580000D02*
X105410000Y-181570000D01*
X86360000Y-195580000D02*
X91400000Y-195580000D01*
X105410000Y-181570000D02*
X102830000Y-181570000D01*
X102830000Y-181570000D02*
X101600000Y-180340000D01*
X108740000Y-173990000D02*
X101600000Y-173990000D01*
X112550000Y-170180000D02*
X108740000Y-173990000D01*
X114300000Y-170180000D02*
X112550000Y-170180000D01*
X101600000Y-180340000D02*
X101600000Y-173990000D01*
X101600000Y-173990000D02*
X101600000Y-168910000D01*
X101600000Y-168862500D02*
X101600000Y-168910000D01*
X102802500Y-167660000D02*
X101600000Y-168862500D01*
X105430000Y-165080000D02*
X102850000Y-167660000D01*
X102850000Y-167660000D02*
X102802500Y-167660000D01*
X105430000Y-138430000D02*
X105430000Y-165080000D01*
X106460000Y-179070000D02*
X111540000Y-173990000D01*
X105410000Y-179070000D02*
X106460000Y-179070000D01*
X111540000Y-173990000D02*
X115570000Y-173990000D01*
X115570000Y-173990000D02*
X118110000Y-171450000D01*
X118110000Y-168910000D02*
X114300000Y-165100000D01*
X118110000Y-171450000D02*
X118110000Y-168910000D01*
X105410000Y-168910000D02*
X104140000Y-168910000D01*
X114300000Y-165100000D02*
X109220000Y-165100000D01*
X109220000Y-165100000D02*
X105410000Y-168910000D01*
M02*
