G04 #@! TF.GenerationSoftware,KiCad,Pcbnew,5.1.5-52549c5~84~ubuntu19.10.1*
G04 #@! TF.CreationDate,2020-02-09T00:12:04+01:00*
G04 #@! TF.ProjectId,tetris-board,74657472-6973-42d6-926f-6172642e6b69,rev?*
G04 #@! TF.SameCoordinates,Original*
G04 #@! TF.FileFunction,Copper,L2,Bot*
G04 #@! TF.FilePolarity,Positive*
%FSLAX46Y46*%
G04 Gerber Fmt 4.6, Leading zero omitted, Abs format (unit mm)*
G04 Created by KiCad (PCBNEW 5.1.5-52549c5~84~ubuntu19.10.1) date 2020-02-09 00:12:04*
%MOMM*%
%LPD*%
G04 APERTURE LIST*
%ADD10C,1.524000*%
%ADD11O,1.600000X1.600000*%
%ADD12R,1.600000X1.600000*%
%ADD13C,3.000000*%
%ADD14R,3.000000X3.000000*%
%ADD15O,1.905000X2.000000*%
%ADD16R,1.905000X2.000000*%
%ADD17C,1.600000*%
%ADD18O,1.800000X2.600000*%
%ADD19R,1.800000X2.600000*%
%ADD20C,2.000000*%
%ADD21O,1.400000X1.400000*%
%ADD22C,1.400000*%
%ADD23R,2.000000X2.000000*%
%ADD24C,0.250000*%
G04 APERTURE END LIST*
D10*
X111760000Y-74930000D03*
X111760000Y-77470000D03*
X99060000Y-66040000D03*
X99060000Y-68580000D03*
X99060000Y-71120000D03*
X99060000Y-73660000D03*
X99060000Y-76200000D03*
X99060000Y-78740000D03*
X99060000Y-81280000D03*
X99060000Y-83820000D03*
X99060000Y-86360000D03*
X99060000Y-88900000D03*
X99060000Y-91440000D03*
X99060000Y-93980000D03*
X106680000Y-93980000D03*
X109220000Y-93980000D03*
X111760000Y-93980000D03*
X114300000Y-66040000D03*
X114300000Y-68580000D03*
X114300000Y-71120000D03*
X114300000Y-73660000D03*
X114300000Y-76200000D03*
X114300000Y-78740000D03*
X114300000Y-81280000D03*
X114300000Y-83820000D03*
X114300000Y-86360000D03*
X114300000Y-88900000D03*
X114300000Y-91440000D03*
X114300000Y-93980000D03*
X83820000Y-162560000D03*
X83820000Y-160020000D03*
X83820000Y-157480000D03*
X83820000Y-154940000D03*
X83820000Y-152400000D03*
X83820000Y-149860000D03*
X83820000Y-147320000D03*
X38100000Y-162560000D03*
X38100000Y-160020000D03*
X38100000Y-157480000D03*
X38100000Y-154940000D03*
X38100000Y-152400000D03*
X38100000Y-149860000D03*
X38100000Y-147320000D03*
X83820000Y-124460000D03*
X83820000Y-121920000D03*
X83820000Y-119380000D03*
X83820000Y-116840000D03*
X83820000Y-114300000D03*
X83820000Y-111760000D03*
X83820000Y-109220000D03*
X38100000Y-124460000D03*
X38100000Y-121920000D03*
X38100000Y-119380000D03*
X38100000Y-116840000D03*
X38100000Y-114300000D03*
X38100000Y-111760000D03*
X38100000Y-109220000D03*
D11*
X27940000Y-63500000D03*
X20320000Y-81280000D03*
X27940000Y-66040000D03*
X20320000Y-78740000D03*
X27940000Y-68580000D03*
X20320000Y-76200000D03*
X27940000Y-71120000D03*
X20320000Y-73660000D03*
X27940000Y-73660000D03*
X20320000Y-71120000D03*
X27940000Y-76200000D03*
X20320000Y-68580000D03*
X27940000Y-78740000D03*
X20320000Y-66040000D03*
X27940000Y-81280000D03*
D12*
X20320000Y-63500000D03*
D10*
X83820000Y-86360000D03*
X83820000Y-83820000D03*
X83820000Y-81280000D03*
X83820000Y-78740000D03*
X83820000Y-76200000D03*
X83820000Y-73660000D03*
X83820000Y-71120000D03*
X38100000Y-86360000D03*
X38100000Y-83820000D03*
X38100000Y-81280000D03*
X38100000Y-78740000D03*
X38100000Y-76200000D03*
X38100000Y-73660000D03*
X38100000Y-71120000D03*
D11*
X27940000Y-109220000D03*
X20320000Y-127000000D03*
X27940000Y-111760000D03*
X20320000Y-124460000D03*
X27940000Y-114300000D03*
X20320000Y-121920000D03*
X27940000Y-116840000D03*
X20320000Y-119380000D03*
X27940000Y-119380000D03*
X20320000Y-116840000D03*
X27940000Y-121920000D03*
X20320000Y-114300000D03*
X27940000Y-124460000D03*
X20320000Y-111760000D03*
X27940000Y-127000000D03*
D12*
X20320000Y-109220000D03*
D13*
X114300000Y-165100000D03*
D14*
X114300000Y-170180000D03*
D15*
X99060000Y-168910000D03*
X101600000Y-168910000D03*
D16*
X104140000Y-168910000D03*
D17*
X113030000Y-181570000D03*
D12*
X113030000Y-179070000D03*
D17*
X105410000Y-181570000D03*
D12*
X105410000Y-179070000D03*
D13*
X97440000Y-24130000D03*
X97439480Y-55130700D03*
X22440900Y-55130700D03*
X22440900Y-24130000D03*
D18*
X66040000Y-24130000D03*
X63500000Y-24130000D03*
X60960000Y-24130000D03*
X58420000Y-24130000D03*
X55880000Y-24130000D03*
X53340000Y-24130000D03*
X50800000Y-24130000D03*
X48260000Y-24130000D03*
X45720000Y-24130000D03*
X43180000Y-24130000D03*
X40640000Y-24130000D03*
X38100000Y-24130000D03*
X35560000Y-24130000D03*
X33020000Y-24130000D03*
X30480000Y-24130000D03*
D19*
X27940000Y-24130000D03*
D20*
X76350000Y-185420000D03*
X76350000Y-189920000D03*
X69850000Y-185420000D03*
X69850000Y-189920000D03*
X63650000Y-193040000D03*
X63650000Y-197540000D03*
X57150000Y-193040000D03*
X57150000Y-197540000D03*
X63650000Y-177800000D03*
X63650000Y-182300000D03*
X57150000Y-177800000D03*
X57150000Y-182300000D03*
X50950000Y-185420000D03*
X50950000Y-189920000D03*
X44450000Y-185420000D03*
X44450000Y-189920000D03*
D21*
X113030000Y-102870000D03*
D22*
X113030000Y-107950000D03*
D21*
X106680000Y-35560000D03*
D22*
X106680000Y-30480000D03*
D21*
X106680000Y-44450000D03*
D22*
X106680000Y-39370000D03*
D21*
X106680000Y-53340000D03*
D22*
X106680000Y-48260000D03*
D21*
X81280000Y-195580000D03*
D22*
X86360000Y-195580000D03*
D21*
X31750000Y-186690000D03*
D22*
X31750000Y-191770000D03*
D21*
X24130000Y-191770000D03*
D22*
X24130000Y-186690000D03*
D21*
X24130000Y-181610000D03*
D22*
X24130000Y-176530000D03*
D21*
X24130000Y-171450000D03*
D22*
X24130000Y-166370000D03*
D20*
X105430000Y-138430000D03*
D23*
X113030000Y-138430000D03*
D21*
X26670000Y-102870000D03*
D22*
X21590000Y-102870000D03*
D21*
X26670000Y-97790000D03*
D22*
X21590000Y-97790000D03*
D21*
X26670000Y-92710000D03*
D22*
X21590000Y-92710000D03*
D21*
X26670000Y-87630000D03*
D22*
X21590000Y-87630000D03*
D21*
X24130000Y-138430000D03*
D22*
X24130000Y-133350000D03*
D21*
X99060000Y-137160000D03*
D22*
X99060000Y-132080000D03*
D21*
X24130000Y-158750000D03*
D22*
X24130000Y-153670000D03*
D21*
X24130000Y-148590000D03*
D22*
X24130000Y-143510000D03*
D11*
X109220000Y-109220000D03*
X101600000Y-127000000D03*
X109220000Y-111760000D03*
X101600000Y-124460000D03*
X109220000Y-114300000D03*
X101600000Y-121920000D03*
X109220000Y-116840000D03*
X101600000Y-119380000D03*
X109220000Y-119380000D03*
X101600000Y-116840000D03*
X109220000Y-121920000D03*
X101600000Y-114300000D03*
X109220000Y-124460000D03*
X101600000Y-111760000D03*
X109220000Y-127000000D03*
D12*
X101600000Y-109220000D03*
D24*
X83820000Y-119380000D02*
X86360000Y-119380000D01*
X86360000Y-119380000D02*
X99060000Y-106680000D01*
X99060000Y-106680000D02*
X102870000Y-106680000D01*
X107950000Y-111760000D02*
X109220000Y-111760000D01*
X102870000Y-106680000D02*
X107950000Y-111760000D01*
X78740000Y-111760000D02*
X83820000Y-116840000D01*
X19050000Y-80010000D02*
X19050000Y-104140000D01*
X19050000Y-104140000D02*
X20320000Y-105410000D01*
X20320000Y-78740000D02*
X19050000Y-80010000D01*
X44450000Y-111760000D02*
X78740000Y-111760000D01*
X20320000Y-105410000D02*
X38100000Y-105410000D01*
X38100000Y-105410000D02*
X44450000Y-111760000D01*
X88900000Y-113030000D02*
X87630000Y-111760000D01*
X88900000Y-115570000D02*
X88900000Y-113030000D01*
X19779999Y-77614999D02*
X17780000Y-79614998D01*
X20570003Y-77614999D02*
X19779999Y-77614999D01*
X21590000Y-76595002D02*
X20570003Y-77614999D01*
X81280000Y-118110000D02*
X86360000Y-118110000D01*
X19050000Y-106680000D02*
X30480000Y-106680000D01*
X20320000Y-73660000D02*
X21590000Y-74930000D01*
X17780000Y-105410000D02*
X19050000Y-106680000D01*
X17780000Y-79614998D02*
X17780000Y-105410000D01*
X86360000Y-118110000D02*
X88900000Y-115570000D01*
X76200000Y-113030000D02*
X81280000Y-118110000D01*
X21590000Y-74930000D02*
X21590000Y-76595002D01*
X30480000Y-106680000D02*
X36830000Y-113030000D01*
X87630000Y-111760000D02*
X83820000Y-111760000D01*
X36830000Y-113030000D02*
X76200000Y-113030000D01*
X100550000Y-109220000D02*
X101600000Y-109220000D01*
X38100000Y-121920000D02*
X62230000Y-121920000D01*
X67310000Y-127000000D02*
X91440000Y-127000000D01*
X62230000Y-121920000D02*
X67310000Y-127000000D01*
X94090000Y-115680000D02*
X100550000Y-109220000D01*
X91440000Y-127000000D02*
X94090000Y-124350000D01*
X94090000Y-124350000D02*
X94090000Y-115680000D01*
X29210000Y-107950000D02*
X35560000Y-114300000D01*
X20320000Y-76200000D02*
X19050000Y-76200000D01*
X16510000Y-78740000D02*
X16510000Y-106680000D01*
X16510000Y-106680000D02*
X17780000Y-107950000D01*
X35560000Y-114300000D02*
X38100000Y-114300000D01*
X19050000Y-76200000D02*
X16510000Y-78740000D01*
X17780000Y-107950000D02*
X29210000Y-107950000D01*
X27940000Y-81280000D02*
X24130000Y-85090000D01*
X24130000Y-85090000D02*
X24130000Y-102870000D01*
X25155001Y-103895001D02*
X103895001Y-103895001D01*
X24130000Y-102870000D02*
X25155001Y-103895001D01*
X106680000Y-108345002D02*
X108824998Y-110490000D01*
X103895001Y-103895001D02*
X106680000Y-106680000D01*
X106680000Y-106680000D02*
X106680000Y-108345002D01*
X110019999Y-113500001D02*
X109220000Y-114300000D01*
X110345001Y-113174999D02*
X110019999Y-113500001D01*
X110345001Y-111219999D02*
X110345001Y-113174999D01*
X109615002Y-110490000D02*
X110345001Y-111219999D01*
X108824998Y-110490000D02*
X109615002Y-110490000D01*
X24130000Y-148590000D02*
X29210000Y-148590000D01*
X33020000Y-152400000D02*
X33020000Y-156210000D01*
X29210000Y-148590000D02*
X33020000Y-152400000D01*
X34290000Y-157480000D02*
X38100000Y-157480000D01*
X33020000Y-156210000D02*
X34290000Y-157480000D01*
X24130000Y-143510000D02*
X23104999Y-142484999D01*
X25400000Y-134620000D02*
X25400000Y-113030000D01*
X24130000Y-111760000D02*
X20320000Y-111760000D01*
X23104999Y-142484999D02*
X23104999Y-136915001D01*
X23104999Y-136915001D02*
X25400000Y-134620000D01*
X25400000Y-113030000D02*
X24130000Y-111760000D01*
X38438762Y-158750000D02*
X39187001Y-158001761D01*
X24130000Y-158750000D02*
X38438762Y-158750000D01*
X37944237Y-153852999D02*
X36830000Y-152738762D01*
X39187001Y-153852999D02*
X37944237Y-153852999D01*
X39187001Y-158001761D02*
X39187001Y-153852999D01*
X36830000Y-148590000D02*
X38100000Y-147320000D01*
X36830000Y-152738762D02*
X36830000Y-148590000D01*
X24130000Y-152400000D02*
X24130000Y-153670000D01*
X21590000Y-149860000D02*
X24130000Y-152400000D01*
X21590000Y-133350000D02*
X21590000Y-149860000D01*
X24130000Y-116444998D02*
X24130000Y-130810000D01*
X20570003Y-112885001D02*
X24130000Y-116444998D01*
X19270000Y-109220000D02*
X19050000Y-109440000D01*
X19050000Y-109440000D02*
X19050000Y-112155002D01*
X20320000Y-109220000D02*
X19270000Y-109220000D01*
X19050000Y-112155002D02*
X19779999Y-112885001D01*
X24130000Y-130810000D02*
X21590000Y-133350000D01*
X19779999Y-112885001D02*
X20570003Y-112885001D01*
X99060000Y-137160000D02*
X53340000Y-137160000D01*
X40640000Y-149860000D02*
X38100000Y-149860000D01*
X53340000Y-137160000D02*
X40640000Y-149860000D01*
X33020000Y-129540000D02*
X33020000Y-127000000D01*
X24130000Y-138430000D02*
X33020000Y-129540000D01*
X35560000Y-124460000D02*
X38100000Y-124460000D01*
X33020000Y-127000000D02*
X35560000Y-124460000D01*
X72390000Y-76200000D02*
X83820000Y-76200000D01*
X26670000Y-87630000D02*
X60960000Y-87630000D01*
X60960000Y-87630000D02*
X72390000Y-76200000D01*
X26670000Y-92710000D02*
X29210000Y-92710000D01*
X29210000Y-92710000D02*
X33020000Y-88900000D01*
X33020000Y-88900000D02*
X62230000Y-88900000D01*
X62230000Y-88900000D02*
X73660000Y-77470000D01*
X73660000Y-77470000D02*
X86360000Y-77470000D01*
X87630000Y-78740000D02*
X87630000Y-82550000D01*
X87630000Y-82550000D02*
X83820000Y-86360000D01*
X86360000Y-77470000D02*
X87630000Y-78740000D01*
X26670000Y-97790000D02*
X25400000Y-96520000D01*
X25400000Y-87382998D02*
X26422998Y-86360000D01*
X25400000Y-96520000D02*
X25400000Y-87382998D01*
X26422998Y-86360000D02*
X35560000Y-86360000D01*
X35560000Y-86360000D02*
X36830000Y-85090000D01*
X36830000Y-85090000D02*
X60960000Y-85090000D01*
X74930000Y-71120000D02*
X83820000Y-71120000D01*
X60960000Y-85090000D02*
X74930000Y-71120000D01*
X26670000Y-102870000D02*
X29210000Y-100330000D01*
X29210000Y-100330000D02*
X29210000Y-95250000D01*
X29210000Y-95250000D02*
X34290000Y-90170000D01*
X77470000Y-90170000D02*
X83820000Y-83820000D01*
X34290000Y-90170000D02*
X77470000Y-90170000D01*
X114300000Y-73660000D02*
X116840000Y-76200000D01*
X116840000Y-102870000D02*
X116840000Y-116840000D01*
X116840000Y-154940000D02*
X113030000Y-158750000D01*
X107970000Y-158750000D02*
X99060000Y-167660000D01*
X99060000Y-167660000D02*
X99060000Y-168910000D01*
X113030000Y-158750000D02*
X107970000Y-158750000D01*
X106680000Y-35560000D02*
X116840000Y-45720000D01*
X116840000Y-45720000D02*
X116840000Y-78740000D01*
X116840000Y-76200000D02*
X116840000Y-78740000D01*
X116840000Y-78740000D02*
X116840000Y-102870000D01*
X113030000Y-123190000D02*
X111760000Y-124460000D01*
X111760000Y-124460000D02*
X109220000Y-124460000D01*
X113030000Y-110490000D02*
X113030000Y-123190000D01*
X109220000Y-109220000D02*
X111760000Y-109220000D01*
X111760000Y-109220000D02*
X113030000Y-110490000D01*
X109220000Y-124460000D02*
X110490000Y-124460000D01*
X116840000Y-116840000D02*
X116840000Y-130810000D01*
X110490000Y-124460000D02*
X116840000Y-130810000D01*
X116840000Y-130810000D02*
X116840000Y-154940000D01*
X86360000Y-68580000D02*
X99060000Y-81280000D01*
X27940000Y-68580000D02*
X86360000Y-68580000D01*
X100668762Y-77808762D02*
X99060000Y-76200000D01*
X99398762Y-82550000D02*
X100668762Y-81280000D01*
X33020000Y-73660000D02*
X36647001Y-70032999D01*
X27940000Y-73660000D02*
X33020000Y-73660000D01*
X36647001Y-70032999D02*
X85272999Y-70032999D01*
X85272999Y-70032999D02*
X97790000Y-82550000D01*
X100668762Y-81280000D02*
X100668762Y-77808762D01*
X97790000Y-82550000D02*
X99398762Y-82550000D01*
X106680000Y-112114998D02*
X106680000Y-116840000D01*
X102515002Y-107950000D02*
X106680000Y-112114998D01*
X35560000Y-119380000D02*
X36647001Y-120467001D01*
X106680000Y-116840000D02*
X109220000Y-119380000D01*
X87812999Y-120467001D02*
X100330000Y-107950000D01*
X27940000Y-119380000D02*
X35560000Y-119380000D01*
X36647001Y-120467001D02*
X87812999Y-120467001D01*
X100330000Y-107950000D02*
X102515002Y-107950000D01*
X20320000Y-81280000D02*
X24130000Y-77470000D01*
X24130000Y-74930000D02*
X27940000Y-71120000D01*
X24130000Y-77470000D02*
X24130000Y-74930000D01*
X21734999Y-72534999D02*
X17635001Y-72534999D01*
X24130000Y-74930000D02*
X21734999Y-72534999D01*
X17635001Y-72534999D02*
X15240000Y-74930000D01*
X15240000Y-121920000D02*
X20320000Y-127000000D01*
X15240000Y-74930000D02*
X15240000Y-121920000D01*
X101600000Y-170160000D02*
X101600000Y-168910000D01*
X99040000Y-172720000D02*
X101600000Y-170160000D01*
X92765010Y-170235010D02*
X95250000Y-172720000D01*
X95250000Y-172720000D02*
X99040000Y-172720000D01*
X31567001Y-163647001D02*
X38100000Y-170180000D01*
X43180000Y-170180000D02*
X92765010Y-170235010D01*
X38100000Y-170180000D02*
X43180000Y-170180000D01*
X25217001Y-163647001D02*
X20320000Y-158750000D01*
X20320000Y-127000000D02*
X20320000Y-158750000D01*
X25217001Y-163647001D02*
X31567001Y-163647001D01*
X26790000Y-24130000D02*
X27940000Y-24130000D01*
X15240000Y-35680000D02*
X26790000Y-24130000D01*
X15240000Y-74930000D02*
X15240000Y-35680000D01*
X105980001Y-52640001D02*
X106680000Y-53340000D01*
X43180000Y-25680000D02*
X70140001Y-52640001D01*
X70140001Y-52640001D02*
X105980001Y-52640001D01*
X43180000Y-24130000D02*
X43180000Y-25680000D01*
X106680000Y-53340000D02*
X106680000Y-93980000D01*
X101600000Y-134600000D02*
X105430000Y-138430000D01*
X101600000Y-127000000D02*
X101600000Y-134600000D01*
X105410000Y-123190000D02*
X101600000Y-127000000D01*
X105410000Y-121920000D02*
X105410000Y-123190000D01*
X109220000Y-116840000D02*
X110490000Y-118110000D01*
X110490000Y-118110000D02*
X110490000Y-119775002D01*
X110490000Y-119775002D02*
X109615002Y-120650000D01*
X109615002Y-120650000D02*
X106680000Y-120650000D01*
X106680000Y-120650000D02*
X105410000Y-121920000D01*
M02*
