G04 #@! TF.GenerationSoftware,KiCad,Pcbnew,5.1.5-52549c5~84~ubuntu19.10.1*
G04 #@! TF.CreationDate,2020-02-09T00:12:04+01:00*
G04 #@! TF.ProjectId,tetris-board,74657472-6973-42d6-926f-6172642e6b69,rev?*
G04 #@! TF.SameCoordinates,Original*
G04 #@! TF.FileFunction,Legend,Top*
G04 #@! TF.FilePolarity,Positive*
%FSLAX46Y46*%
G04 Gerber Fmt 4.6, Leading zero omitted, Abs format (unit mm)*
G04 Created by KiCad (PCBNEW 5.1.5-52549c5~84~ubuntu19.10.1) date 2020-02-09 00:12:04*
%MOMM*%
%LPD*%
G04 APERTURE LIST*
%ADD10C,0.120000*%
%ADD11C,0.150000*%
G04 APERTURE END LIST*
D10*
X97790000Y-62230000D02*
X97790000Y-95250000D01*
X115570000Y-62230000D02*
X115570000Y-95250000D01*
X115570000Y-62230000D02*
X97790000Y-62230000D01*
X97790000Y-95250000D02*
X115570000Y-95250000D01*
X30480000Y-173990000D02*
X30480000Y-135890000D01*
X91440000Y-173990000D02*
X30480000Y-173990000D01*
X91440000Y-135890000D02*
X91440000Y-173990000D01*
X30480000Y-135890000D02*
X91440000Y-135890000D01*
X30480000Y-135890000D02*
X30480000Y-97790000D01*
X91440000Y-135890000D02*
X30480000Y-135890000D01*
X91440000Y-97790000D02*
X91440000Y-135890000D01*
X30480000Y-97790000D02*
X91440000Y-97790000D01*
X26780000Y-62170000D02*
X25130000Y-62170000D01*
X26780000Y-82610000D02*
X26780000Y-62170000D01*
X21480000Y-82610000D02*
X26780000Y-82610000D01*
X21480000Y-62170000D02*
X21480000Y-82610000D01*
X23130000Y-62170000D02*
X21480000Y-62170000D01*
X25130000Y-62170000D02*
G75*
G02X23130000Y-62170000I-1000000J0D01*
G01*
X30480000Y-97790000D02*
X30480000Y-59690000D01*
X91440000Y-97790000D02*
X30480000Y-97790000D01*
X91440000Y-59690000D02*
X91440000Y-97790000D01*
X30480000Y-59690000D02*
X91440000Y-59690000D01*
X26780000Y-107890000D02*
X25130000Y-107890000D01*
X26780000Y-128330000D02*
X26780000Y-107890000D01*
X21480000Y-128330000D02*
X26780000Y-128330000D01*
X21480000Y-107890000D02*
X21480000Y-128330000D01*
X23130000Y-107890000D02*
X21480000Y-107890000D01*
X25130000Y-107890000D02*
G75*
G02X23130000Y-107890000I-1000000J0D01*
G01*
X118110000Y-172720000D02*
X118110000Y-162560000D01*
X110490000Y-172720000D02*
X118110000Y-172720000D01*
X110490000Y-162560000D02*
X110490000Y-172720000D01*
X118110000Y-162560000D02*
X110490000Y-162560000D01*
X116840000Y-162560000D02*
X116840000Y-172720000D01*
X99749000Y-172180000D02*
X99749000Y-170670000D01*
X103450000Y-172180000D02*
X103450000Y-170670000D01*
X106720000Y-170670000D02*
X96480000Y-170670000D01*
X96480000Y-172180000D02*
X96480000Y-167539000D01*
X106720000Y-172180000D02*
X106720000Y-167539000D01*
X106720000Y-167539000D02*
X96480000Y-167539000D01*
X106720000Y-172180000D02*
X96480000Y-172180000D01*
X114755000Y-177765225D02*
X114255000Y-177765225D01*
X114505000Y-177515225D02*
X114505000Y-178015225D01*
X113314000Y-182921000D02*
X112746000Y-182921000D01*
X113548000Y-182881000D02*
X112512000Y-182881000D01*
X113707000Y-182841000D02*
X112353000Y-182841000D01*
X113835000Y-182801000D02*
X112225000Y-182801000D01*
X113945000Y-182761000D02*
X112115000Y-182761000D01*
X114041000Y-182721000D02*
X112019000Y-182721000D01*
X114128000Y-182681000D02*
X111932000Y-182681000D01*
X114208000Y-182641000D02*
X111852000Y-182641000D01*
X111990000Y-182601000D02*
X111779000Y-182601000D01*
X114281000Y-182601000D02*
X114070000Y-182601000D01*
X111990000Y-182561000D02*
X111711000Y-182561000D01*
X114349000Y-182561000D02*
X114070000Y-182561000D01*
X111990000Y-182521000D02*
X111647000Y-182521000D01*
X114413000Y-182521000D02*
X114070000Y-182521000D01*
X111990000Y-182481000D02*
X111587000Y-182481000D01*
X114473000Y-182481000D02*
X114070000Y-182481000D01*
X111990000Y-182441000D02*
X111530000Y-182441000D01*
X114530000Y-182441000D02*
X114070000Y-182441000D01*
X111990000Y-182401000D02*
X111476000Y-182401000D01*
X114584000Y-182401000D02*
X114070000Y-182401000D01*
X111990000Y-182361000D02*
X111425000Y-182361000D01*
X114635000Y-182361000D02*
X114070000Y-182361000D01*
X111990000Y-182321000D02*
X111377000Y-182321000D01*
X114683000Y-182321000D02*
X114070000Y-182321000D01*
X111990000Y-182281000D02*
X111331000Y-182281000D01*
X114729000Y-182281000D02*
X114070000Y-182281000D01*
X111990000Y-182241000D02*
X111287000Y-182241000D01*
X114773000Y-182241000D02*
X114070000Y-182241000D01*
X111990000Y-182201000D02*
X111245000Y-182201000D01*
X114815000Y-182201000D02*
X114070000Y-182201000D01*
X111990000Y-182161000D02*
X111204000Y-182161000D01*
X114856000Y-182161000D02*
X114070000Y-182161000D01*
X111990000Y-182121000D02*
X111166000Y-182121000D01*
X114894000Y-182121000D02*
X114070000Y-182121000D01*
X111990000Y-182081000D02*
X111129000Y-182081000D01*
X114931000Y-182081000D02*
X114070000Y-182081000D01*
X111990000Y-182041000D02*
X111093000Y-182041000D01*
X114967000Y-182041000D02*
X114070000Y-182041000D01*
X111990000Y-182001000D02*
X111059000Y-182001000D01*
X115001000Y-182001000D02*
X114070000Y-182001000D01*
X111990000Y-181961000D02*
X111026000Y-181961000D01*
X115034000Y-181961000D02*
X114070000Y-181961000D01*
X111990000Y-181921000D02*
X110995000Y-181921000D01*
X115065000Y-181921000D02*
X114070000Y-181921000D01*
X111990000Y-181881000D02*
X110965000Y-181881000D01*
X115095000Y-181881000D02*
X114070000Y-181881000D01*
X111990000Y-181841000D02*
X110935000Y-181841000D01*
X115125000Y-181841000D02*
X114070000Y-181841000D01*
X111990000Y-181801000D02*
X110908000Y-181801000D01*
X115152000Y-181801000D02*
X114070000Y-181801000D01*
X111990000Y-181761000D02*
X110881000Y-181761000D01*
X115179000Y-181761000D02*
X114070000Y-181761000D01*
X111990000Y-181721000D02*
X110855000Y-181721000D01*
X115205000Y-181721000D02*
X114070000Y-181721000D01*
X111990000Y-181681000D02*
X110830000Y-181681000D01*
X115230000Y-181681000D02*
X114070000Y-181681000D01*
X111990000Y-181641000D02*
X110806000Y-181641000D01*
X115254000Y-181641000D02*
X114070000Y-181641000D01*
X111990000Y-181601000D02*
X110783000Y-181601000D01*
X115277000Y-181601000D02*
X114070000Y-181601000D01*
X111990000Y-181561000D02*
X110762000Y-181561000D01*
X115298000Y-181561000D02*
X114070000Y-181561000D01*
X111990000Y-181521000D02*
X110740000Y-181521000D01*
X115320000Y-181521000D02*
X114070000Y-181521000D01*
X111990000Y-181481000D02*
X110720000Y-181481000D01*
X115340000Y-181481000D02*
X114070000Y-181481000D01*
X111990000Y-181441000D02*
X110701000Y-181441000D01*
X115359000Y-181441000D02*
X114070000Y-181441000D01*
X111990000Y-181401000D02*
X110682000Y-181401000D01*
X115378000Y-181401000D02*
X114070000Y-181401000D01*
X111990000Y-181361000D02*
X110665000Y-181361000D01*
X115395000Y-181361000D02*
X114070000Y-181361000D01*
X111990000Y-181321000D02*
X110648000Y-181321000D01*
X115412000Y-181321000D02*
X114070000Y-181321000D01*
X111990000Y-181281000D02*
X110632000Y-181281000D01*
X115428000Y-181281000D02*
X114070000Y-181281000D01*
X111990000Y-181241000D02*
X110616000Y-181241000D01*
X115444000Y-181241000D02*
X114070000Y-181241000D01*
X111990000Y-181201000D02*
X110602000Y-181201000D01*
X115458000Y-181201000D02*
X114070000Y-181201000D01*
X111990000Y-181161000D02*
X110588000Y-181161000D01*
X115472000Y-181161000D02*
X114070000Y-181161000D01*
X111990000Y-181121000D02*
X110575000Y-181121000D01*
X115485000Y-181121000D02*
X114070000Y-181121000D01*
X111990000Y-181081000D02*
X110562000Y-181081000D01*
X115498000Y-181081000D02*
X114070000Y-181081000D01*
X111990000Y-181041000D02*
X110550000Y-181041000D01*
X115510000Y-181041000D02*
X114070000Y-181041000D01*
X111990000Y-181000000D02*
X110539000Y-181000000D01*
X115521000Y-181000000D02*
X114070000Y-181000000D01*
X111990000Y-180960000D02*
X110529000Y-180960000D01*
X115531000Y-180960000D02*
X114070000Y-180960000D01*
X111990000Y-180920000D02*
X110519000Y-180920000D01*
X115541000Y-180920000D02*
X114070000Y-180920000D01*
X111990000Y-180880000D02*
X110510000Y-180880000D01*
X115550000Y-180880000D02*
X114070000Y-180880000D01*
X111990000Y-180840000D02*
X110502000Y-180840000D01*
X115558000Y-180840000D02*
X114070000Y-180840000D01*
X111990000Y-180800000D02*
X110494000Y-180800000D01*
X115566000Y-180800000D02*
X114070000Y-180800000D01*
X111990000Y-180760000D02*
X110487000Y-180760000D01*
X115573000Y-180760000D02*
X114070000Y-180760000D01*
X111990000Y-180720000D02*
X110480000Y-180720000D01*
X115580000Y-180720000D02*
X114070000Y-180720000D01*
X111990000Y-180680000D02*
X110474000Y-180680000D01*
X115586000Y-180680000D02*
X114070000Y-180680000D01*
X111990000Y-180640000D02*
X110469000Y-180640000D01*
X115591000Y-180640000D02*
X114070000Y-180640000D01*
X111990000Y-180600000D02*
X110465000Y-180600000D01*
X115595000Y-180600000D02*
X114070000Y-180600000D01*
X111990000Y-180560000D02*
X110461000Y-180560000D01*
X115599000Y-180560000D02*
X114070000Y-180560000D01*
X115603000Y-180520000D02*
X110457000Y-180520000D01*
X115606000Y-180480000D02*
X110454000Y-180480000D01*
X115608000Y-180440000D02*
X110452000Y-180440000D01*
X115609000Y-180400000D02*
X110451000Y-180400000D01*
X115610000Y-180360000D02*
X110450000Y-180360000D01*
X115610000Y-180320000D02*
X110450000Y-180320000D01*
X115650000Y-180320000D02*
G75*
G03X115650000Y-180320000I-2620000J0D01*
G01*
X107135000Y-177765225D02*
X106635000Y-177765225D01*
X106885000Y-177515225D02*
X106885000Y-178015225D01*
X105694000Y-182921000D02*
X105126000Y-182921000D01*
X105928000Y-182881000D02*
X104892000Y-182881000D01*
X106087000Y-182841000D02*
X104733000Y-182841000D01*
X106215000Y-182801000D02*
X104605000Y-182801000D01*
X106325000Y-182761000D02*
X104495000Y-182761000D01*
X106421000Y-182721000D02*
X104399000Y-182721000D01*
X106508000Y-182681000D02*
X104312000Y-182681000D01*
X106588000Y-182641000D02*
X104232000Y-182641000D01*
X104370000Y-182601000D02*
X104159000Y-182601000D01*
X106661000Y-182601000D02*
X106450000Y-182601000D01*
X104370000Y-182561000D02*
X104091000Y-182561000D01*
X106729000Y-182561000D02*
X106450000Y-182561000D01*
X104370000Y-182521000D02*
X104027000Y-182521000D01*
X106793000Y-182521000D02*
X106450000Y-182521000D01*
X104370000Y-182481000D02*
X103967000Y-182481000D01*
X106853000Y-182481000D02*
X106450000Y-182481000D01*
X104370000Y-182441000D02*
X103910000Y-182441000D01*
X106910000Y-182441000D02*
X106450000Y-182441000D01*
X104370000Y-182401000D02*
X103856000Y-182401000D01*
X106964000Y-182401000D02*
X106450000Y-182401000D01*
X104370000Y-182361000D02*
X103805000Y-182361000D01*
X107015000Y-182361000D02*
X106450000Y-182361000D01*
X104370000Y-182321000D02*
X103757000Y-182321000D01*
X107063000Y-182321000D02*
X106450000Y-182321000D01*
X104370000Y-182281000D02*
X103711000Y-182281000D01*
X107109000Y-182281000D02*
X106450000Y-182281000D01*
X104370000Y-182241000D02*
X103667000Y-182241000D01*
X107153000Y-182241000D02*
X106450000Y-182241000D01*
X104370000Y-182201000D02*
X103625000Y-182201000D01*
X107195000Y-182201000D02*
X106450000Y-182201000D01*
X104370000Y-182161000D02*
X103584000Y-182161000D01*
X107236000Y-182161000D02*
X106450000Y-182161000D01*
X104370000Y-182121000D02*
X103546000Y-182121000D01*
X107274000Y-182121000D02*
X106450000Y-182121000D01*
X104370000Y-182081000D02*
X103509000Y-182081000D01*
X107311000Y-182081000D02*
X106450000Y-182081000D01*
X104370000Y-182041000D02*
X103473000Y-182041000D01*
X107347000Y-182041000D02*
X106450000Y-182041000D01*
X104370000Y-182001000D02*
X103439000Y-182001000D01*
X107381000Y-182001000D02*
X106450000Y-182001000D01*
X104370000Y-181961000D02*
X103406000Y-181961000D01*
X107414000Y-181961000D02*
X106450000Y-181961000D01*
X104370000Y-181921000D02*
X103375000Y-181921000D01*
X107445000Y-181921000D02*
X106450000Y-181921000D01*
X104370000Y-181881000D02*
X103345000Y-181881000D01*
X107475000Y-181881000D02*
X106450000Y-181881000D01*
X104370000Y-181841000D02*
X103315000Y-181841000D01*
X107505000Y-181841000D02*
X106450000Y-181841000D01*
X104370000Y-181801000D02*
X103288000Y-181801000D01*
X107532000Y-181801000D02*
X106450000Y-181801000D01*
X104370000Y-181761000D02*
X103261000Y-181761000D01*
X107559000Y-181761000D02*
X106450000Y-181761000D01*
X104370000Y-181721000D02*
X103235000Y-181721000D01*
X107585000Y-181721000D02*
X106450000Y-181721000D01*
X104370000Y-181681000D02*
X103210000Y-181681000D01*
X107610000Y-181681000D02*
X106450000Y-181681000D01*
X104370000Y-181641000D02*
X103186000Y-181641000D01*
X107634000Y-181641000D02*
X106450000Y-181641000D01*
X104370000Y-181601000D02*
X103163000Y-181601000D01*
X107657000Y-181601000D02*
X106450000Y-181601000D01*
X104370000Y-181561000D02*
X103142000Y-181561000D01*
X107678000Y-181561000D02*
X106450000Y-181561000D01*
X104370000Y-181521000D02*
X103120000Y-181521000D01*
X107700000Y-181521000D02*
X106450000Y-181521000D01*
X104370000Y-181481000D02*
X103100000Y-181481000D01*
X107720000Y-181481000D02*
X106450000Y-181481000D01*
X104370000Y-181441000D02*
X103081000Y-181441000D01*
X107739000Y-181441000D02*
X106450000Y-181441000D01*
X104370000Y-181401000D02*
X103062000Y-181401000D01*
X107758000Y-181401000D02*
X106450000Y-181401000D01*
X104370000Y-181361000D02*
X103045000Y-181361000D01*
X107775000Y-181361000D02*
X106450000Y-181361000D01*
X104370000Y-181321000D02*
X103028000Y-181321000D01*
X107792000Y-181321000D02*
X106450000Y-181321000D01*
X104370000Y-181281000D02*
X103012000Y-181281000D01*
X107808000Y-181281000D02*
X106450000Y-181281000D01*
X104370000Y-181241000D02*
X102996000Y-181241000D01*
X107824000Y-181241000D02*
X106450000Y-181241000D01*
X104370000Y-181201000D02*
X102982000Y-181201000D01*
X107838000Y-181201000D02*
X106450000Y-181201000D01*
X104370000Y-181161000D02*
X102968000Y-181161000D01*
X107852000Y-181161000D02*
X106450000Y-181161000D01*
X104370000Y-181121000D02*
X102955000Y-181121000D01*
X107865000Y-181121000D02*
X106450000Y-181121000D01*
X104370000Y-181081000D02*
X102942000Y-181081000D01*
X107878000Y-181081000D02*
X106450000Y-181081000D01*
X104370000Y-181041000D02*
X102930000Y-181041000D01*
X107890000Y-181041000D02*
X106450000Y-181041000D01*
X104370000Y-181000000D02*
X102919000Y-181000000D01*
X107901000Y-181000000D02*
X106450000Y-181000000D01*
X104370000Y-180960000D02*
X102909000Y-180960000D01*
X107911000Y-180960000D02*
X106450000Y-180960000D01*
X104370000Y-180920000D02*
X102899000Y-180920000D01*
X107921000Y-180920000D02*
X106450000Y-180920000D01*
X104370000Y-180880000D02*
X102890000Y-180880000D01*
X107930000Y-180880000D02*
X106450000Y-180880000D01*
X104370000Y-180840000D02*
X102882000Y-180840000D01*
X107938000Y-180840000D02*
X106450000Y-180840000D01*
X104370000Y-180800000D02*
X102874000Y-180800000D01*
X107946000Y-180800000D02*
X106450000Y-180800000D01*
X104370000Y-180760000D02*
X102867000Y-180760000D01*
X107953000Y-180760000D02*
X106450000Y-180760000D01*
X104370000Y-180720000D02*
X102860000Y-180720000D01*
X107960000Y-180720000D02*
X106450000Y-180720000D01*
X104370000Y-180680000D02*
X102854000Y-180680000D01*
X107966000Y-180680000D02*
X106450000Y-180680000D01*
X104370000Y-180640000D02*
X102849000Y-180640000D01*
X107971000Y-180640000D02*
X106450000Y-180640000D01*
X104370000Y-180600000D02*
X102845000Y-180600000D01*
X107975000Y-180600000D02*
X106450000Y-180600000D01*
X104370000Y-180560000D02*
X102841000Y-180560000D01*
X107979000Y-180560000D02*
X106450000Y-180560000D01*
X107983000Y-180520000D02*
X102837000Y-180520000D01*
X107986000Y-180480000D02*
X102834000Y-180480000D01*
X107988000Y-180440000D02*
X102832000Y-180440000D01*
X107989000Y-180400000D02*
X102831000Y-180400000D01*
X107990000Y-180360000D02*
X102830000Y-180360000D01*
X107990000Y-180320000D02*
X102830000Y-180320000D01*
X108030000Y-180320000D02*
G75*
G03X108030000Y-180320000I-2620000J0D01*
G01*
X22940000Y-52130000D02*
X22940000Y-27130000D01*
X95940000Y-52130000D02*
X22940000Y-52130000D01*
X95940000Y-27130000D02*
X95940000Y-52130000D01*
X22940000Y-27130000D02*
X95940000Y-27130000D01*
X28140660Y-32128460D02*
G75*
G03X27640280Y-32628840I0J-500380D01*
G01*
X27640280Y-46629320D02*
G75*
G03X28140660Y-47129700I500380J0D01*
G01*
X91640660Y-47129700D02*
G75*
G03X92141040Y-46629320I0J500380D01*
G01*
X92140000Y-32630000D02*
G75*
G03X91640000Y-32130000I-500000J0D01*
G01*
X92140000Y-32630000D02*
X92140000Y-46630000D01*
X91640660Y-47130000D02*
X28140000Y-47130000D01*
X27640280Y-46629320D02*
X27640280Y-32630000D01*
X28140000Y-32130000D02*
X91640000Y-32130000D01*
X26440000Y-21130000D02*
X29440000Y-21130000D01*
X19810000Y-21490000D02*
X20600000Y-21490000D01*
X19800000Y-21490000D02*
X19800000Y-57770000D01*
X100080000Y-21490000D02*
X20600000Y-21490000D01*
X100080000Y-57770000D02*
X100080000Y-21490000D01*
X19800000Y-57770000D02*
X100080000Y-57770000D01*
X76600000Y-188420000D02*
X76600000Y-186920000D01*
X75350000Y-184420000D02*
X70850000Y-184420000D01*
X69600000Y-186920000D02*
X69600000Y-188420000D01*
X70850000Y-190920000D02*
X75350000Y-190920000D01*
X63900000Y-196040000D02*
X63900000Y-194540000D01*
X62650000Y-192040000D02*
X58150000Y-192040000D01*
X56900000Y-194540000D02*
X56900000Y-196040000D01*
X58150000Y-198540000D02*
X62650000Y-198540000D01*
X63900000Y-180800000D02*
X63900000Y-179300000D01*
X62650000Y-176800000D02*
X58150000Y-176800000D01*
X56900000Y-179300000D02*
X56900000Y-180800000D01*
X58150000Y-183300000D02*
X62650000Y-183300000D01*
X51200000Y-188420000D02*
X51200000Y-186920000D01*
X49950000Y-184420000D02*
X45450000Y-184420000D01*
X44200000Y-186920000D02*
X44200000Y-188420000D01*
X45450000Y-190920000D02*
X49950000Y-190920000D01*
X113950000Y-107330000D02*
X113950000Y-103490000D01*
X112110000Y-107330000D02*
X112110000Y-103490000D01*
X105760000Y-31100000D02*
X105760000Y-34940000D01*
X107600000Y-31100000D02*
X107600000Y-34940000D01*
X105760000Y-39990000D02*
X105760000Y-43830000D01*
X107600000Y-39990000D02*
X107600000Y-43830000D01*
X105760000Y-48880000D02*
X105760000Y-52720000D01*
X107600000Y-48880000D02*
X107600000Y-52720000D01*
X85740000Y-194660000D02*
X81900000Y-194660000D01*
X85740000Y-196500000D02*
X81900000Y-196500000D01*
X32670000Y-191150000D02*
X32670000Y-187310000D01*
X30830000Y-191150000D02*
X30830000Y-187310000D01*
X23210000Y-187310000D02*
X23210000Y-191150000D01*
X25050000Y-187310000D02*
X25050000Y-191150000D01*
X23210000Y-177150000D02*
X23210000Y-180990000D01*
X25050000Y-177150000D02*
X25050000Y-180990000D01*
X23210000Y-166990000D02*
X23210000Y-170830000D01*
X25050000Y-166990000D02*
X25050000Y-170830000D01*
X115330000Y-138430000D02*
G75*
G03X115330000Y-138430000I-6100000J0D01*
G01*
X22210000Y-103790000D02*
X26050000Y-103790000D01*
X22210000Y-101950000D02*
X26050000Y-101950000D01*
X22210000Y-98710000D02*
X26050000Y-98710000D01*
X22210000Y-96870000D02*
X26050000Y-96870000D01*
X22210000Y-93630000D02*
X26050000Y-93630000D01*
X22210000Y-91790000D02*
X26050000Y-91790000D01*
X22210000Y-88550000D02*
X26050000Y-88550000D01*
X22210000Y-86710000D02*
X26050000Y-86710000D01*
X23210000Y-133970000D02*
X23210000Y-137810000D01*
X25050000Y-133970000D02*
X25050000Y-137810000D01*
X98140000Y-132700000D02*
X98140000Y-136540000D01*
X99980000Y-132700000D02*
X99980000Y-136540000D01*
X23210000Y-154290000D02*
X23210000Y-158130000D01*
X25050000Y-154290000D02*
X25050000Y-158130000D01*
X23210000Y-144130000D02*
X23210000Y-147970000D01*
X25050000Y-144130000D02*
X25050000Y-147970000D01*
X108060000Y-107890000D02*
X106410000Y-107890000D01*
X108060000Y-128330000D02*
X108060000Y-107890000D01*
X102760000Y-128330000D02*
X108060000Y-128330000D01*
X102760000Y-107890000D02*
X102760000Y-128330000D01*
X104410000Y-107890000D02*
X102760000Y-107890000D01*
X106410000Y-107890000D02*
G75*
G02X104410000Y-107890000I-1000000J0D01*
G01*
D11*
X105918095Y-73112380D02*
X105918095Y-73921904D01*
X105965714Y-74017142D01*
X106013333Y-74064761D01*
X106108571Y-74112380D01*
X106299047Y-74112380D01*
X106394285Y-74064761D01*
X106441904Y-74017142D01*
X106489523Y-73921904D01*
X106489523Y-73112380D01*
X107108571Y-73540952D02*
X107013333Y-73493333D01*
X106965714Y-73445714D01*
X106918095Y-73350476D01*
X106918095Y-73302857D01*
X106965714Y-73207619D01*
X107013333Y-73160000D01*
X107108571Y-73112380D01*
X107299047Y-73112380D01*
X107394285Y-73160000D01*
X107441904Y-73207619D01*
X107489523Y-73302857D01*
X107489523Y-73350476D01*
X107441904Y-73445714D01*
X107394285Y-73493333D01*
X107299047Y-73540952D01*
X107108571Y-73540952D01*
X107013333Y-73588571D01*
X106965714Y-73636190D01*
X106918095Y-73731428D01*
X106918095Y-73921904D01*
X106965714Y-74017142D01*
X107013333Y-74064761D01*
X107108571Y-74112380D01*
X107299047Y-74112380D01*
X107394285Y-74064761D01*
X107441904Y-74017142D01*
X107489523Y-73921904D01*
X107489523Y-73731428D01*
X107441904Y-73636190D01*
X107394285Y-73588571D01*
X107299047Y-73540952D01*
X36068095Y-132032380D02*
X36068095Y-132841904D01*
X36115714Y-132937142D01*
X36163333Y-132984761D01*
X36258571Y-133032380D01*
X36449047Y-133032380D01*
X36544285Y-132984761D01*
X36591904Y-132937142D01*
X36639523Y-132841904D01*
X36639523Y-132032380D01*
X37020476Y-132032380D02*
X37639523Y-132032380D01*
X37306190Y-132413333D01*
X37449047Y-132413333D01*
X37544285Y-132460952D01*
X37591904Y-132508571D01*
X37639523Y-132603809D01*
X37639523Y-132841904D01*
X37591904Y-132937142D01*
X37544285Y-132984761D01*
X37449047Y-133032380D01*
X37163333Y-133032380D01*
X37068095Y-132984761D01*
X37020476Y-132937142D01*
X36068095Y-93932380D02*
X36068095Y-94741904D01*
X36115714Y-94837142D01*
X36163333Y-94884761D01*
X36258571Y-94932380D01*
X36449047Y-94932380D01*
X36544285Y-94884761D01*
X36591904Y-94837142D01*
X36639523Y-94741904D01*
X36639523Y-93932380D01*
X37068095Y-94027619D02*
X37115714Y-93980000D01*
X37210952Y-93932380D01*
X37449047Y-93932380D01*
X37544285Y-93980000D01*
X37591904Y-94027619D01*
X37639523Y-94122857D01*
X37639523Y-94218095D01*
X37591904Y-94360952D01*
X37020476Y-94932380D01*
X37639523Y-94932380D01*
X23368095Y-60622380D02*
X23368095Y-61431904D01*
X23415714Y-61527142D01*
X23463333Y-61574761D01*
X23558571Y-61622380D01*
X23749047Y-61622380D01*
X23844285Y-61574761D01*
X23891904Y-61527142D01*
X23939523Y-61431904D01*
X23939523Y-60622380D01*
X24844285Y-60955714D02*
X24844285Y-61622380D01*
X24606190Y-60574761D02*
X24368095Y-61289047D01*
X24987142Y-61289047D01*
X36068095Y-55832380D02*
X36068095Y-56641904D01*
X36115714Y-56737142D01*
X36163333Y-56784761D01*
X36258571Y-56832380D01*
X36449047Y-56832380D01*
X36544285Y-56784761D01*
X36591904Y-56737142D01*
X36639523Y-56641904D01*
X36639523Y-55832380D01*
X37639523Y-56832380D02*
X37068095Y-56832380D01*
X37353809Y-56832380D02*
X37353809Y-55832380D01*
X37258571Y-55975238D01*
X37163333Y-56070476D01*
X37068095Y-56118095D01*
X23368095Y-106342380D02*
X23368095Y-107151904D01*
X23415714Y-107247142D01*
X23463333Y-107294761D01*
X23558571Y-107342380D01*
X23749047Y-107342380D01*
X23844285Y-107294761D01*
X23891904Y-107247142D01*
X23939523Y-107151904D01*
X23939523Y-106342380D01*
X24844285Y-106342380D02*
X24653809Y-106342380D01*
X24558571Y-106390000D01*
X24510952Y-106437619D01*
X24415714Y-106580476D01*
X24368095Y-106770952D01*
X24368095Y-107151904D01*
X24415714Y-107247142D01*
X24463333Y-107294761D01*
X24558571Y-107342380D01*
X24749047Y-107342380D01*
X24844285Y-107294761D01*
X24891904Y-107247142D01*
X24939523Y-107151904D01*
X24939523Y-106913809D01*
X24891904Y-106818571D01*
X24844285Y-106770952D01*
X24749047Y-106723333D01*
X24558571Y-106723333D01*
X24463333Y-106770952D01*
X24415714Y-106818571D01*
X24368095Y-106913809D01*
X108672380Y-167973333D02*
X109386666Y-167973333D01*
X109529523Y-168020952D01*
X109624761Y-168116190D01*
X109672380Y-168259047D01*
X109672380Y-168354285D01*
X109672380Y-166973333D02*
X109672380Y-167544761D01*
X109672380Y-167259047D02*
X108672380Y-167259047D01*
X108815238Y-167354285D01*
X108910476Y-167449523D01*
X108958095Y-167544761D01*
X100838095Y-172632380D02*
X100838095Y-173441904D01*
X100885714Y-173537142D01*
X100933333Y-173584761D01*
X101028571Y-173632380D01*
X101219047Y-173632380D01*
X101314285Y-173584761D01*
X101361904Y-173537142D01*
X101409523Y-173441904D01*
X101409523Y-172632380D01*
X101790476Y-172632380D02*
X102457142Y-172632380D01*
X102028571Y-173632380D01*
X117137142Y-180486666D02*
X117184761Y-180534285D01*
X117232380Y-180677142D01*
X117232380Y-180772380D01*
X117184761Y-180915238D01*
X117089523Y-181010476D01*
X116994285Y-181058095D01*
X116803809Y-181105714D01*
X116660952Y-181105714D01*
X116470476Y-181058095D01*
X116375238Y-181010476D01*
X116280000Y-180915238D01*
X116232380Y-180772380D01*
X116232380Y-180677142D01*
X116280000Y-180534285D01*
X116327619Y-180486666D01*
X116327619Y-180105714D02*
X116280000Y-180058095D01*
X116232380Y-179962857D01*
X116232380Y-179724761D01*
X116280000Y-179629523D01*
X116327619Y-179581904D01*
X116422857Y-179534285D01*
X116518095Y-179534285D01*
X116660952Y-179581904D01*
X117232380Y-180153333D01*
X117232380Y-179534285D01*
X109517142Y-180486666D02*
X109564761Y-180534285D01*
X109612380Y-180677142D01*
X109612380Y-180772380D01*
X109564761Y-180915238D01*
X109469523Y-181010476D01*
X109374285Y-181058095D01*
X109183809Y-181105714D01*
X109040952Y-181105714D01*
X108850476Y-181058095D01*
X108755238Y-181010476D01*
X108660000Y-180915238D01*
X108612380Y-180772380D01*
X108612380Y-180677142D01*
X108660000Y-180534285D01*
X108707619Y-180486666D01*
X109612380Y-179534285D02*
X109612380Y-180105714D01*
X109612380Y-179820000D02*
X108612380Y-179820000D01*
X108755238Y-179915238D01*
X108850476Y-180010476D01*
X108898095Y-180105714D01*
X20905714Y-20772380D02*
X20905714Y-19772380D01*
X21143809Y-19772380D01*
X21286666Y-19820000D01*
X21381904Y-19915238D01*
X21429523Y-20010476D01*
X21477142Y-20200952D01*
X21477142Y-20343809D01*
X21429523Y-20534285D01*
X21381904Y-20629523D01*
X21286666Y-20724761D01*
X21143809Y-20772380D01*
X20905714Y-20772380D01*
X21858095Y-20724761D02*
X22000952Y-20772380D01*
X22239047Y-20772380D01*
X22334285Y-20724761D01*
X22381904Y-20677142D01*
X22429523Y-20581904D01*
X22429523Y-20486666D01*
X22381904Y-20391428D01*
X22334285Y-20343809D01*
X22239047Y-20296190D01*
X22048571Y-20248571D01*
X21953333Y-20200952D01*
X21905714Y-20153333D01*
X21858095Y-20058095D01*
X21858095Y-19962857D01*
X21905714Y-19867619D01*
X21953333Y-19820000D01*
X22048571Y-19772380D01*
X22286666Y-19772380D01*
X22429523Y-19820000D01*
X23381904Y-20772380D02*
X22810476Y-20772380D01*
X23096190Y-20772380D02*
X23096190Y-19772380D01*
X23000952Y-19915238D01*
X22905714Y-20010476D01*
X22810476Y-20058095D01*
X71766666Y-183824761D02*
X71909523Y-183872380D01*
X72147619Y-183872380D01*
X72242857Y-183824761D01*
X72290476Y-183777142D01*
X72338095Y-183681904D01*
X72338095Y-183586666D01*
X72290476Y-183491428D01*
X72242857Y-183443809D01*
X72147619Y-183396190D01*
X71957142Y-183348571D01*
X71861904Y-183300952D01*
X71814285Y-183253333D01*
X71766666Y-183158095D01*
X71766666Y-183062857D01*
X71814285Y-182967619D01*
X71861904Y-182920000D01*
X71957142Y-182872380D01*
X72195238Y-182872380D01*
X72338095Y-182920000D01*
X72671428Y-182872380D02*
X72909523Y-183872380D01*
X73100000Y-183158095D01*
X73290476Y-183872380D01*
X73528571Y-182872380D01*
X73861904Y-182967619D02*
X73909523Y-182920000D01*
X74004761Y-182872380D01*
X74242857Y-182872380D01*
X74338095Y-182920000D01*
X74385714Y-182967619D01*
X74433333Y-183062857D01*
X74433333Y-183158095D01*
X74385714Y-183300952D01*
X73814285Y-183872380D01*
X74433333Y-183872380D01*
X59066666Y-191444761D02*
X59209523Y-191492380D01*
X59447619Y-191492380D01*
X59542857Y-191444761D01*
X59590476Y-191397142D01*
X59638095Y-191301904D01*
X59638095Y-191206666D01*
X59590476Y-191111428D01*
X59542857Y-191063809D01*
X59447619Y-191016190D01*
X59257142Y-190968571D01*
X59161904Y-190920952D01*
X59114285Y-190873333D01*
X59066666Y-190778095D01*
X59066666Y-190682857D01*
X59114285Y-190587619D01*
X59161904Y-190540000D01*
X59257142Y-190492380D01*
X59495238Y-190492380D01*
X59638095Y-190540000D01*
X59971428Y-190492380D02*
X60209523Y-191492380D01*
X60400000Y-190778095D01*
X60590476Y-191492380D01*
X60828571Y-190492380D01*
X61114285Y-190492380D02*
X61733333Y-190492380D01*
X61400000Y-190873333D01*
X61542857Y-190873333D01*
X61638095Y-190920952D01*
X61685714Y-190968571D01*
X61733333Y-191063809D01*
X61733333Y-191301904D01*
X61685714Y-191397142D01*
X61638095Y-191444761D01*
X61542857Y-191492380D01*
X61257142Y-191492380D01*
X61161904Y-191444761D01*
X61114285Y-191397142D01*
X59066666Y-176204761D02*
X59209523Y-176252380D01*
X59447619Y-176252380D01*
X59542857Y-176204761D01*
X59590476Y-176157142D01*
X59638095Y-176061904D01*
X59638095Y-175966666D01*
X59590476Y-175871428D01*
X59542857Y-175823809D01*
X59447619Y-175776190D01*
X59257142Y-175728571D01*
X59161904Y-175680952D01*
X59114285Y-175633333D01*
X59066666Y-175538095D01*
X59066666Y-175442857D01*
X59114285Y-175347619D01*
X59161904Y-175300000D01*
X59257142Y-175252380D01*
X59495238Y-175252380D01*
X59638095Y-175300000D01*
X59971428Y-175252380D02*
X60209523Y-176252380D01*
X60400000Y-175538095D01*
X60590476Y-176252380D01*
X60828571Y-175252380D01*
X61733333Y-176252380D02*
X61161904Y-176252380D01*
X61447619Y-176252380D02*
X61447619Y-175252380D01*
X61352380Y-175395238D01*
X61257142Y-175490476D01*
X61161904Y-175538095D01*
X46366666Y-183824761D02*
X46509523Y-183872380D01*
X46747619Y-183872380D01*
X46842857Y-183824761D01*
X46890476Y-183777142D01*
X46938095Y-183681904D01*
X46938095Y-183586666D01*
X46890476Y-183491428D01*
X46842857Y-183443809D01*
X46747619Y-183396190D01*
X46557142Y-183348571D01*
X46461904Y-183300952D01*
X46414285Y-183253333D01*
X46366666Y-183158095D01*
X46366666Y-183062857D01*
X46414285Y-182967619D01*
X46461904Y-182920000D01*
X46557142Y-182872380D01*
X46795238Y-182872380D01*
X46938095Y-182920000D01*
X47271428Y-182872380D02*
X47509523Y-183872380D01*
X47700000Y-183158095D01*
X47890476Y-183872380D01*
X48128571Y-182872380D01*
X48938095Y-183205714D02*
X48938095Y-183872380D01*
X48700000Y-182824761D02*
X48461904Y-183539047D01*
X49080952Y-183539047D01*
X111562380Y-106052857D02*
X111086190Y-106386190D01*
X111562380Y-106624285D02*
X110562380Y-106624285D01*
X110562380Y-106243333D01*
X110610000Y-106148095D01*
X110657619Y-106100476D01*
X110752857Y-106052857D01*
X110895714Y-106052857D01*
X110990952Y-106100476D01*
X111038571Y-106148095D01*
X111086190Y-106243333D01*
X111086190Y-106624285D01*
X111562380Y-105100476D02*
X111562380Y-105671904D01*
X111562380Y-105386190D02*
X110562380Y-105386190D01*
X110705238Y-105481428D01*
X110800476Y-105576666D01*
X110848095Y-105671904D01*
X110562380Y-104767142D02*
X110562380Y-104100476D01*
X111562380Y-104529047D01*
X109052380Y-33662857D02*
X108576190Y-33996190D01*
X109052380Y-34234285D02*
X108052380Y-34234285D01*
X108052380Y-33853333D01*
X108100000Y-33758095D01*
X108147619Y-33710476D01*
X108242857Y-33662857D01*
X108385714Y-33662857D01*
X108480952Y-33710476D01*
X108528571Y-33758095D01*
X108576190Y-33853333D01*
X108576190Y-34234285D01*
X109052380Y-32710476D02*
X109052380Y-33281904D01*
X109052380Y-32996190D02*
X108052380Y-32996190D01*
X108195238Y-33091428D01*
X108290476Y-33186666D01*
X108338095Y-33281904D01*
X108052380Y-31853333D02*
X108052380Y-32043809D01*
X108100000Y-32139047D01*
X108147619Y-32186666D01*
X108290476Y-32281904D01*
X108480952Y-32329523D01*
X108861904Y-32329523D01*
X108957142Y-32281904D01*
X109004761Y-32234285D01*
X109052380Y-32139047D01*
X109052380Y-31948571D01*
X109004761Y-31853333D01*
X108957142Y-31805714D01*
X108861904Y-31758095D01*
X108623809Y-31758095D01*
X108528571Y-31805714D01*
X108480952Y-31853333D01*
X108433333Y-31948571D01*
X108433333Y-32139047D01*
X108480952Y-32234285D01*
X108528571Y-32281904D01*
X108623809Y-32329523D01*
X109052380Y-42552857D02*
X108576190Y-42886190D01*
X109052380Y-43124285D02*
X108052380Y-43124285D01*
X108052380Y-42743333D01*
X108100000Y-42648095D01*
X108147619Y-42600476D01*
X108242857Y-42552857D01*
X108385714Y-42552857D01*
X108480952Y-42600476D01*
X108528571Y-42648095D01*
X108576190Y-42743333D01*
X108576190Y-43124285D01*
X109052380Y-41600476D02*
X109052380Y-42171904D01*
X109052380Y-41886190D02*
X108052380Y-41886190D01*
X108195238Y-41981428D01*
X108290476Y-42076666D01*
X108338095Y-42171904D01*
X108052380Y-40695714D02*
X108052380Y-41171904D01*
X108528571Y-41219523D01*
X108480952Y-41171904D01*
X108433333Y-41076666D01*
X108433333Y-40838571D01*
X108480952Y-40743333D01*
X108528571Y-40695714D01*
X108623809Y-40648095D01*
X108861904Y-40648095D01*
X108957142Y-40695714D01*
X109004761Y-40743333D01*
X109052380Y-40838571D01*
X109052380Y-41076666D01*
X109004761Y-41171904D01*
X108957142Y-41219523D01*
X109052380Y-51442857D02*
X108576190Y-51776190D01*
X109052380Y-52014285D02*
X108052380Y-52014285D01*
X108052380Y-51633333D01*
X108100000Y-51538095D01*
X108147619Y-51490476D01*
X108242857Y-51442857D01*
X108385714Y-51442857D01*
X108480952Y-51490476D01*
X108528571Y-51538095D01*
X108576190Y-51633333D01*
X108576190Y-52014285D01*
X109052380Y-50490476D02*
X109052380Y-51061904D01*
X109052380Y-50776190D02*
X108052380Y-50776190D01*
X108195238Y-50871428D01*
X108290476Y-50966666D01*
X108338095Y-51061904D01*
X108385714Y-49633333D02*
X109052380Y-49633333D01*
X108004761Y-49871428D02*
X108719047Y-50109523D01*
X108719047Y-49490476D01*
X83177142Y-197952380D02*
X82843809Y-197476190D01*
X82605714Y-197952380D02*
X82605714Y-196952380D01*
X82986666Y-196952380D01*
X83081904Y-197000000D01*
X83129523Y-197047619D01*
X83177142Y-197142857D01*
X83177142Y-197285714D01*
X83129523Y-197380952D01*
X83081904Y-197428571D01*
X82986666Y-197476190D01*
X82605714Y-197476190D01*
X84129523Y-197952380D02*
X83558095Y-197952380D01*
X83843809Y-197952380D02*
X83843809Y-196952380D01*
X83748571Y-197095238D01*
X83653333Y-197190476D01*
X83558095Y-197238095D01*
X84462857Y-196952380D02*
X85081904Y-196952380D01*
X84748571Y-197333333D01*
X84891428Y-197333333D01*
X84986666Y-197380952D01*
X85034285Y-197428571D01*
X85081904Y-197523809D01*
X85081904Y-197761904D01*
X85034285Y-197857142D01*
X84986666Y-197904761D01*
X84891428Y-197952380D01*
X84605714Y-197952380D01*
X84510476Y-197904761D01*
X84462857Y-197857142D01*
X30282380Y-189872857D02*
X29806190Y-190206190D01*
X30282380Y-190444285D02*
X29282380Y-190444285D01*
X29282380Y-190063333D01*
X29330000Y-189968095D01*
X29377619Y-189920476D01*
X29472857Y-189872857D01*
X29615714Y-189872857D01*
X29710952Y-189920476D01*
X29758571Y-189968095D01*
X29806190Y-190063333D01*
X29806190Y-190444285D01*
X30282380Y-188920476D02*
X30282380Y-189491904D01*
X30282380Y-189206190D02*
X29282380Y-189206190D01*
X29425238Y-189301428D01*
X29520476Y-189396666D01*
X29568095Y-189491904D01*
X29377619Y-188539523D02*
X29330000Y-188491904D01*
X29282380Y-188396666D01*
X29282380Y-188158571D01*
X29330000Y-188063333D01*
X29377619Y-188015714D01*
X29472857Y-187968095D01*
X29568095Y-187968095D01*
X29710952Y-188015714D01*
X30282380Y-188587142D01*
X30282380Y-187968095D01*
X26502380Y-189872857D02*
X26026190Y-190206190D01*
X26502380Y-190444285D02*
X25502380Y-190444285D01*
X25502380Y-190063333D01*
X25550000Y-189968095D01*
X25597619Y-189920476D01*
X25692857Y-189872857D01*
X25835714Y-189872857D01*
X25930952Y-189920476D01*
X25978571Y-189968095D01*
X26026190Y-190063333D01*
X26026190Y-190444285D01*
X26502380Y-188920476D02*
X26502380Y-189491904D01*
X26502380Y-189206190D02*
X25502380Y-189206190D01*
X25645238Y-189301428D01*
X25740476Y-189396666D01*
X25788095Y-189491904D01*
X26502380Y-187968095D02*
X26502380Y-188539523D01*
X26502380Y-188253809D02*
X25502380Y-188253809D01*
X25645238Y-188349047D01*
X25740476Y-188444285D01*
X25788095Y-188539523D01*
X26502380Y-179712857D02*
X26026190Y-180046190D01*
X26502380Y-180284285D02*
X25502380Y-180284285D01*
X25502380Y-179903333D01*
X25550000Y-179808095D01*
X25597619Y-179760476D01*
X25692857Y-179712857D01*
X25835714Y-179712857D01*
X25930952Y-179760476D01*
X25978571Y-179808095D01*
X26026190Y-179903333D01*
X26026190Y-180284285D01*
X26502380Y-178760476D02*
X26502380Y-179331904D01*
X26502380Y-179046190D02*
X25502380Y-179046190D01*
X25645238Y-179141428D01*
X25740476Y-179236666D01*
X25788095Y-179331904D01*
X25502380Y-178141428D02*
X25502380Y-178046190D01*
X25550000Y-177950952D01*
X25597619Y-177903333D01*
X25692857Y-177855714D01*
X25883333Y-177808095D01*
X26121428Y-177808095D01*
X26311904Y-177855714D01*
X26407142Y-177903333D01*
X26454761Y-177950952D01*
X26502380Y-178046190D01*
X26502380Y-178141428D01*
X26454761Y-178236666D01*
X26407142Y-178284285D01*
X26311904Y-178331904D01*
X26121428Y-178379523D01*
X25883333Y-178379523D01*
X25692857Y-178331904D01*
X25597619Y-178284285D01*
X25550000Y-178236666D01*
X25502380Y-178141428D01*
X26502380Y-169076666D02*
X26026190Y-169410000D01*
X26502380Y-169648095D02*
X25502380Y-169648095D01*
X25502380Y-169267142D01*
X25550000Y-169171904D01*
X25597619Y-169124285D01*
X25692857Y-169076666D01*
X25835714Y-169076666D01*
X25930952Y-169124285D01*
X25978571Y-169171904D01*
X26026190Y-169267142D01*
X26026190Y-169648095D01*
X26502380Y-168600476D02*
X26502380Y-168410000D01*
X26454761Y-168314761D01*
X26407142Y-168267142D01*
X26264285Y-168171904D01*
X26073809Y-168124285D01*
X25692857Y-168124285D01*
X25597619Y-168171904D01*
X25550000Y-168219523D01*
X25502380Y-168314761D01*
X25502380Y-168505238D01*
X25550000Y-168600476D01*
X25597619Y-168648095D01*
X25692857Y-168695714D01*
X25930952Y-168695714D01*
X26026190Y-168648095D01*
X26073809Y-168600476D01*
X26121428Y-168505238D01*
X26121428Y-168314761D01*
X26073809Y-168219523D01*
X26026190Y-168171904D01*
X25930952Y-168124285D01*
X108349047Y-145558571D02*
X108491904Y-145606190D01*
X108539523Y-145653809D01*
X108587142Y-145749047D01*
X108587142Y-145891904D01*
X108539523Y-145987142D01*
X108491904Y-146034761D01*
X108396666Y-146082380D01*
X108015714Y-146082380D01*
X108015714Y-145082380D01*
X108349047Y-145082380D01*
X108444285Y-145130000D01*
X108491904Y-145177619D01*
X108539523Y-145272857D01*
X108539523Y-145368095D01*
X108491904Y-145463333D01*
X108444285Y-145510952D01*
X108349047Y-145558571D01*
X108015714Y-145558571D01*
X108920476Y-145082380D02*
X109587142Y-145082380D01*
X108920476Y-146082380D01*
X109587142Y-146082380D01*
X110491904Y-146082380D02*
X109920476Y-146082380D01*
X110206190Y-146082380D02*
X110206190Y-145082380D01*
X110110952Y-145225238D01*
X110015714Y-145320476D01*
X109920476Y-145368095D01*
X112659047Y-141041428D02*
X113420952Y-141041428D01*
X113040000Y-141422380D02*
X113040000Y-140660476D01*
X23963333Y-101402380D02*
X23630000Y-100926190D01*
X23391904Y-101402380D02*
X23391904Y-100402380D01*
X23772857Y-100402380D01*
X23868095Y-100450000D01*
X23915714Y-100497619D01*
X23963333Y-100592857D01*
X23963333Y-100735714D01*
X23915714Y-100830952D01*
X23868095Y-100878571D01*
X23772857Y-100926190D01*
X23391904Y-100926190D01*
X24534761Y-100830952D02*
X24439523Y-100783333D01*
X24391904Y-100735714D01*
X24344285Y-100640476D01*
X24344285Y-100592857D01*
X24391904Y-100497619D01*
X24439523Y-100450000D01*
X24534761Y-100402380D01*
X24725238Y-100402380D01*
X24820476Y-100450000D01*
X24868095Y-100497619D01*
X24915714Y-100592857D01*
X24915714Y-100640476D01*
X24868095Y-100735714D01*
X24820476Y-100783333D01*
X24725238Y-100830952D01*
X24534761Y-100830952D01*
X24439523Y-100878571D01*
X24391904Y-100926190D01*
X24344285Y-101021428D01*
X24344285Y-101211904D01*
X24391904Y-101307142D01*
X24439523Y-101354761D01*
X24534761Y-101402380D01*
X24725238Y-101402380D01*
X24820476Y-101354761D01*
X24868095Y-101307142D01*
X24915714Y-101211904D01*
X24915714Y-101021428D01*
X24868095Y-100926190D01*
X24820476Y-100878571D01*
X24725238Y-100830952D01*
X23963333Y-96322380D02*
X23630000Y-95846190D01*
X23391904Y-96322380D02*
X23391904Y-95322380D01*
X23772857Y-95322380D01*
X23868095Y-95370000D01*
X23915714Y-95417619D01*
X23963333Y-95512857D01*
X23963333Y-95655714D01*
X23915714Y-95750952D01*
X23868095Y-95798571D01*
X23772857Y-95846190D01*
X23391904Y-95846190D01*
X24296666Y-95322380D02*
X24963333Y-95322380D01*
X24534761Y-96322380D01*
X23963333Y-91242380D02*
X23630000Y-90766190D01*
X23391904Y-91242380D02*
X23391904Y-90242380D01*
X23772857Y-90242380D01*
X23868095Y-90290000D01*
X23915714Y-90337619D01*
X23963333Y-90432857D01*
X23963333Y-90575714D01*
X23915714Y-90670952D01*
X23868095Y-90718571D01*
X23772857Y-90766190D01*
X23391904Y-90766190D01*
X24820476Y-90242380D02*
X24630000Y-90242380D01*
X24534761Y-90290000D01*
X24487142Y-90337619D01*
X24391904Y-90480476D01*
X24344285Y-90670952D01*
X24344285Y-91051904D01*
X24391904Y-91147142D01*
X24439523Y-91194761D01*
X24534761Y-91242380D01*
X24725238Y-91242380D01*
X24820476Y-91194761D01*
X24868095Y-91147142D01*
X24915714Y-91051904D01*
X24915714Y-90813809D01*
X24868095Y-90718571D01*
X24820476Y-90670952D01*
X24725238Y-90623333D01*
X24534761Y-90623333D01*
X24439523Y-90670952D01*
X24391904Y-90718571D01*
X24344285Y-90813809D01*
X23963333Y-86162380D02*
X23630000Y-85686190D01*
X23391904Y-86162380D02*
X23391904Y-85162380D01*
X23772857Y-85162380D01*
X23868095Y-85210000D01*
X23915714Y-85257619D01*
X23963333Y-85352857D01*
X23963333Y-85495714D01*
X23915714Y-85590952D01*
X23868095Y-85638571D01*
X23772857Y-85686190D01*
X23391904Y-85686190D01*
X24868095Y-85162380D02*
X24391904Y-85162380D01*
X24344285Y-85638571D01*
X24391904Y-85590952D01*
X24487142Y-85543333D01*
X24725238Y-85543333D01*
X24820476Y-85590952D01*
X24868095Y-85638571D01*
X24915714Y-85733809D01*
X24915714Y-85971904D01*
X24868095Y-86067142D01*
X24820476Y-86114761D01*
X24725238Y-86162380D01*
X24487142Y-86162380D01*
X24391904Y-86114761D01*
X24344285Y-86067142D01*
X26502380Y-136056666D02*
X26026190Y-136390000D01*
X26502380Y-136628095D02*
X25502380Y-136628095D01*
X25502380Y-136247142D01*
X25550000Y-136151904D01*
X25597619Y-136104285D01*
X25692857Y-136056666D01*
X25835714Y-136056666D01*
X25930952Y-136104285D01*
X25978571Y-136151904D01*
X26026190Y-136247142D01*
X26026190Y-136628095D01*
X25835714Y-135199523D02*
X26502380Y-135199523D01*
X25454761Y-135437619D02*
X26169047Y-135675714D01*
X26169047Y-135056666D01*
X101432380Y-134786666D02*
X100956190Y-135120000D01*
X101432380Y-135358095D02*
X100432380Y-135358095D01*
X100432380Y-134977142D01*
X100480000Y-134881904D01*
X100527619Y-134834285D01*
X100622857Y-134786666D01*
X100765714Y-134786666D01*
X100860952Y-134834285D01*
X100908571Y-134881904D01*
X100956190Y-134977142D01*
X100956190Y-135358095D01*
X100432380Y-134453333D02*
X100432380Y-133834285D01*
X100813333Y-134167619D01*
X100813333Y-134024761D01*
X100860952Y-133929523D01*
X100908571Y-133881904D01*
X101003809Y-133834285D01*
X101241904Y-133834285D01*
X101337142Y-133881904D01*
X101384761Y-133929523D01*
X101432380Y-134024761D01*
X101432380Y-134310476D01*
X101384761Y-134405714D01*
X101337142Y-134453333D01*
X26502380Y-156376666D02*
X26026190Y-156710000D01*
X26502380Y-156948095D02*
X25502380Y-156948095D01*
X25502380Y-156567142D01*
X25550000Y-156471904D01*
X25597619Y-156424285D01*
X25692857Y-156376666D01*
X25835714Y-156376666D01*
X25930952Y-156424285D01*
X25978571Y-156471904D01*
X26026190Y-156567142D01*
X26026190Y-156948095D01*
X25597619Y-155995714D02*
X25550000Y-155948095D01*
X25502380Y-155852857D01*
X25502380Y-155614761D01*
X25550000Y-155519523D01*
X25597619Y-155471904D01*
X25692857Y-155424285D01*
X25788095Y-155424285D01*
X25930952Y-155471904D01*
X26502380Y-156043333D01*
X26502380Y-155424285D01*
X26502380Y-146216666D02*
X26026190Y-146550000D01*
X26502380Y-146788095D02*
X25502380Y-146788095D01*
X25502380Y-146407142D01*
X25550000Y-146311904D01*
X25597619Y-146264285D01*
X25692857Y-146216666D01*
X25835714Y-146216666D01*
X25930952Y-146264285D01*
X25978571Y-146311904D01*
X26026190Y-146407142D01*
X26026190Y-146788095D01*
X26502380Y-145264285D02*
X26502380Y-145835714D01*
X26502380Y-145550000D02*
X25502380Y-145550000D01*
X25645238Y-145645238D01*
X25740476Y-145740476D01*
X25788095Y-145835714D01*
X104648095Y-106342380D02*
X104648095Y-107151904D01*
X104695714Y-107247142D01*
X104743333Y-107294761D01*
X104838571Y-107342380D01*
X105029047Y-107342380D01*
X105124285Y-107294761D01*
X105171904Y-107247142D01*
X105219523Y-107151904D01*
X105219523Y-106342380D01*
X106171904Y-106342380D02*
X105695714Y-106342380D01*
X105648095Y-106818571D01*
X105695714Y-106770952D01*
X105790952Y-106723333D01*
X106029047Y-106723333D01*
X106124285Y-106770952D01*
X106171904Y-106818571D01*
X106219523Y-106913809D01*
X106219523Y-107151904D01*
X106171904Y-107247142D01*
X106124285Y-107294761D01*
X106029047Y-107342380D01*
X105790952Y-107342380D01*
X105695714Y-107294761D01*
X105648095Y-107247142D01*
M02*
