M48
INCH,TZ
T1C0.0276
T2C0.0300
T3C0.0315
T4C0.0394
T5C0.0433
T6C0.0598
%
G90
G05
T1
X19500Y-71000
X19500Y-73000
X49000Y-66500
X49000Y-68500
X19500Y-80000
X19500Y-82000
X22500Y-88000
X22500Y-90000
X52000Y-30000
X52000Y-32000
X52000Y-26500
X52000Y-28500
X18500Y-51000
X20500Y-51000
X19500Y-67000
X19500Y-69000
X54500Y-55000
X54500Y-57000
X19500Y-75000
X19500Y-77000
X42000Y-91500
X44000Y-91500
X52000Y-33500
X52000Y-35500
X18500Y-55000
X20500Y-55000
X18500Y-49000
X20500Y-49000
X19500Y-88000
X19500Y-90000
X19500Y-84000
X19500Y-86000
X18500Y-53000
X20500Y-53000
T2
X25000Y-72500
X25000Y-73500
X25000Y-74500
X25000Y-75500
X25000Y-76500
X25000Y-77500
X25000Y-78500
X43000Y-72500
X43000Y-73500
X43000Y-74500
X43000Y-75500
X43000Y-76500
X43000Y-77500
X43000Y-78500
X25000Y-42500
X25000Y-43500
X25000Y-44500
X25000Y-45500
X25000Y-46500
X25000Y-47500
X25000Y-48500
X43000Y-42500
X43000Y-43500
X43000Y-44500
X43000Y-45500
X43000Y-46500
X43000Y-47500
X43000Y-48500
X25000Y-57500
X25000Y-58500
X25000Y-59500
X25000Y-60500
X25000Y-61500
X25000Y-62500
X25000Y-63500
X43000Y-57500
X43000Y-58500
X43000Y-59500
X43000Y-60500
X43000Y-61500
X43000Y-62500
X43000Y-63500
X20500Y-23500
X21500Y-23500
X22500Y-23500
X23500Y-23500
X24500Y-23500
X25500Y-23500
X26500Y-23500
X27500Y-23500
X28500Y-23500
X29500Y-23500
X30500Y-23500
X31500Y-23500
X32500Y-23500
X33500Y-23500
X34500Y-23500
X35500Y-23500
X49000Y-40500
X49000Y-41500
X49000Y-42500
X49000Y-43500
X49000Y-44500
X49000Y-45500
X49000Y-46500
X49000Y-47500
X49000Y-48500
X49000Y-49500
X49000Y-50500
X49000Y-51500
X52000Y-51500
X53000Y-51500
X54000Y-44000
X54000Y-45000
X54000Y-51500
X55000Y-40500
X55000Y-41500
X55000Y-42500
X55000Y-43500
X55000Y-44500
X55000Y-45500
X55000Y-46500
X55000Y-47500
X55000Y-48500
X55000Y-49500
X55000Y-50500
X55000Y-51500
T3
X50000Y-57500
X50000Y-58500
X50000Y-59500
X50000Y-60500
X50000Y-61500
X50000Y-62500
X50000Y-63500
X50000Y-64500
X53000Y-57500
X53000Y-58500
X53000Y-59500
X53000Y-60500
X53000Y-61500
X53000Y-62500
X53000Y-63500
X53000Y-64500
X51500Y-85000
X51500Y-85984
X18000Y-39500
X18000Y-40500
X18000Y-41500
X18000Y-42500
X18000Y-43500
X18000Y-44500
X18000Y-45500
X18000Y-46500
X21000Y-39500
X21000Y-40500
X21000Y-41500
X21000Y-42500
X21000Y-43500
X21000Y-44500
X21000Y-45500
X21000Y-46500
X54500Y-85000
X54500Y-85984
X18000Y-57500
X18000Y-58500
X18000Y-59500
X18000Y-60500
X18000Y-61500
X18000Y-62500
X18000Y-63500
X18000Y-64500
X21000Y-57500
X21000Y-58500
X21000Y-59500
X21000Y-60500
X21000Y-61500
X21000Y-62500
X21000Y-63500
X21000Y-64500
T4
X51508Y-69000
X54500Y-69000
T5
X32500Y-90500
X32500Y-92272
X35059Y-90500
X35059Y-92272
X49000Y-81000
X50000Y-81000
X51000Y-81000
X27500Y-87500
X27500Y-89272
X30059Y-87500
X30059Y-89272
X32500Y-84500
X32500Y-86272
X35059Y-84500
X35059Y-86272
X37500Y-87500
X37500Y-89272
X40059Y-87500
X40059Y-89272
T6
X55000Y-79500
X55000Y-81500
T0
M30
