G04 #@! TF.GenerationSoftware,KiCad,Pcbnew,5.1.5-52549c5~84~ubuntu19.10.1*
G04 #@! TF.CreationDate,2020-03-18T22:44:12+01:00*
G04 #@! TF.ProjectId,tetris-board,74657472-6973-42d6-926f-6172642e6b69,rev?*
G04 #@! TF.SameCoordinates,Original*
G04 #@! TF.FileFunction,Copper,L1,Top*
G04 #@! TF.FilePolarity,Positive*
%FSLAX46Y46*%
G04 Gerber Fmt 4.6, Leading zero omitted, Abs format (unit mm)*
G04 Created by KiCad (PCBNEW 5.1.5-52549c5~84~ubuntu19.10.1) date 2020-03-18 22:44:12*
%MOMM*%
%LPD*%
G04 APERTURE LIST*
%ADD10C,0.300000*%
%ADD11C,1.524000*%
%ADD12O,1.600000X1.600000*%
%ADD13R,1.600000X1.600000*%
%ADD14C,3.000000*%
%ADD15R,3.000000X3.000000*%
%ADD16O,1.905000X2.000000*%
%ADD17R,1.905000X2.000000*%
%ADD18C,1.600000*%
%ADD19C,2.000000*%
%ADD20O,1.400000X1.400000*%
%ADD21C,1.400000*%
%ADD22R,2.000000X2.000000*%
G04 APERTURE END LIST*
D10*
X52435714Y-50208571D02*
X52435714Y-48708571D01*
X52435714Y-49280000D02*
X52578571Y-49208571D01*
X52864285Y-49208571D01*
X53007142Y-49280000D01*
X53078571Y-49351428D01*
X53150000Y-49494285D01*
X53150000Y-49922857D01*
X53078571Y-50065714D01*
X53007142Y-50137142D01*
X52864285Y-50208571D01*
X52578571Y-50208571D01*
X52435714Y-50137142D01*
X53650000Y-49208571D02*
X54007142Y-50208571D01*
X54364285Y-49208571D02*
X54007142Y-50208571D01*
X53864285Y-50565714D01*
X53792857Y-50637142D01*
X53650000Y-50708571D01*
X56078571Y-50208571D02*
X56078571Y-48708571D01*
X56650000Y-48708571D01*
X56792857Y-48780000D01*
X56864285Y-48851428D01*
X56935714Y-48994285D01*
X56935714Y-49208571D01*
X56864285Y-49351428D01*
X56792857Y-49422857D01*
X56650000Y-49494285D01*
X56078571Y-49494285D01*
X58221428Y-50208571D02*
X58221428Y-49422857D01*
X58150000Y-49280000D01*
X58007142Y-49208571D01*
X57721428Y-49208571D01*
X57578571Y-49280000D01*
X58221428Y-50137142D02*
X58078571Y-50208571D01*
X57721428Y-50208571D01*
X57578571Y-50137142D01*
X57507142Y-49994285D01*
X57507142Y-49851428D01*
X57578571Y-49708571D01*
X57721428Y-49637142D01*
X58078571Y-49637142D01*
X58221428Y-49565714D01*
X58792857Y-49208571D02*
X59078571Y-50208571D01*
X59364285Y-49494285D01*
X59650000Y-50208571D01*
X59935714Y-49208571D01*
X61078571Y-50137142D02*
X60935714Y-50208571D01*
X60650000Y-50208571D01*
X60507142Y-50137142D01*
X60435714Y-49994285D01*
X60435714Y-49422857D01*
X60507142Y-49280000D01*
X60650000Y-49208571D01*
X60935714Y-49208571D01*
X61078571Y-49280000D01*
X61150000Y-49422857D01*
X61150000Y-49565714D01*
X60435714Y-49708571D01*
X62007142Y-50208571D02*
X61864285Y-50137142D01*
X61792857Y-49994285D01*
X61792857Y-48708571D01*
X61578571Y-49494285D02*
X62007142Y-49208571D01*
X37771428Y-48708571D02*
X38628571Y-48708571D01*
X38200000Y-50208571D02*
X38200000Y-48708571D01*
X39700000Y-50137142D02*
X39557142Y-50208571D01*
X39271428Y-50208571D01*
X39128571Y-50137142D01*
X39057142Y-49994285D01*
X39057142Y-49422857D01*
X39128571Y-49280000D01*
X39271428Y-49208571D01*
X39557142Y-49208571D01*
X39700000Y-49280000D01*
X39771428Y-49422857D01*
X39771428Y-49565714D01*
X39057142Y-49708571D01*
X40200000Y-49208571D02*
X40771428Y-49208571D01*
X40414285Y-48708571D02*
X40414285Y-49994285D01*
X40485714Y-50137142D01*
X40628571Y-50208571D01*
X40771428Y-50208571D01*
X41271428Y-50208571D02*
X41271428Y-49208571D01*
X41271428Y-49494285D02*
X41342857Y-49351428D01*
X41414285Y-49280000D01*
X41557142Y-49208571D01*
X41700000Y-49208571D01*
X42200000Y-50208571D02*
X42200000Y-49208571D01*
X42200000Y-48708571D02*
X42128571Y-48780000D01*
X42200000Y-48851428D01*
X42271428Y-48780000D01*
X42200000Y-48708571D01*
X42200000Y-48851428D01*
X42842857Y-50137142D02*
X42985714Y-50208571D01*
X43271428Y-50208571D01*
X43414285Y-50137142D01*
X43485714Y-49994285D01*
X43485714Y-49922857D01*
X43414285Y-49780000D01*
X43271428Y-49708571D01*
X43057142Y-49708571D01*
X42914285Y-49637142D01*
X42842857Y-49494285D01*
X42842857Y-49422857D01*
X42914285Y-49280000D01*
X43057142Y-49208571D01*
X43271428Y-49208571D01*
X43414285Y-49280000D01*
X45271428Y-50208571D02*
X45271428Y-48708571D01*
X45271428Y-49280000D02*
X45414285Y-49208571D01*
X45700000Y-49208571D01*
X45842857Y-49280000D01*
X45914285Y-49351428D01*
X45985714Y-49494285D01*
X45985714Y-49922857D01*
X45914285Y-50065714D01*
X45842857Y-50137142D01*
X45700000Y-50208571D01*
X45414285Y-50208571D01*
X45271428Y-50137142D01*
X46842857Y-50208571D02*
X46700000Y-50137142D01*
X46628571Y-50065714D01*
X46557142Y-49922857D01*
X46557142Y-49494285D01*
X46628571Y-49351428D01*
X46700000Y-49280000D01*
X46842857Y-49208571D01*
X47057142Y-49208571D01*
X47200000Y-49280000D01*
X47271428Y-49351428D01*
X47342857Y-49494285D01*
X47342857Y-49922857D01*
X47271428Y-50065714D01*
X47200000Y-50137142D01*
X47057142Y-50208571D01*
X46842857Y-50208571D01*
X48628571Y-50208571D02*
X48628571Y-49422857D01*
X48557142Y-49280000D01*
X48414285Y-49208571D01*
X48128571Y-49208571D01*
X47985714Y-49280000D01*
X48628571Y-50137142D02*
X48485714Y-50208571D01*
X48128571Y-50208571D01*
X47985714Y-50137142D01*
X47914285Y-49994285D01*
X47914285Y-49851428D01*
X47985714Y-49708571D01*
X48128571Y-49637142D01*
X48485714Y-49637142D01*
X48628571Y-49565714D01*
X49342857Y-50208571D02*
X49342857Y-49208571D01*
X49342857Y-49494285D02*
X49414285Y-49351428D01*
X49485714Y-49280000D01*
X49628571Y-49208571D01*
X49771428Y-49208571D01*
X50914285Y-50208571D02*
X50914285Y-48708571D01*
X50914285Y-50137142D02*
X50771428Y-50208571D01*
X50485714Y-50208571D01*
X50342857Y-50137142D01*
X50271428Y-50065714D01*
X50200000Y-49922857D01*
X50200000Y-49494285D01*
X50271428Y-49351428D01*
X50342857Y-49280000D01*
X50485714Y-49208571D01*
X50771428Y-49208571D01*
X50914285Y-49280000D01*
D11*
X109220000Y-161290000D03*
X109220000Y-158750000D03*
X109220000Y-156210000D03*
X109220000Y-153670000D03*
X109220000Y-151130000D03*
X109220000Y-148590000D03*
X109220000Y-146050000D03*
X63500000Y-161290000D03*
X63500000Y-158750000D03*
X63500000Y-156210000D03*
X63500000Y-153670000D03*
X63500000Y-151130000D03*
X63500000Y-148590000D03*
X63500000Y-146050000D03*
X137160000Y-111760000D03*
X137160000Y-114300000D03*
X124460000Y-102870000D03*
X124460000Y-105410000D03*
X124460000Y-107950000D03*
X124460000Y-110490000D03*
X124460000Y-113030000D03*
X124460000Y-115570000D03*
X124460000Y-118110000D03*
X124460000Y-120650000D03*
X124460000Y-123190000D03*
X124460000Y-125730000D03*
X124460000Y-128270000D03*
X124460000Y-130810000D03*
X132080000Y-130810000D03*
X134620000Y-130810000D03*
X137160000Y-130810000D03*
X139700000Y-102870000D03*
X139700000Y-105410000D03*
X139700000Y-107950000D03*
X139700000Y-110490000D03*
X139700000Y-113030000D03*
X139700000Y-115570000D03*
X139700000Y-118110000D03*
X139700000Y-120650000D03*
X139700000Y-123190000D03*
X139700000Y-125730000D03*
X139700000Y-128270000D03*
X139700000Y-130810000D03*
X90170000Y-59690000D03*
X87630000Y-59690000D03*
X85090000Y-59690000D03*
X82550000Y-59690000D03*
X80010000Y-59690000D03*
X77470000Y-59690000D03*
X74930000Y-59690000D03*
X72390000Y-59690000D03*
X69850000Y-59690000D03*
X67310000Y-59690000D03*
X64770000Y-59690000D03*
X62230000Y-59690000D03*
X59690000Y-59690000D03*
X57150000Y-59690000D03*
X54610000Y-59690000D03*
X52070000Y-59690000D03*
X109220000Y-199390000D03*
X109220000Y-196850000D03*
X109220000Y-194310000D03*
X109220000Y-191770000D03*
X109220000Y-189230000D03*
X109220000Y-186690000D03*
X109220000Y-184150000D03*
X63500000Y-199390000D03*
X63500000Y-196850000D03*
X63500000Y-194310000D03*
X63500000Y-191770000D03*
X63500000Y-189230000D03*
X63500000Y-186690000D03*
X63500000Y-184150000D03*
D12*
X53340000Y-100330000D03*
X45720000Y-118110000D03*
X53340000Y-102870000D03*
X45720000Y-115570000D03*
X53340000Y-105410000D03*
X45720000Y-113030000D03*
X53340000Y-107950000D03*
X45720000Y-110490000D03*
X53340000Y-110490000D03*
X45720000Y-107950000D03*
X53340000Y-113030000D03*
X45720000Y-105410000D03*
X53340000Y-115570000D03*
X45720000Y-102870000D03*
X53340000Y-118110000D03*
D13*
X45720000Y-100330000D03*
D11*
X109220000Y-123190000D03*
X109220000Y-120650000D03*
X109220000Y-118110000D03*
X109220000Y-115570000D03*
X109220000Y-113030000D03*
X109220000Y-110490000D03*
X109220000Y-107950000D03*
X63500000Y-123190000D03*
X63500000Y-120650000D03*
X63500000Y-118110000D03*
X63500000Y-115570000D03*
X63500000Y-113030000D03*
X63500000Y-110490000D03*
X63500000Y-107950000D03*
D12*
X53340000Y-146050000D03*
X45720000Y-163830000D03*
X53340000Y-148590000D03*
X45720000Y-161290000D03*
X53340000Y-151130000D03*
X45720000Y-158750000D03*
X53340000Y-153670000D03*
X45720000Y-156210000D03*
X53340000Y-156210000D03*
X45720000Y-153670000D03*
X53340000Y-158750000D03*
X45720000Y-151130000D03*
X53340000Y-161290000D03*
X45720000Y-148590000D03*
X53340000Y-163830000D03*
D13*
X45720000Y-146050000D03*
D14*
X139700000Y-201930000D03*
D15*
X139700000Y-207010000D03*
D16*
X124460000Y-205740000D03*
X127000000Y-205740000D03*
D17*
X129540000Y-205740000D03*
D18*
X138430000Y-218400000D03*
D13*
X138430000Y-215900000D03*
D18*
X130810000Y-218400000D03*
D13*
X130810000Y-215900000D03*
D19*
X101750000Y-222250000D03*
X101750000Y-226750000D03*
X95250000Y-222250000D03*
X95250000Y-226750000D03*
X89050000Y-229870000D03*
X89050000Y-234370000D03*
X82550000Y-229870000D03*
X82550000Y-234370000D03*
X89050000Y-214630000D03*
X89050000Y-219130000D03*
X82550000Y-214630000D03*
X82550000Y-219130000D03*
X76350000Y-222250000D03*
X76350000Y-226750000D03*
X69850000Y-222250000D03*
X69850000Y-226750000D03*
D20*
X138430000Y-139700000D03*
D21*
X138430000Y-144780000D03*
D20*
X132080000Y-72390000D03*
D21*
X132080000Y-67310000D03*
D20*
X132080000Y-81280000D03*
D21*
X132080000Y-76200000D03*
D20*
X132080000Y-90170000D03*
D21*
X132080000Y-85090000D03*
D20*
X106680000Y-232410000D03*
D21*
X111760000Y-232410000D03*
D20*
X57150000Y-223520000D03*
D21*
X57150000Y-228600000D03*
D20*
X49530000Y-228600000D03*
D21*
X49530000Y-223520000D03*
D20*
X49530000Y-218440000D03*
D21*
X49530000Y-213360000D03*
D20*
X49530000Y-208280000D03*
D21*
X49530000Y-203200000D03*
D19*
X130830000Y-175260000D03*
D22*
X138430000Y-175260000D03*
D20*
X52070000Y-139700000D03*
D21*
X46990000Y-139700000D03*
D20*
X52070000Y-134620000D03*
D21*
X46990000Y-134620000D03*
D20*
X52070000Y-129540000D03*
D21*
X46990000Y-129540000D03*
D20*
X52070000Y-124460000D03*
D21*
X46990000Y-124460000D03*
D20*
X49530000Y-175260000D03*
D21*
X49530000Y-170180000D03*
D20*
X124460000Y-173990000D03*
D21*
X124460000Y-168910000D03*
D20*
X49530000Y-195580000D03*
D21*
X49530000Y-190500000D03*
D20*
X49530000Y-185420000D03*
D21*
X49530000Y-180340000D03*
D12*
X134620000Y-146050000D03*
X127000000Y-163830000D03*
X134620000Y-148590000D03*
X127000000Y-161290000D03*
X134620000Y-151130000D03*
X127000000Y-158750000D03*
X134620000Y-153670000D03*
X127000000Y-156210000D03*
X134620000Y-156210000D03*
X127000000Y-153670000D03*
X134620000Y-158750000D03*
X127000000Y-151130000D03*
X134620000Y-161290000D03*
X127000000Y-148590000D03*
X134620000Y-163830000D03*
D13*
X127000000Y-146050000D03*
D10*
X147320000Y-107950000D02*
X147320000Y-108194999D01*
X45720000Y-105410000D02*
X46990000Y-105410000D01*
X46990000Y-105410000D02*
X48260000Y-104140000D01*
X48260000Y-104140000D02*
X64770000Y-104140000D01*
X64770000Y-104140000D02*
X67310000Y-104140000D01*
X67310000Y-104140000D02*
X81280000Y-118110000D01*
X109220000Y-118110000D02*
X81280000Y-118110000D01*
X46990000Y-101600000D02*
X45720000Y-102870000D01*
X105410000Y-113030000D02*
X106680000Y-111760000D01*
X106045000Y-115570000D02*
X105410000Y-114935000D01*
X111125000Y-111125000D02*
X111125000Y-109855000D01*
X105410000Y-114935000D02*
X105410000Y-113030000D01*
X106680000Y-111760000D02*
X110490000Y-111760000D01*
X110490000Y-109220000D02*
X87630000Y-109220000D01*
X109220000Y-115570000D02*
X106045000Y-115570000D01*
X87630000Y-109220000D02*
X80010000Y-101600000D01*
X110490000Y-111760000D02*
X111125000Y-111125000D01*
X111125000Y-109855000D02*
X110490000Y-109220000D01*
X80010000Y-101600000D02*
X46990000Y-101600000D01*
X73660000Y-102870000D02*
X81280000Y-110490000D01*
X64770000Y-102870000D02*
X73660000Y-102870000D01*
X109220000Y-110490000D02*
X81280000Y-110490000D01*
X64770000Y-102870000D02*
X53340000Y-102870000D01*
X46990000Y-107950000D02*
X48260000Y-109220000D01*
X59690000Y-120650000D02*
X63500000Y-120650000D01*
X57150000Y-110490000D02*
X57150000Y-118110000D01*
X57150000Y-118110000D02*
X59690000Y-120650000D01*
X45720000Y-107950000D02*
X46990000Y-107950000D01*
X48260000Y-109220000D02*
X55880000Y-109220000D01*
X55880000Y-109220000D02*
X57150000Y-110490000D01*
X57150000Y-106680000D02*
X63500000Y-113030000D01*
X44670000Y-100330000D02*
X43180000Y-101820000D01*
X43180000Y-101820000D02*
X43180000Y-105410000D01*
X43180000Y-105410000D02*
X44450000Y-106680000D01*
X45720000Y-100330000D02*
X44670000Y-100330000D01*
X44450000Y-106680000D02*
X57150000Y-106680000D01*
X115570000Y-194310000D02*
X109220000Y-194310000D01*
X120650000Y-189230000D02*
X115570000Y-194310000D01*
X120650000Y-157480000D02*
X120650000Y-189230000D01*
X124460000Y-156210000D02*
X121920000Y-156210000D01*
X121920000Y-156210000D02*
X120650000Y-157480000D01*
X124460000Y-156210000D02*
X127000000Y-156210000D01*
X118110000Y-186690000D02*
X113030000Y-191770000D01*
X124460000Y-153670000D02*
X119380000Y-153670000D01*
X113030000Y-191770000D02*
X109220000Y-191770000D01*
X118110000Y-154940000D02*
X118110000Y-186690000D01*
X119380000Y-153670000D02*
X118110000Y-154940000D01*
X124460000Y-153670000D02*
X127000000Y-153670000D01*
X119380000Y-148590000D02*
X124460000Y-148590000D01*
X116840000Y-151130000D02*
X119380000Y-148590000D01*
X116840000Y-185420000D02*
X116840000Y-151130000D01*
X124460000Y-148590000D02*
X127000000Y-148590000D01*
X116840000Y-185420000D02*
X115570000Y-186690000D01*
X115570000Y-186690000D02*
X109220000Y-186690000D01*
X123190000Y-158750000D02*
X121920000Y-160020000D01*
X127000000Y-158750000D02*
X123190000Y-158750000D01*
X121920000Y-160020000D02*
X121920000Y-190500000D01*
X121920000Y-190500000D02*
X110490000Y-201930000D01*
X74930000Y-203835000D02*
X67945000Y-196850000D01*
X108585000Y-203835000D02*
X74930000Y-203835000D01*
X67945000Y-196850000D02*
X63500000Y-196850000D01*
X110490000Y-201930000D02*
X108585000Y-203835000D01*
X119380000Y-156210000D02*
X119380000Y-187960000D01*
X86995000Y-189230000D02*
X63500000Y-189230000D01*
X128270000Y-151130000D02*
X129540000Y-152400000D01*
X120650000Y-154940000D02*
X119380000Y-156210000D01*
X129540000Y-154305000D02*
X128905000Y-154940000D01*
X127000000Y-151130000D02*
X128270000Y-151130000D01*
X128905000Y-154940000D02*
X120650000Y-154940000D01*
X129540000Y-152400000D02*
X129540000Y-154305000D01*
X99060000Y-201295000D02*
X86995000Y-189230000D01*
X107950000Y-193040000D02*
X107315000Y-193675000D01*
X111760000Y-199390000D02*
X109855000Y-201295000D01*
X109855000Y-201295000D02*
X99060000Y-201295000D01*
X119380000Y-188595000D02*
X114935000Y-193040000D01*
X119380000Y-187960000D02*
X119380000Y-188595000D01*
X107315000Y-193675000D02*
X107315000Y-194945000D01*
X114935000Y-193040000D02*
X107950000Y-193040000D01*
X107315000Y-194945000D02*
X107950000Y-195580000D01*
X107950000Y-195580000D02*
X111125000Y-195580000D01*
X111125000Y-195580000D02*
X111760000Y-196215000D01*
X111760000Y-196215000D02*
X111760000Y-199390000D01*
X50800000Y-143510000D02*
X50800000Y-148590000D01*
X52070000Y-142240000D02*
X50800000Y-143510000D01*
X50800000Y-148590000D02*
X53340000Y-151130000D01*
X54610000Y-200660000D02*
X54610000Y-172720000D01*
X57785000Y-203835000D02*
X54610000Y-200660000D01*
X57785000Y-203835000D02*
X61595000Y-207645000D01*
X127000000Y-196215000D02*
X115570000Y-207645000D01*
X115570000Y-207645000D02*
X61595000Y-207645000D01*
X134620000Y-165735000D02*
X134620000Y-163830000D01*
X128270000Y-172085000D02*
X134620000Y-165735000D01*
X127000000Y-196215000D02*
X128270000Y-194945000D01*
X128270000Y-194945000D02*
X128270000Y-172085000D01*
X54610000Y-142240000D02*
X52070000Y-142240000D01*
X57150000Y-170180000D02*
X54610000Y-172720000D01*
X55880000Y-149860000D02*
X57150000Y-151130000D01*
X57150000Y-151130000D02*
X57150000Y-170180000D01*
X55880000Y-143510000D02*
X55880000Y-149860000D01*
X54610000Y-142240000D02*
X55880000Y-143510000D01*
X60960000Y-154940000D02*
X62230000Y-156210000D01*
X60960000Y-150495000D02*
X60960000Y-154940000D01*
X63500000Y-118110000D02*
X64770000Y-118110000D01*
X59690000Y-149225000D02*
X60960000Y-150495000D01*
X64770000Y-118110000D02*
X67310000Y-120650000D01*
X62230000Y-156210000D02*
X63500000Y-156210000D01*
X67310000Y-120650000D02*
X67310000Y-130810000D01*
X67310000Y-130810000D02*
X59690000Y-138430000D01*
X59690000Y-138430000D02*
X59690000Y-149225000D01*
X64577630Y-156210000D02*
X66040000Y-157672370D01*
X63500000Y-156210000D02*
X64577630Y-156210000D01*
X62422370Y-194310000D02*
X59690000Y-191577630D01*
X63500000Y-194310000D02*
X62422370Y-194310000D01*
X59690000Y-191577630D02*
X59690000Y-182880000D01*
X59690000Y-182880000D02*
X66040000Y-176530000D01*
X66040000Y-157672370D02*
X66040000Y-176530000D01*
X67310000Y-146050000D02*
X63500000Y-146050000D01*
X67310000Y-146050000D02*
X69850000Y-148590000D01*
X69850000Y-143510000D02*
X67310000Y-146050000D01*
X69850000Y-180340000D02*
X66040000Y-184150000D01*
X66040000Y-184150000D02*
X63500000Y-184150000D01*
X69850000Y-148590000D02*
X69850000Y-180340000D01*
X69850000Y-111760000D02*
X69850000Y-143510000D01*
X66040000Y-107950000D02*
X69850000Y-111760000D01*
X63500000Y-107950000D02*
X66040000Y-107950000D01*
X66040000Y-110490000D02*
X68580000Y-113030000D01*
X63500000Y-110490000D02*
X66040000Y-110490000D01*
X63500000Y-148590000D02*
X62230000Y-147320000D01*
X63500000Y-148590000D02*
X60960000Y-146050000D01*
X60960000Y-146050000D02*
X60960000Y-142240000D01*
X60960000Y-142240000D02*
X64770000Y-138430000D01*
X64770000Y-138430000D02*
X68580000Y-134620000D01*
X68580000Y-113030000D02*
X68580000Y-134620000D01*
X63500000Y-148590000D02*
X66675000Y-148590000D01*
X67310000Y-149225000D02*
X67310000Y-177800000D01*
X66675000Y-148590000D02*
X67310000Y-149225000D01*
X67310000Y-177800000D02*
X60960000Y-184150000D01*
X60960000Y-184150000D02*
X60960000Y-185420000D01*
X62230000Y-186690000D02*
X63500000Y-186690000D01*
X60960000Y-185420000D02*
X62230000Y-186690000D01*
X127000000Y-161290000D02*
X125730000Y-161290000D01*
X124460000Y-162560000D02*
X124460000Y-168910000D01*
X125730000Y-161290000D02*
X124460000Y-162560000D01*
X60960000Y-199390000D02*
X63500000Y-199390000D01*
X63500000Y-161290000D02*
X62230000Y-162560000D01*
X57150000Y-182880000D02*
X57150000Y-195580000D01*
X57150000Y-195580000D02*
X60960000Y-199390000D01*
X62230000Y-177800000D02*
X57150000Y-182880000D01*
X62230000Y-162560000D02*
X62230000Y-177800000D01*
X59690000Y-159385000D02*
X61595000Y-161290000D01*
X60960000Y-123190000D02*
X58420000Y-125730000D01*
X58420000Y-125730000D02*
X58420000Y-149860000D01*
X63500000Y-123190000D02*
X60960000Y-123190000D01*
X58420000Y-149860000D02*
X59690000Y-151130000D01*
X61595000Y-161290000D02*
X63500000Y-161290000D01*
X59690000Y-151130000D02*
X59690000Y-159385000D01*
X54610000Y-170180000D02*
X49530000Y-170180000D01*
X55880000Y-168910000D02*
X54610000Y-170180000D01*
X55880000Y-151130000D02*
X55880000Y-154940000D01*
X53340000Y-148590000D02*
X55880000Y-151130000D01*
X55880000Y-153670000D02*
X55880000Y-154940000D01*
X55880000Y-154940000D02*
X55880000Y-168910000D01*
X109220000Y-113030000D02*
X113030000Y-113030000D01*
X113030000Y-113030000D02*
X114300000Y-114300000D01*
X114300000Y-152400000D02*
X114300000Y-181610000D01*
X114300000Y-142240000D02*
X113030000Y-143510000D01*
X114300000Y-114300000D02*
X114300000Y-142240000D01*
X113030000Y-143510000D02*
X107315000Y-143510000D01*
X107315000Y-143510000D02*
X106045000Y-144780000D01*
X106045000Y-144780000D02*
X106045000Y-149860000D01*
X107315000Y-151130000D02*
X109220000Y-151130000D01*
X106045000Y-149860000D02*
X107315000Y-151130000D01*
X109220000Y-151130000D02*
X113030000Y-151130000D01*
X113030000Y-151130000D02*
X114300000Y-152400000D01*
X107950000Y-189230000D02*
X109220000Y-189230000D01*
X113665000Y-182245000D02*
X107950000Y-182245000D01*
X107315000Y-188595000D02*
X107950000Y-189230000D01*
X114300000Y-181610000D02*
X113665000Y-182245000D01*
X107950000Y-182245000D02*
X107315000Y-182880000D01*
X107315000Y-182880000D02*
X107315000Y-188595000D01*
X43180000Y-148590000D02*
X45720000Y-151130000D01*
X43180000Y-138430000D02*
X43180000Y-148590000D01*
X43180000Y-130810000D02*
X43180000Y-138430000D01*
X46000051Y-124460000D02*
X43180000Y-127280051D01*
X46990000Y-124460000D02*
X46000051Y-124460000D01*
X43180000Y-127280051D02*
X43180000Y-130810000D01*
X104140000Y-199390000D02*
X109220000Y-199390000D01*
X104775000Y-161290000D02*
X109220000Y-161290000D01*
X102870000Y-159385000D02*
X104775000Y-161290000D01*
X102870000Y-125730000D02*
X102870000Y-159385000D01*
X104140000Y-124460000D02*
X102870000Y-125730000D01*
X105410000Y-123190000D02*
X104140000Y-124460000D01*
X109220000Y-123190000D02*
X105410000Y-123190000D01*
X102235000Y-163830000D02*
X102235000Y-197485000D01*
X104775000Y-161290000D02*
X102235000Y-163830000D01*
X102235000Y-197485000D02*
X104140000Y-199390000D01*
X44450000Y-138430000D02*
X44450000Y-140970000D01*
X46990000Y-143510000D02*
X46990000Y-152400000D01*
X46990000Y-152400000D02*
X45720000Y-153670000D01*
X44450000Y-140970000D02*
X46990000Y-143510000D01*
X46990000Y-129540000D02*
X44450000Y-132080000D01*
X44450000Y-132080000D02*
X44450000Y-138430000D01*
X114300000Y-146050000D02*
X109220000Y-146050000D01*
X115570000Y-144780000D02*
X114300000Y-146050000D01*
X115570000Y-109220000D02*
X115570000Y-144780000D01*
X109220000Y-107950000D02*
X114300000Y-107950000D01*
X114300000Y-107950000D02*
X115570000Y-109220000D01*
X114300000Y-146050000D02*
X115570000Y-147320000D01*
X115570000Y-147320000D02*
X115570000Y-182880000D01*
X115570000Y-182880000D02*
X114300000Y-184150000D01*
X114300000Y-184150000D02*
X109220000Y-184150000D01*
X46990000Y-137160000D02*
X45720000Y-138430000D01*
X46990000Y-134620000D02*
X46990000Y-137160000D01*
X45720000Y-138430000D02*
X45720000Y-140970000D01*
X48260000Y-143510000D02*
X48260000Y-153670000D01*
X48260000Y-153670000D02*
X45720000Y-156210000D01*
X45720000Y-140970000D02*
X48260000Y-143510000D01*
X111760000Y-120650000D02*
X113030000Y-121920000D01*
X109220000Y-120650000D02*
X111760000Y-120650000D01*
X113030000Y-121920000D02*
X113030000Y-140335000D01*
X111760000Y-141605000D02*
X105410000Y-141605000D01*
X113030000Y-140335000D02*
X111760000Y-141605000D01*
X105410000Y-141605000D02*
X104775000Y-142240000D01*
X106045000Y-158750000D02*
X109220000Y-158750000D01*
X104775000Y-142240000D02*
X104775000Y-157480000D01*
X104775000Y-157480000D02*
X106045000Y-158750000D01*
X110490000Y-158750000D02*
X109220000Y-158750000D01*
X111760000Y-160020000D02*
X110490000Y-158750000D01*
X109220000Y-196850000D02*
X106045000Y-196850000D01*
X106045000Y-196850000D02*
X104775000Y-195580000D01*
X104775000Y-170180000D02*
X111760000Y-163195000D01*
X104775000Y-195580000D02*
X104775000Y-170180000D01*
X111760000Y-163195000D02*
X111760000Y-160020000D01*
X46990000Y-139700000D02*
X48260000Y-139700000D01*
X48260000Y-156210000D02*
X45720000Y-158750000D01*
X49530000Y-154940000D02*
X48260000Y-156210000D01*
X49530000Y-140970000D02*
X49530000Y-154940000D01*
X48260000Y-139700000D02*
X49530000Y-140970000D01*
X138430000Y-144780000D02*
X138430000Y-175260000D01*
X49530000Y-208280000D02*
X49530000Y-213360000D01*
X81280000Y-213360000D02*
X82550000Y-214630000D01*
X49530000Y-213360000D02*
X81280000Y-213360000D01*
X49530000Y-218440000D02*
X49530000Y-223520000D01*
X49530000Y-218440000D02*
X77470000Y-218440000D01*
X81280000Y-222250000D02*
X87630000Y-222250000D01*
X77470000Y-218440000D02*
X81280000Y-222250000D01*
X87630000Y-222250000D02*
X95250000Y-222250000D01*
X49530000Y-228600000D02*
X57150000Y-228600000D01*
X58139949Y-228600000D02*
X59409949Y-229870000D01*
X57150000Y-228600000D02*
X58139949Y-228600000D01*
X59409949Y-229870000D02*
X64135000Y-229870000D01*
X64135000Y-229870000D02*
X82550000Y-229870000D01*
X57150000Y-223520000D02*
X58420000Y-223520000D01*
X59690000Y-222250000D02*
X69850000Y-222250000D01*
X58420000Y-223520000D02*
X59690000Y-222250000D01*
X132080000Y-81280000D02*
X132080000Y-85090000D01*
X45720000Y-201930000D02*
X46990000Y-203200000D01*
X138430000Y-215900000D02*
X140970000Y-215900000D01*
X142240000Y-220980000D02*
X138430000Y-224790000D01*
X136110000Y-224790000D02*
X134620000Y-224790000D01*
X142240000Y-217170000D02*
X142240000Y-220980000D01*
X41910000Y-167640000D02*
X45720000Y-171450000D01*
X45720000Y-171450000D02*
X45720000Y-201930000D01*
X46990000Y-203200000D02*
X49530000Y-203200000D01*
X54610000Y-95250000D02*
X52070000Y-97790000D01*
X124460000Y-214630000D02*
X124460000Y-205740000D01*
X46990000Y-167640000D02*
X41910000Y-167640000D01*
X53340000Y-161290000D02*
X46990000Y-167640000D01*
X140970000Y-215900000D02*
X142240000Y-217170000D01*
X134620000Y-224790000D02*
X127000000Y-224790000D01*
X138430000Y-224790000D02*
X134620000Y-224790000D01*
X127000000Y-224790000D02*
X118110000Y-233680000D01*
X52070000Y-97790000D02*
X43180000Y-97790000D01*
X109220000Y-231387002D02*
X109220000Y-229870000D01*
X109220000Y-229870000D02*
X124460000Y-214630000D01*
X53340000Y-99060000D02*
X52070000Y-97790000D01*
X53340000Y-100330000D02*
X53340000Y-99060000D01*
X43180000Y-97790000D02*
X41910000Y-99060000D01*
X109220000Y-231387002D02*
X109220000Y-232410000D01*
X109220000Y-232410000D02*
X110490000Y-233680000D01*
X110490000Y-233680000D02*
X111760000Y-233680000D01*
X118110000Y-233680000D02*
X111760000Y-233680000D01*
X55880000Y-209550000D02*
X51435000Y-205105000D01*
X123257500Y-205740000D02*
X119447500Y-209550000D01*
X51435000Y-205105000D02*
X49530000Y-203200000D01*
X119447500Y-209550000D02*
X55880000Y-209550000D01*
X124460000Y-205740000D02*
X123257500Y-205740000D01*
X54610000Y-59690000D02*
X54610000Y-58420000D01*
X54610000Y-58420000D02*
X53340000Y-57150000D01*
X53340000Y-57150000D02*
X50800000Y-57150000D01*
X50800000Y-57150000D02*
X49530000Y-58420000D01*
X49530000Y-63500000D02*
X54610000Y-68580000D01*
X49530000Y-58420000D02*
X49530000Y-63500000D01*
X54610000Y-68580000D02*
X54610000Y-95250000D01*
X41910000Y-120650000D02*
X46990000Y-120650000D01*
X41910000Y-99060000D02*
X41910000Y-120650000D01*
X46990000Y-120650000D02*
X52070000Y-115570000D01*
X52070000Y-115570000D02*
X53340000Y-115570000D01*
X40640000Y-166370000D02*
X41910000Y-167640000D01*
X40640000Y-121920000D02*
X40640000Y-166370000D01*
X41910000Y-120650000D02*
X40640000Y-121920000D01*
X89050000Y-219130000D02*
X102290000Y-219130000D01*
X106680000Y-223520000D02*
X106680000Y-232410000D01*
X102290000Y-219130000D02*
X106680000Y-223520000D01*
X106680000Y-231680000D02*
X106680000Y-232410000D01*
X101750000Y-226750000D02*
X106680000Y-231680000D01*
X76350000Y-226750000D02*
X90860000Y-226750000D01*
X96520000Y-232410000D02*
X106680000Y-232410000D01*
X90860000Y-226750000D02*
X96520000Y-232410000D01*
X104720000Y-234370000D02*
X106680000Y-232410000D01*
X89050000Y-234370000D02*
X104720000Y-234370000D01*
X139700000Y-120650000D02*
X146050000Y-127000000D01*
X146050000Y-127000000D02*
X146050000Y-223520000D01*
X143510000Y-226060000D02*
X128270000Y-226060000D01*
X128270000Y-226060000D02*
X119380000Y-234950000D01*
X146050000Y-223520000D02*
X143510000Y-226060000D01*
X106680000Y-232410000D02*
X106680000Y-233680000D01*
X107950000Y-234950000D02*
X112395000Y-234950000D01*
X106680000Y-233680000D02*
X107950000Y-234950000D01*
X119380000Y-234950000D02*
X112395000Y-234950000D01*
X139129999Y-139000001D02*
X138430000Y-139700000D01*
X139700000Y-128270000D02*
X142240000Y-128270000D01*
X143510000Y-129540000D02*
X143510000Y-134620000D01*
X143510000Y-134620000D02*
X139129999Y-139000001D01*
X142240000Y-128270000D02*
X143510000Y-129540000D01*
X124460000Y-113030000D02*
X128270000Y-113030000D01*
X128270000Y-113030000D02*
X130175000Y-114935000D01*
X134620000Y-156210000D02*
X132715000Y-154305000D01*
X132715000Y-154305000D02*
X132715000Y-136525000D01*
X132715000Y-136525000D02*
X130175000Y-133985000D01*
X130175000Y-114935000D02*
X130175000Y-133985000D01*
X53340000Y-158750000D02*
X45720000Y-166370000D01*
X45720000Y-166370000D02*
X44450000Y-166370000D01*
X44450000Y-166370000D02*
X43180000Y-165100000D01*
X43180000Y-165100000D02*
X41910000Y-163830000D01*
X41910000Y-163830000D02*
X41910000Y-125730000D01*
X41910000Y-125730000D02*
X44450000Y-123190000D01*
X53340000Y-113030000D02*
X54610000Y-114300000D01*
X55880000Y-198120000D02*
X55880000Y-181610000D01*
X60960000Y-203200000D02*
X55880000Y-198120000D01*
X63500000Y-205740000D02*
X109220000Y-205740000D01*
X60960000Y-203200000D02*
X63500000Y-205740000D01*
X127000000Y-170180000D02*
X127000000Y-191770000D01*
X113030000Y-205740000D02*
X111760000Y-205740000D01*
X127000000Y-191770000D02*
X113030000Y-205740000D01*
X111760000Y-205740000D02*
X109220000Y-205740000D01*
X131445000Y-158750000D02*
X131445000Y-165735000D01*
X129540000Y-167640000D02*
X128270000Y-168910000D01*
X131445000Y-165735000D02*
X128270000Y-168910000D01*
X128270000Y-168910000D02*
X127000000Y-170180000D01*
X131445000Y-158750000D02*
X134620000Y-158750000D01*
X130810000Y-158115000D02*
X131445000Y-158750000D01*
X128270000Y-138430000D02*
X130810000Y-140970000D01*
X124460000Y-115570000D02*
X127000000Y-115570000D01*
X127000000Y-115570000D02*
X128270000Y-116840000D01*
X128270000Y-116840000D02*
X128270000Y-138430000D01*
X130810000Y-140970000D02*
X130810000Y-158115000D01*
X53340000Y-113030000D02*
X55880000Y-115570000D01*
X55880000Y-115570000D02*
X55880000Y-125730000D01*
X55880000Y-125730000D02*
X54610000Y-124460000D01*
X44450000Y-123190000D02*
X45720000Y-121920000D01*
X45720000Y-121920000D02*
X52070000Y-121920000D01*
X52070000Y-121920000D02*
X54610000Y-124460000D01*
X55880000Y-181610000D02*
X57150000Y-180340000D01*
X57150000Y-127000000D02*
X55880000Y-125730000D01*
X57150000Y-147320000D02*
X57150000Y-146050000D01*
X57150000Y-146050000D02*
X57150000Y-127000000D01*
X58420000Y-151130000D02*
X58420000Y-179070000D01*
X57150000Y-149860000D02*
X58420000Y-151130000D01*
X58420000Y-179070000D02*
X57150000Y-180340000D01*
X57150000Y-146050000D02*
X57150000Y-149860000D01*
X138430000Y-218400000D02*
X130810000Y-218400000D01*
X116800000Y-232410000D02*
X130810000Y-218400000D01*
X111760000Y-232410000D02*
X116800000Y-232410000D01*
X130810000Y-218400000D02*
X128230000Y-218400000D01*
X128230000Y-218400000D02*
X127000000Y-217170000D01*
X134140000Y-210820000D02*
X127000000Y-210820000D01*
X137950000Y-207010000D02*
X134140000Y-210820000D01*
X139700000Y-207010000D02*
X137950000Y-207010000D01*
X127000000Y-217170000D02*
X127000000Y-210820000D01*
X127000000Y-210820000D02*
X127000000Y-205740000D01*
X90170000Y-59690000D02*
X90170000Y-62230000D01*
X90170000Y-62230000D02*
X88900000Y-63500000D01*
X130830000Y-198775000D02*
X130790000Y-198775000D01*
X130830000Y-175260000D02*
X130830000Y-198775000D01*
X127000000Y-202565000D02*
X127000000Y-205740000D01*
X130790000Y-198775000D02*
X127000000Y-202565000D01*
X52070000Y-59690000D02*
X52070000Y-60960000D01*
X52070000Y-60960000D02*
X54610000Y-63500000D01*
X54610000Y-63500000D02*
X58420000Y-63500000D01*
X58420000Y-63500000D02*
X62230000Y-59690000D01*
X62230000Y-59690000D02*
X66040000Y-63500000D01*
X88900000Y-63500000D02*
X66040000Y-63500000D01*
X50800000Y-158750000D02*
X48260000Y-161290000D01*
X50800000Y-154940000D02*
X50800000Y-158750000D01*
X48260000Y-161290000D02*
X45720000Y-163830000D01*
X52070000Y-153670000D02*
X50800000Y-154940000D01*
X53340000Y-153670000D02*
X52070000Y-153670000D01*
X131860000Y-215900000D02*
X136940000Y-210820000D01*
X130810000Y-215900000D02*
X131860000Y-215900000D01*
X136940000Y-210820000D02*
X140970000Y-210820000D01*
X140970000Y-210820000D02*
X143510000Y-208280000D01*
X143510000Y-205740000D02*
X139700000Y-201930000D01*
X143510000Y-208280000D02*
X143510000Y-205740000D01*
X130810000Y-205740000D02*
X129540000Y-205740000D01*
X139700000Y-201930000D02*
X134620000Y-201930000D01*
X134620000Y-201930000D02*
X130810000Y-205740000D01*
X57150000Y-57150000D02*
X58420000Y-55880000D01*
X57150000Y-59690000D02*
X57150000Y-57150000D01*
X58420000Y-55880000D02*
X59690000Y-54610000D01*
X59690000Y-54610000D02*
X73660000Y-54610000D01*
X73660000Y-54610000D02*
X77470000Y-50800000D01*
X77470000Y-50800000D02*
X115570000Y-50800000D01*
X128270000Y-63500000D02*
X128270000Y-74930000D01*
X115570000Y-50800000D02*
X128270000Y-63500000D01*
X128270000Y-74930000D02*
X129540000Y-76200000D01*
X129540000Y-76200000D02*
X132080000Y-76200000D01*
X59690000Y-59690000D02*
X59690000Y-58420000D01*
X59690000Y-58420000D02*
X60960000Y-57150000D01*
X123190000Y-99060000D02*
X121920000Y-100330000D01*
X121920000Y-100330000D02*
X121920000Y-119380000D01*
X123190000Y-120650000D02*
X124460000Y-120650000D01*
X121920000Y-119380000D02*
X123190000Y-120650000D01*
X60960000Y-57150000D02*
X62230000Y-55880000D01*
X62230000Y-55880000D02*
X74930000Y-55880000D01*
X78740000Y-52070000D02*
X74930000Y-55880000D01*
X125730000Y-96520000D02*
X125095000Y-97155000D01*
X125095000Y-97155000D02*
X123190000Y-99060000D01*
X125730000Y-63500000D02*
X125730000Y-96520000D01*
X114300000Y-52070000D02*
X125730000Y-63500000D01*
X78740000Y-52070000D02*
X114300000Y-52070000D01*
X66040000Y-58420000D02*
X64770000Y-59690000D01*
X111760000Y-53340000D02*
X80010000Y-53340000D01*
X120650000Y-121920000D02*
X121920000Y-123190000D01*
X121920000Y-97790000D02*
X120650000Y-99060000D01*
X121920000Y-123190000D02*
X124460000Y-123190000D01*
X120650000Y-99060000D02*
X120650000Y-121920000D01*
X66040000Y-58420000D02*
X67310000Y-57150000D01*
X67310000Y-57150000D02*
X76200000Y-57150000D01*
X80010000Y-53340000D02*
X76200000Y-57150000D01*
X121920000Y-97790000D02*
X123190000Y-96520000D01*
X123190000Y-64770000D02*
X123190000Y-96520000D01*
X123190000Y-64770000D02*
X111760000Y-53340000D01*
X121920000Y-125730000D02*
X124460000Y-125730000D01*
X119380000Y-123190000D02*
X121920000Y-125730000D01*
X119380000Y-66040000D02*
X119380000Y-123190000D01*
X77470000Y-59690000D02*
X77470000Y-58420000D01*
X77470000Y-58420000D02*
X81280000Y-54610000D01*
X107950000Y-54610000D02*
X118110000Y-64770000D01*
X81280000Y-54610000D02*
X107950000Y-54610000D01*
X116840000Y-63500000D02*
X118110000Y-64770000D01*
X118110000Y-64770000D02*
X119380000Y-66040000D01*
X118110000Y-67310000D02*
X118110000Y-124460000D01*
X121920000Y-128270000D02*
X124460000Y-128270000D01*
X118110000Y-124460000D02*
X121920000Y-128270000D01*
X80010000Y-59690000D02*
X80010000Y-58420000D01*
X80010000Y-58420000D02*
X82550000Y-55880000D01*
X82550000Y-55880000D02*
X106680000Y-55880000D01*
X115570000Y-64770000D02*
X116840000Y-66040000D01*
X106680000Y-55880000D02*
X116840000Y-66040000D01*
X116840000Y-66040000D02*
X118110000Y-67310000D01*
X116840000Y-68580000D02*
X116840000Y-125730000D01*
X121920000Y-130810000D02*
X124460000Y-130810000D01*
X116840000Y-125730000D02*
X121920000Y-130810000D01*
X82550000Y-59690000D02*
X82550000Y-58420000D01*
X82550000Y-58420000D02*
X83820000Y-57150000D01*
X105410000Y-57150000D02*
X115570000Y-67310000D01*
X83820000Y-57150000D02*
X105410000Y-57150000D01*
X114300000Y-66040000D02*
X115570000Y-67310000D01*
X115570000Y-67310000D02*
X116840000Y-68580000D01*
M02*
