G04 #@! TF.GenerationSoftware,KiCad,Pcbnew,5.1.5-52549c5~84~ubuntu19.10.1*
G04 #@! TF.CreationDate,2020-03-18T22:44:12+01:00*
G04 #@! TF.ProjectId,tetris-board,74657472-6973-42d6-926f-6172642e6b69,rev?*
G04 #@! TF.SameCoordinates,Original*
G04 #@! TF.FileFunction,Copper,L2,Bot*
G04 #@! TF.FilePolarity,Positive*
%FSLAX46Y46*%
G04 Gerber Fmt 4.6, Leading zero omitted, Abs format (unit mm)*
G04 Created by KiCad (PCBNEW 5.1.5-52549c5~84~ubuntu19.10.1) date 2020-03-18 22:44:12*
%MOMM*%
%LPD*%
G04 APERTURE LIST*
%ADD10C,0.100000*%
%ADD11C,1.524000*%
%ADD12O,1.600000X1.600000*%
%ADD13R,1.600000X1.600000*%
%ADD14C,3.000000*%
%ADD15R,3.000000X3.000000*%
%ADD16O,1.905000X2.000000*%
%ADD17R,1.905000X2.000000*%
%ADD18C,1.600000*%
%ADD19C,2.000000*%
%ADD20O,1.400000X1.400000*%
%ADD21C,1.400000*%
%ADD22R,2.000000X2.000000*%
%ADD23C,0.300000*%
G04 APERTURE END LIST*
D10*
X42512857Y-47807619D02*
X42465238Y-47760000D01*
X42370000Y-47712380D01*
X42131904Y-47712380D01*
X42036666Y-47760000D01*
X41989047Y-47807619D01*
X41941428Y-47902857D01*
X41941428Y-47998095D01*
X41989047Y-48140952D01*
X42560476Y-48712380D01*
X41941428Y-48712380D01*
X41322380Y-47712380D02*
X41227142Y-47712380D01*
X41131904Y-47760000D01*
X41084285Y-47807619D01*
X41036666Y-47902857D01*
X40989047Y-48093333D01*
X40989047Y-48331428D01*
X41036666Y-48521904D01*
X41084285Y-48617142D01*
X41131904Y-48664761D01*
X41227142Y-48712380D01*
X41322380Y-48712380D01*
X41417619Y-48664761D01*
X41465238Y-48617142D01*
X41512857Y-48521904D01*
X41560476Y-48331428D01*
X41560476Y-48093333D01*
X41512857Y-47902857D01*
X41465238Y-47807619D01*
X41417619Y-47760000D01*
X41322380Y-47712380D01*
X40560476Y-48617142D02*
X40512857Y-48664761D01*
X40560476Y-48712380D01*
X40608095Y-48664761D01*
X40560476Y-48617142D01*
X40560476Y-48712380D01*
X39893809Y-47712380D02*
X39798571Y-47712380D01*
X39703333Y-47760000D01*
X39655714Y-47807619D01*
X39608095Y-47902857D01*
X39560476Y-48093333D01*
X39560476Y-48331428D01*
X39608095Y-48521904D01*
X39655714Y-48617142D01*
X39703333Y-48664761D01*
X39798571Y-48712380D01*
X39893809Y-48712380D01*
X39989047Y-48664761D01*
X40036666Y-48617142D01*
X40084285Y-48521904D01*
X40131904Y-48331428D01*
X40131904Y-48093333D01*
X40084285Y-47902857D01*
X40036666Y-47807619D01*
X39989047Y-47760000D01*
X39893809Y-47712380D01*
X39227142Y-47712380D02*
X38608095Y-47712380D01*
X38941428Y-48093333D01*
X38798571Y-48093333D01*
X38703333Y-48140952D01*
X38655714Y-48188571D01*
X38608095Y-48283809D01*
X38608095Y-48521904D01*
X38655714Y-48617142D01*
X38703333Y-48664761D01*
X38798571Y-48712380D01*
X39084285Y-48712380D01*
X39179523Y-48664761D01*
X39227142Y-48617142D01*
X38179523Y-48617142D02*
X38131904Y-48664761D01*
X38179523Y-48712380D01*
X38227142Y-48664761D01*
X38179523Y-48617142D01*
X38179523Y-48712380D01*
X37179523Y-48712380D02*
X37750952Y-48712380D01*
X37465238Y-48712380D02*
X37465238Y-47712380D01*
X37560476Y-47855238D01*
X37655714Y-47950476D01*
X37750952Y-47998095D01*
X36227142Y-48712380D02*
X36798571Y-48712380D01*
X36512857Y-48712380D02*
X36512857Y-47712380D01*
X36608095Y-47855238D01*
X36703333Y-47950476D01*
X36798571Y-47998095D01*
D11*
X109220000Y-161290000D03*
X109220000Y-158750000D03*
X109220000Y-156210000D03*
X109220000Y-153670000D03*
X109220000Y-151130000D03*
X109220000Y-148590000D03*
X109220000Y-146050000D03*
X63500000Y-161290000D03*
X63500000Y-158750000D03*
X63500000Y-156210000D03*
X63500000Y-153670000D03*
X63500000Y-151130000D03*
X63500000Y-148590000D03*
X63500000Y-146050000D03*
X137160000Y-111760000D03*
X137160000Y-114300000D03*
X124460000Y-102870000D03*
X124460000Y-105410000D03*
X124460000Y-107950000D03*
X124460000Y-110490000D03*
X124460000Y-113030000D03*
X124460000Y-115570000D03*
X124460000Y-118110000D03*
X124460000Y-120650000D03*
X124460000Y-123190000D03*
X124460000Y-125730000D03*
X124460000Y-128270000D03*
X124460000Y-130810000D03*
X132080000Y-130810000D03*
X134620000Y-130810000D03*
X137160000Y-130810000D03*
X139700000Y-102870000D03*
X139700000Y-105410000D03*
X139700000Y-107950000D03*
X139700000Y-110490000D03*
X139700000Y-113030000D03*
X139700000Y-115570000D03*
X139700000Y-118110000D03*
X139700000Y-120650000D03*
X139700000Y-123190000D03*
X139700000Y-125730000D03*
X139700000Y-128270000D03*
X139700000Y-130810000D03*
X90170000Y-59690000D03*
X87630000Y-59690000D03*
X85090000Y-59690000D03*
X82550000Y-59690000D03*
X80010000Y-59690000D03*
X77470000Y-59690000D03*
X74930000Y-59690000D03*
X72390000Y-59690000D03*
X69850000Y-59690000D03*
X67310000Y-59690000D03*
X64770000Y-59690000D03*
X62230000Y-59690000D03*
X59690000Y-59690000D03*
X57150000Y-59690000D03*
X54610000Y-59690000D03*
X52070000Y-59690000D03*
X109220000Y-199390000D03*
X109220000Y-196850000D03*
X109220000Y-194310000D03*
X109220000Y-191770000D03*
X109220000Y-189230000D03*
X109220000Y-186690000D03*
X109220000Y-184150000D03*
X63500000Y-199390000D03*
X63500000Y-196850000D03*
X63500000Y-194310000D03*
X63500000Y-191770000D03*
X63500000Y-189230000D03*
X63500000Y-186690000D03*
X63500000Y-184150000D03*
D12*
X53340000Y-100330000D03*
X45720000Y-118110000D03*
X53340000Y-102870000D03*
X45720000Y-115570000D03*
X53340000Y-105410000D03*
X45720000Y-113030000D03*
X53340000Y-107950000D03*
X45720000Y-110490000D03*
X53340000Y-110490000D03*
X45720000Y-107950000D03*
X53340000Y-113030000D03*
X45720000Y-105410000D03*
X53340000Y-115570000D03*
X45720000Y-102870000D03*
X53340000Y-118110000D03*
D13*
X45720000Y-100330000D03*
D11*
X109220000Y-123190000D03*
X109220000Y-120650000D03*
X109220000Y-118110000D03*
X109220000Y-115570000D03*
X109220000Y-113030000D03*
X109220000Y-110490000D03*
X109220000Y-107950000D03*
X63500000Y-123190000D03*
X63500000Y-120650000D03*
X63500000Y-118110000D03*
X63500000Y-115570000D03*
X63500000Y-113030000D03*
X63500000Y-110490000D03*
X63500000Y-107950000D03*
D12*
X53340000Y-146050000D03*
X45720000Y-163830000D03*
X53340000Y-148590000D03*
X45720000Y-161290000D03*
X53340000Y-151130000D03*
X45720000Y-158750000D03*
X53340000Y-153670000D03*
X45720000Y-156210000D03*
X53340000Y-156210000D03*
X45720000Y-153670000D03*
X53340000Y-158750000D03*
X45720000Y-151130000D03*
X53340000Y-161290000D03*
X45720000Y-148590000D03*
X53340000Y-163830000D03*
D13*
X45720000Y-146050000D03*
D14*
X139700000Y-201930000D03*
D15*
X139700000Y-207010000D03*
D16*
X124460000Y-205740000D03*
X127000000Y-205740000D03*
D17*
X129540000Y-205740000D03*
D18*
X138430000Y-218400000D03*
D13*
X138430000Y-215900000D03*
D18*
X130810000Y-218400000D03*
D13*
X130810000Y-215900000D03*
D19*
X101750000Y-222250000D03*
X101750000Y-226750000D03*
X95250000Y-222250000D03*
X95250000Y-226750000D03*
X89050000Y-229870000D03*
X89050000Y-234370000D03*
X82550000Y-229870000D03*
X82550000Y-234370000D03*
X89050000Y-214630000D03*
X89050000Y-219130000D03*
X82550000Y-214630000D03*
X82550000Y-219130000D03*
X76350000Y-222250000D03*
X76350000Y-226750000D03*
X69850000Y-222250000D03*
X69850000Y-226750000D03*
D20*
X138430000Y-139700000D03*
D21*
X138430000Y-144780000D03*
D20*
X132080000Y-72390000D03*
D21*
X132080000Y-67310000D03*
D20*
X132080000Y-81280000D03*
D21*
X132080000Y-76200000D03*
D20*
X132080000Y-90170000D03*
D21*
X132080000Y-85090000D03*
D20*
X106680000Y-232410000D03*
D21*
X111760000Y-232410000D03*
D20*
X57150000Y-223520000D03*
D21*
X57150000Y-228600000D03*
D20*
X49530000Y-228600000D03*
D21*
X49530000Y-223520000D03*
D20*
X49530000Y-218440000D03*
D21*
X49530000Y-213360000D03*
D20*
X49530000Y-208280000D03*
D21*
X49530000Y-203200000D03*
D19*
X130830000Y-175260000D03*
D22*
X138430000Y-175260000D03*
D20*
X52070000Y-139700000D03*
D21*
X46990000Y-139700000D03*
D20*
X52070000Y-134620000D03*
D21*
X46990000Y-134620000D03*
D20*
X52070000Y-129540000D03*
D21*
X46990000Y-129540000D03*
D20*
X52070000Y-124460000D03*
D21*
X46990000Y-124460000D03*
D20*
X49530000Y-175260000D03*
D21*
X49530000Y-170180000D03*
D20*
X124460000Y-173990000D03*
D21*
X124460000Y-168910000D03*
D20*
X49530000Y-195580000D03*
D21*
X49530000Y-190500000D03*
D20*
X49530000Y-185420000D03*
D21*
X49530000Y-180340000D03*
D12*
X134620000Y-146050000D03*
X127000000Y-163830000D03*
X134620000Y-148590000D03*
X127000000Y-161290000D03*
X134620000Y-151130000D03*
X127000000Y-158750000D03*
X134620000Y-153670000D03*
X127000000Y-156210000D03*
X134620000Y-156210000D03*
X127000000Y-153670000D03*
X134620000Y-158750000D03*
X127000000Y-151130000D03*
X134620000Y-161290000D03*
X127000000Y-148590000D03*
X134620000Y-163830000D03*
D13*
X127000000Y-146050000D03*
D23*
X111760000Y-156210000D02*
X125730000Y-142240000D01*
X130810000Y-147955000D02*
X131445000Y-148590000D01*
X109220000Y-156210000D02*
X111760000Y-156210000D01*
X131445000Y-148590000D02*
X134620000Y-148590000D01*
X125730000Y-142240000D02*
X128905000Y-142240000D01*
X128905000Y-142240000D02*
X130810000Y-144145000D01*
X130810000Y-144145000D02*
X130810000Y-147955000D01*
X110490000Y-153670000D02*
X109220000Y-153670000D01*
X113665000Y-150495000D02*
X110490000Y-153670000D01*
X113665000Y-145415000D02*
X113665000Y-150495000D01*
X59055000Y-140970000D02*
X109220000Y-140970000D01*
X109220000Y-140970000D02*
X113665000Y-145415000D01*
X45720000Y-115570000D02*
X43180000Y-118110000D01*
X43180000Y-140335000D02*
X45085000Y-142240000D01*
X57785000Y-142240000D02*
X59055000Y-140970000D01*
X43180000Y-118110000D02*
X43180000Y-140335000D01*
X45085000Y-142240000D02*
X57785000Y-142240000D01*
X41910000Y-116840000D02*
X41910000Y-140970000D01*
X43180000Y-142240000D02*
X43815000Y-142875000D01*
X41910000Y-140970000D02*
X43815000Y-142875000D01*
X44588630Y-110490000D02*
X43815000Y-111263630D01*
X45720000Y-110490000D02*
X44588630Y-110490000D01*
X43815000Y-114935000D02*
X41910000Y-116840000D01*
X43815000Y-111263630D02*
X43815000Y-114935000D01*
X106680000Y-149860000D02*
X107950000Y-148590000D01*
X107950000Y-148590000D02*
X109220000Y-148590000D01*
X71755000Y-149860000D02*
X106680000Y-149860000D01*
X64770000Y-142875000D02*
X71755000Y-149860000D01*
X43815000Y-142875000D02*
X64770000Y-142875000D01*
X87630000Y-158750000D02*
X63500000Y-158750000D01*
X96520000Y-167640000D02*
X87630000Y-158750000D01*
X113665000Y-167640000D02*
X96520000Y-167640000D01*
X121395000Y-159910000D02*
X113665000Y-167640000D01*
X121395000Y-150605000D02*
X121395000Y-159910000D01*
X125950000Y-146050000D02*
X121395000Y-150605000D01*
X127000000Y-146050000D02*
X125950000Y-146050000D01*
X61595000Y-151130000D02*
X63500000Y-151130000D01*
X59690000Y-144145000D02*
X60960000Y-145415000D01*
X48260000Y-99060000D02*
X46990000Y-97790000D01*
X40005000Y-141605000D02*
X42545000Y-144145000D01*
X47625000Y-113030000D02*
X48260000Y-112395000D01*
X60960000Y-150495000D02*
X61595000Y-151130000D01*
X60960000Y-145415000D02*
X60960000Y-150495000D01*
X46990000Y-97790000D02*
X43180000Y-97790000D01*
X45720000Y-113030000D02*
X47625000Y-113030000D01*
X42545000Y-98425000D02*
X42545000Y-113030000D01*
X43180000Y-97790000D02*
X42545000Y-98425000D01*
X42545000Y-144145000D02*
X59690000Y-144145000D01*
X48260000Y-112395000D02*
X48260000Y-99060000D01*
X42545000Y-113030000D02*
X40005000Y-115570000D01*
X40005000Y-115570000D02*
X40005000Y-141605000D01*
X136525000Y-151130000D02*
X134620000Y-151130000D01*
X137160000Y-150495000D02*
X136525000Y-151130000D01*
X53340000Y-141605000D02*
X55880000Y-139065000D01*
X53340000Y-118110000D02*
X49530000Y-121920000D01*
X132715000Y-140335000D02*
X132715000Y-146685000D01*
X51435000Y-141605000D02*
X53340000Y-141605000D01*
X49530000Y-121920000D02*
X49530000Y-139700000D01*
X137160000Y-148590000D02*
X137160000Y-150495000D01*
X49530000Y-139700000D02*
X51435000Y-141605000D01*
X55880000Y-139065000D02*
X131445000Y-139065000D01*
X132715000Y-146685000D02*
X133350000Y-147320000D01*
X133350000Y-147320000D02*
X135890000Y-147320000D01*
X131445000Y-139065000D02*
X132715000Y-140335000D01*
X135890000Y-147320000D02*
X137160000Y-148590000D01*
X49530000Y-185420000D02*
X54610000Y-185420000D01*
X58420000Y-189230000D02*
X58420000Y-193040000D01*
X54610000Y-185420000D02*
X58420000Y-189230000D01*
X59690000Y-194310000D02*
X63500000Y-194310000D01*
X58420000Y-193040000D02*
X59690000Y-194310000D01*
X48260000Y-180340000D02*
X49530000Y-180340000D01*
X47625000Y-179705000D02*
X48260000Y-180340000D01*
X48260000Y-172720000D02*
X47625000Y-173355000D01*
X47625000Y-173355000D02*
X47625000Y-179705000D01*
X48260000Y-148590000D02*
X49530000Y-149860000D01*
X49530000Y-149860000D02*
X49530000Y-165735000D01*
X49530000Y-165735000D02*
X52070000Y-168275000D01*
X45720000Y-148590000D02*
X48260000Y-148590000D01*
X50800000Y-172720000D02*
X52070000Y-171450000D01*
X52070000Y-168275000D02*
X52070000Y-171450000D01*
X50800000Y-172720000D02*
X48260000Y-172720000D01*
X52070000Y-198120000D02*
X49530000Y-195580000D01*
X58420000Y-198120000D02*
X52070000Y-198120000D01*
X63500000Y-203200000D02*
X58420000Y-198120000D01*
X67310000Y-186055000D02*
X67310000Y-202565000D01*
X65405000Y-184150000D02*
X67310000Y-186055000D01*
X66675000Y-203200000D02*
X63500000Y-203200000D01*
X63500000Y-184150000D02*
X65405000Y-184150000D01*
X67310000Y-202565000D02*
X66675000Y-203200000D01*
X48496559Y-165498441D02*
X46355000Y-167640000D01*
X48496559Y-152163441D02*
X48496559Y-165498441D01*
X47625000Y-190500000D02*
X49530000Y-190500000D01*
X46355000Y-189230000D02*
X47625000Y-190500000D01*
X46355000Y-149860000D02*
X48496559Y-152163441D01*
X43180000Y-146050000D02*
X42545000Y-146685000D01*
X43180000Y-149860000D02*
X46355000Y-149860000D01*
X46355000Y-167640000D02*
X46355000Y-189230000D01*
X45720000Y-146050000D02*
X43180000Y-146050000D01*
X42545000Y-146685000D02*
X42545000Y-149225000D01*
X42545000Y-149225000D02*
X43180000Y-149860000D01*
X60325000Y-186055000D02*
X60960000Y-186690000D01*
X60960000Y-186690000D02*
X63500000Y-186690000D01*
X60325000Y-177800000D02*
X60325000Y-186055000D01*
X124460000Y-173990000D02*
X64135000Y-173990000D01*
X64135000Y-173990000D02*
X60325000Y-177800000D01*
X58420000Y-163830000D02*
X58420000Y-173355000D01*
X56515000Y-175260000D02*
X49530000Y-175260000D01*
X58420000Y-173355000D02*
X56515000Y-175260000D01*
X63500000Y-161290000D02*
X60960000Y-161290000D01*
X60960000Y-161290000D02*
X58420000Y-163830000D01*
X109220000Y-113030000D02*
X97790000Y-113030000D01*
X97790000Y-113030000D02*
X83820000Y-127000000D01*
X55944999Y-125159999D02*
X57785000Y-127000000D01*
X52769999Y-125159999D02*
X55944999Y-125159999D01*
X52070000Y-124460000D02*
X52769999Y-125159999D01*
X83820000Y-127000000D02*
X57785000Y-127000000D01*
X52070000Y-129540000D02*
X53059949Y-129540000D01*
X103962526Y-128447474D02*
X105410000Y-127000000D01*
X54152474Y-128447474D02*
X103962526Y-128447474D01*
X53059949Y-129540000D02*
X54152474Y-128447474D01*
X105410000Y-127000000D02*
X109220000Y-123190000D01*
X50800000Y-133350000D02*
X52070000Y-134620000D01*
X50800000Y-122555000D02*
X50800000Y-133350000D01*
X51435000Y-121920000D02*
X50800000Y-122555000D01*
X109220000Y-107950000D02*
X100330000Y-107950000D01*
X100330000Y-107950000D02*
X82550000Y-125730000D01*
X60960000Y-125730000D02*
X57150000Y-121920000D01*
X82550000Y-125730000D02*
X60960000Y-125730000D01*
X57150000Y-121920000D02*
X51435000Y-121920000D01*
X113665000Y-121285000D02*
X113030000Y-120650000D01*
X113665000Y-124460000D02*
X113665000Y-121285000D01*
X113030000Y-120650000D02*
X109220000Y-120650000D01*
X54610000Y-137160000D02*
X54610000Y-132080000D01*
X52070000Y-139700000D02*
X54610000Y-137160000D01*
X107632500Y-130492500D02*
X113665000Y-124460000D01*
X54610000Y-132080000D02*
X56197500Y-130492500D01*
X56197500Y-130492500D02*
X107632500Y-130492500D01*
X142240000Y-115570000D02*
X142240000Y-139700000D01*
X134620000Y-146050000D02*
X137160000Y-146050000D01*
X137160000Y-146050000D02*
X138430000Y-147320000D01*
X138430000Y-147320000D02*
X138430000Y-160020000D01*
X137160000Y-161290000D02*
X134620000Y-161290000D01*
X138430000Y-160020000D02*
X137160000Y-161290000D01*
X142240000Y-113030000D02*
X142240000Y-115570000D01*
X124460000Y-204490000D02*
X124460000Y-205740000D01*
X133370000Y-195580000D02*
X124460000Y-204490000D01*
X139700000Y-110490000D02*
X142240000Y-113030000D01*
X132080000Y-72390000D02*
X142240000Y-82550000D01*
X135890000Y-161290000D02*
X142240000Y-167640000D01*
X142240000Y-153670000D02*
X142240000Y-167640000D01*
X138430000Y-195580000D02*
X133370000Y-195580000D01*
X142240000Y-82550000D02*
X142240000Y-115570000D01*
X134620000Y-161290000D02*
X135890000Y-161290000D01*
X142240000Y-167640000D02*
X142240000Y-191770000D01*
X142240000Y-191770000D02*
X138430000Y-195580000D01*
X142240000Y-139700000D02*
X142240000Y-153670000D01*
X53340000Y-146050000D02*
X52070000Y-146050000D01*
X52070000Y-146050000D02*
X50800000Y-147320000D01*
X50800000Y-158750000D02*
X53340000Y-161290000D01*
X50800000Y-147320000D02*
X50800000Y-158750000D01*
X121285000Y-114300000D02*
X124460000Y-118110000D01*
X121285000Y-109855000D02*
X121285000Y-114300000D01*
X113030000Y-101600000D02*
X116205000Y-104775000D01*
X116205000Y-104775000D02*
X121285000Y-109855000D01*
X54610000Y-105410000D02*
X58420000Y-101600000D01*
X53340000Y-105410000D02*
X54610000Y-105410000D01*
X58420000Y-101600000D02*
X113030000Y-101600000D01*
X92075000Y-157480000D02*
X99695000Y-165100000D01*
X62230000Y-157480000D02*
X92075000Y-157480000D01*
X53340000Y-156210000D02*
X60960000Y-156210000D01*
X113030000Y-165100000D02*
X117475000Y-160655000D01*
X60960000Y-156210000D02*
X62230000Y-157480000D01*
X117475000Y-160655000D02*
X117475000Y-153035000D01*
X117475000Y-153035000D02*
X126365000Y-144145000D01*
X99695000Y-165100000D02*
X113030000Y-165100000D01*
X126365000Y-144145000D02*
X128905000Y-144145000D01*
X128905000Y-144145000D02*
X129540000Y-144780000D01*
X129540000Y-144780000D02*
X129540000Y-153670000D01*
X132080000Y-156210000D02*
X134620000Y-156210000D01*
X129540000Y-153670000D02*
X132080000Y-156210000D01*
X127635000Y-116205000D02*
X124460000Y-113030000D01*
X127635000Y-133985000D02*
X127635000Y-116205000D01*
X126365000Y-135255000D02*
X127635000Y-133985000D01*
X120015000Y-135255000D02*
X126365000Y-135255000D01*
X111125000Y-103505000D02*
X118745000Y-111125000D01*
X118745000Y-133985000D02*
X120015000Y-135255000D01*
X53340000Y-110490000D02*
X56515000Y-110490000D01*
X118745000Y-111125000D02*
X118745000Y-133985000D01*
X56515000Y-110490000D02*
X63500000Y-103505000D01*
X63500000Y-103505000D02*
X111125000Y-103505000D01*
X131380001Y-89470001D02*
X132080000Y-90170000D01*
X132080000Y-90170000D02*
X132080000Y-130810000D01*
X127000000Y-171430000D02*
X130830000Y-175260000D01*
X127000000Y-163830000D02*
X127000000Y-171430000D01*
X40640000Y-71120000D02*
X52070000Y-59690000D01*
X45720000Y-90170000D02*
X40640000Y-95250000D01*
X132080000Y-90170000D02*
X45720000Y-90170000D01*
X40640000Y-95250000D02*
X40640000Y-71120000D01*
X127000000Y-206990000D02*
X127000000Y-205740000D01*
X118165010Y-207065010D02*
X120650000Y-209550000D01*
X124440000Y-209550000D02*
X127000000Y-206990000D01*
X63500000Y-207010000D02*
X68580000Y-207010000D01*
X45720000Y-163830000D02*
X43815000Y-165735000D01*
X46990000Y-201295000D02*
X57785000Y-201295000D01*
X68580000Y-207010000D02*
X118165010Y-207065010D01*
X57785000Y-201295000D02*
X63500000Y-207010000D01*
X43815000Y-165735000D02*
X43815000Y-198120000D01*
X120650000Y-209550000D02*
X124440000Y-209550000D01*
X43815000Y-198120000D02*
X46990000Y-201295000D01*
X40640000Y-96520000D02*
X40640000Y-95250000D01*
X41910000Y-163830000D02*
X45720000Y-163830000D01*
X40640000Y-112395000D02*
X38735000Y-114300000D01*
X40640000Y-162560000D02*
X41910000Y-163830000D01*
X40640000Y-154305000D02*
X40640000Y-162560000D01*
X40640000Y-96520000D02*
X40640000Y-112395000D01*
X38735000Y-114300000D02*
X38735000Y-152400000D01*
X38735000Y-152400000D02*
X40640000Y-154305000D01*
X52208630Y-107950000D02*
X49530000Y-105271370D01*
X48895000Y-96520000D02*
X40640000Y-96520000D01*
X49530000Y-97155000D02*
X48895000Y-96520000D01*
X49530000Y-105271370D02*
X49530000Y-97155000D01*
X53340000Y-107950000D02*
X52208630Y-107950000D01*
X48260000Y-118110000D02*
X45720000Y-118110000D01*
X49530000Y-116840000D02*
X48260000Y-118110000D01*
X52208630Y-107950000D02*
X49530000Y-110628630D01*
X49530000Y-110628630D02*
X49530000Y-116840000D01*
X130810000Y-158750000D02*
X130810000Y-160020000D01*
X134620000Y-153670000D02*
X136525000Y-155575000D01*
X132080000Y-157480000D02*
X130810000Y-158750000D01*
X130810000Y-160020000D02*
X127000000Y-163830000D01*
X136525000Y-155575000D02*
X136525000Y-156845000D01*
X136525000Y-156845000D02*
X135890000Y-157480000D01*
X135890000Y-157480000D02*
X132080000Y-157480000D01*
X95250000Y-67310000D02*
X87630000Y-59690000D01*
X132080000Y-67310000D02*
X95250000Y-67310000D01*
X85090000Y-64135000D02*
X85090000Y-59690000D01*
X125095000Y-82550000D02*
X103505000Y-82550000D01*
X134620000Y-125730000D02*
X134620000Y-88900000D01*
X133350000Y-87630000D02*
X130175000Y-87630000D01*
X130175000Y-87630000D02*
X125095000Y-82550000D01*
X103505000Y-82550000D02*
X85090000Y-64135000D01*
X139700000Y-130810000D02*
X134620000Y-125730000D01*
X134620000Y-88900000D02*
X133350000Y-87630000D01*
M02*
